<?xml version="1.0" encoding="UTF-8" standalone="no"?><svg xmlns="http://www.w3.org/2000/svg" xmlns:xlink="http://www.w3.org/1999/xlink" contentScriptType="application/ecmascript" contentStyleType="text/css" height="631px" preserveAspectRatio="none" style="width:1390px;height:631px;" version="1.1" viewBox="0 0 1390 631" width="1390px" zoomAndPan="magnify"><defs><filter height="300%" id="fzo3as112fsv1" width="300%" x="-1" y="-1"><feGaussianBlur result="blurOut" stdDeviation="2.0"/><feColorMatrix in="blurOut" result="blurOut2" type="matrix" values="0 0 0 0 0 0 0 0 0 0 0 0 0 0 0 0 0 0 .4 0"/><feOffset dx="4.0" dy="4.0" in="blurOut2" result="blurOut3"/><feBlend in="SourceGraphic" in2="blurOut3" mode="normal"/></filter></defs><g><!--cluster nl.talsmasoftware.umldoclet.rendering.indent--><polygon fill="#FFFFFF" filter="url(#fzo3as112fsv1)" points="62,171,387,171,394,194.6094,1100,194.6094,1100,619,62,619,62,171" style="stroke: #000000; stroke-width: 1.5;"/><line style="stroke: #000000; stroke-width: 1.5;" x1="62" x2="394" y1="194.6094" y2="194.6094"/><text fill="#000000" font-family="sans-serif" font-size="14" font-weight="bold" lengthAdjust="spacingAndGlyphs" textLength="319" x="66" y="187.5332">nl.talsmasoftware.umldoclet.rendering.indent</text><!--cluster java.lang--><polygon fill="#FFFFFF" filter="url(#fzo3as112fsv1)" points="1124,199,1193,199,1200,222.6094,1368,222.6094,1368,368,1124,368,1124,199" style="stroke: #000000; stroke-width: 1.5;"/><line style="stroke: #000000; stroke-width: 1.5;" x1="1124" x2="1200" y1="222.6094" y2="222.6094"/><text fill="#000000" font-family="sans-serif" font-size="14" font-weight="bold" lengthAdjust="spacingAndGlyphs" textLength="63" x="1128" y="215.5332">java.lang</text><!--cluster java.io--><polygon fill="#FFFFFF" filter="url(#fzo3as112fsv1)" points="22,31,74,31,81,54.6094,378,54.6094,378,131,22,131,22,31" style="stroke: #000000; stroke-width: 1.5;"/><line style="stroke: #000000; stroke-width: 1.5;" x1="22" x2="81" y1="54.6094" y2="54.6094"/><text fill="#000000" font-family="sans-serif" font-size="14" font-weight="bold" lengthAdjust="spacingAndGlyphs" textLength="46" x="26" y="47.5332">java.io</text><!--cluster nl.talsmasoftware.umldoclet.rendering--><polygon fill="#FFFFFF" filter="url(#fzo3as112fsv1)" points="716,24,992,24,999,47.6094,1046,47.6094,1046,138,716,138,716,24" style="stroke: #000000; stroke-width: 1.5;"/><line style="stroke: #000000; stroke-width: 1.5;" x1="716" x2="999" y1="47.6094" y2="47.6094"/><text fill="#000000" font-family="sans-serif" font-size="14" font-weight="bold" lengthAdjust="spacingAndGlyphs" textLength="270" x="720" y="40.5332">nl.talsmasoftware.umldoclet.rendering</text><!--class nl.talsmasoftware.umldoclet.rendering.indent.Indentation--><rect fill="#FEFECE" filter="url(#fzo3as112fsv1)" height="144.8516" id="nl.talsmasoftware.umldoclet.rendering.indent.Indentation" style="stroke: #A80036; stroke-width: 1.5;" width="207" x="101.5" y="458"/><ellipse cx="170.25" cy="474" fill="#ADD1B2" rx="11" ry="11" style="stroke: #A80036; stroke-width: 1.0;"/><path d="M173.0156,469.875 Q173.1719,469.6563 173.3594,469.5469 Q173.5469,469.4375 173.7656,469.4375 Q174.1406,469.4375 174.375,469.6953 Q174.6094,469.9531 174.6094,470.5625 L174.6094,472.0156 Q174.6094,472.625 174.375,472.8906 Q174.1406,473.1563 173.7656,473.1563 Q173.4219,473.1563 173.2188,472.9531 Q173.0156,472.7656 172.9063,472.25 Q172.8594,471.8906 172.6719,471.7031 Q172.3438,471.3281 171.7344,471.1094 Q171.125,470.8906 170.5,470.8906 Q169.7344,470.8906 169.1016,471.2188 Q168.4688,471.5469 167.9766,472.2969 Q167.4844,473.0469 167.4844,474.0781 L167.4844,475.1719 Q167.4844,476.4063 168.375,477.2266 Q169.2656,478.0469 170.8594,478.0469 Q171.7969,478.0469 172.4531,477.7969 Q172.8438,477.6406 173.2656,477.2031 Q173.5313,476.9375 173.6797,476.8594 Q173.8281,476.7813 174.0313,476.7813 Q174.3594,476.7813 174.6172,477.0391 Q174.875,477.2969 174.875,477.6406 Q174.875,477.9844 174.5313,478.3906 Q174.0313,478.9688 173.2344,479.2969 Q172.1563,479.75 170.8594,479.75 Q169.3438,479.75 168.1406,479.125 Q167.1563,478.625 166.4688,477.5547 Q165.7813,476.4844 165.7813,475.2031 L165.7813,474.0469 Q165.7813,472.7188 166.3984,471.5703 Q167.0156,470.4219 168.1094,469.8047 Q169.2031,469.1875 170.4375,469.1875 Q171.1719,469.1875 171.8203,469.3516 Q172.4688,469.5156 173.0156,469.875 Z "/><text fill="#000000" font-family="sans-serif" font-size="12" lengthAdjust="spacingAndGlyphs" textLength="61" x="190.75" y="478.9102">Indentation</text><line style="stroke: #A80036; stroke-width: 1.5;" x1="102.5" x2="307.5" y1="490" y2="490"/><line style="stroke: #A80036; stroke-width: 1.5;" x1="102.5" x2="307.5" y1="498" y2="498"/><ellipse cx="112.5" cy="510.418" fill="#84BE84" rx="3" ry="3" style="stroke: #038048; stroke-width: 1.0;"/><text fill="#000000" font-family="sans-serif" font-size="11" lengthAdjust="spacingAndGlyphs" text-decoration="underline" textLength="98" x="121.5" y="513.4189">tabs(int): Indentation</text><line style="stroke: #000000; stroke-width: 1.0;" x1="121.5" x2="219.5" y1="515.4189" y2="515.4189"/><ellipse cx="112.5" cy="524.2539" fill="#84BE84" rx="3" ry="3" style="stroke: #038048; stroke-width: 1.0;"/><text fill="#000000" font-family="sans-serif" font-size="11" lengthAdjust="spacingAndGlyphs" text-decoration="underline" textLength="130" x="121.5" y="527.2549">spaces(int, int): Indentation</text><line style="stroke: #000000; stroke-width: 1.0;" x1="121.5" x2="251.5" y1="529.2549" y2="529.2549"/><ellipse cx="112.5" cy="538.0898" fill="#84BE84" rx="3" ry="3" style="stroke: #038048; stroke-width: 1.0;"/><text fill="#000000" font-family="sans-serif" font-size="11" lengthAdjust="spacingAndGlyphs" textLength="108" x="121.5" y="541.0908">increase(): Indentation</text><ellipse cx="112.5" cy="551.9258" fill="#84BE84" rx="3" ry="3" style="stroke: #038048; stroke-width: 1.0;"/><text fill="#000000" font-family="sans-serif" font-size="11" lengthAdjust="spacingAndGlyphs" textLength="112" x="121.5" y="554.9268">decrease(): Indentation</text><ellipse cx="112.5" cy="565.7617" fill="#84BE84" rx="3" ry="3" style="stroke: #038048; stroke-width: 1.0;"/><text fill="#000000" font-family="sans-serif" font-size="11" lengthAdjust="spacingAndGlyphs" textLength="54" x="121.5" y="568.7627">length(): int</text><ellipse cx="112.5" cy="579.5977" fill="#84BE84" rx="3" ry="3" style="stroke: #038048; stroke-width: 1.0;"/><text fill="#000000" font-family="sans-serif" font-size="11" lengthAdjust="spacingAndGlyphs" textLength="80" x="121.5" y="582.5986">charAt(int): char</text><ellipse cx="112.5" cy="593.4336" fill="#84BE84" rx="3" ry="3" style="stroke: #038048; stroke-width: 1.0;"/><text fill="#000000" font-family="sans-serif" font-size="11" lengthAdjust="spacingAndGlyphs" textLength="181" x="121.5" y="596.4346">subSequence(int, int): CharSequence</text><!--class nl.talsmasoftware.umldoclet.rendering.indent.IndentingPrintWriter--><rect fill="#FEFECE" filter="url(#fzo3as112fsv1)" height="172.5234" id="nl.talsmasoftware.umldoclet.rendering.indent.IndentingPrintWriter" style="stroke: #A80036; stroke-width: 1.5;" width="275" x="367.5" y="207"/><ellipse cx="446.75" cy="223" fill="#ADD1B2" rx="11" ry="11" style="stroke: #A80036; stroke-width: 1.0;"/><path d="M449.5156,218.875 Q449.6719,218.6563 449.8594,218.5469 Q450.0469,218.4375 450.2656,218.4375 Q450.6406,218.4375 450.875,218.6953 Q451.1094,218.9531 451.1094,219.5625 L451.1094,221.0156 Q451.1094,221.625 450.875,221.8906 Q450.6406,222.1563 450.2656,222.1563 Q449.9219,222.1563 449.7188,221.9531 Q449.5156,221.7656 449.4063,221.25 Q449.3594,220.8906 449.1719,220.7031 Q448.8438,220.3281 448.2344,220.1094 Q447.625,219.8906 447,219.8906 Q446.2344,219.8906 445.6016,220.2188 Q444.9688,220.5469 444.4766,221.2969 Q443.9844,222.0469 443.9844,223.0781 L443.9844,224.1719 Q443.9844,225.4063 444.875,226.2266 Q445.7656,227.0469 447.3594,227.0469 Q448.2969,227.0469 448.9531,226.7969 Q449.3438,226.6406 449.7656,226.2031 Q450.0313,225.9375 450.1797,225.8594 Q450.3281,225.7813 450.5313,225.7813 Q450.8594,225.7813 451.1172,226.0391 Q451.375,226.2969 451.375,226.6406 Q451.375,226.9844 451.0313,227.3906 Q450.5313,227.9688 449.7344,228.2969 Q448.6563,228.75 447.3594,228.75 Q445.8438,228.75 444.6406,228.125 Q443.6563,227.625 442.9688,226.5547 Q442.2813,225.4844 442.2813,224.2031 L442.2813,223.0469 Q442.2813,221.7188 442.8984,220.5703 Q443.5156,219.4219 444.6094,218.8047 Q445.7031,218.1875 446.9375,218.1875 Q447.6719,218.1875 448.3203,218.3516 Q448.9688,218.5156 449.5156,218.875 Z "/><text fill="#000000" font-family="sans-serif" font-size="12" lengthAdjust="spacingAndGlyphs" textLength="108" x="467.25" y="227.9102">IndentingPrintWriter</text><line style="stroke: #A80036; stroke-width: 1.5;" x1="368.5" x2="641.5" y1="239" y2="239"/><line style="stroke: #A80036; stroke-width: 1.5;" x1="368.5" x2="641.5" y1="247" y2="247"/><polygon fill="#FFFF44" points="378.5,254.418,382.5,258.418,378.5,262.418,374.5,258.418" style="stroke: #B38D22; stroke-width: 1.0;"/><text fill="#000000" font-family="sans-serif" font-size="11" lengthAdjust="spacingAndGlyphs" textLength="217" x="387.5" y="262.4189">IndentingPrintWriter(Appendable, Indentation)</text><ellipse cx="378.5" cy="273.2539" fill="#84BE84" rx="3" ry="3" style="stroke: #038048; stroke-width: 1.0;"/><text fill="#000000" font-family="sans-serif" font-size="11" lengthAdjust="spacingAndGlyphs" text-decoration="underline" textLength="249" x="387.5" y="276.2549">wrap(Appendable, Indentation): IndentingPrintWriter</text><line style="stroke: #000000; stroke-width: 1.0;" x1="387.5" x2="636.5" y1="278.2549" y2="278.2549"/><ellipse cx="378.5" cy="287.0898" fill="#84BE84" rx="3" ry="3" style="stroke: #038048; stroke-width: 1.0;"/><text fill="#000000" font-family="sans-serif" font-size="11" lengthAdjust="spacingAndGlyphs" textLength="136" x="387.5" y="290.0908">indent(): IndentingPrintWriter</text><ellipse cx="378.5" cy="300.9258" fill="#84BE84" rx="3" ry="3" style="stroke: #038048; stroke-width: 1.0;"/><text fill="#000000" font-family="sans-serif" font-size="11" lengthAdjust="spacingAndGlyphs" textLength="148" x="387.5" y="303.9268">unindent(): IndentingPrintWriter</text><ellipse cx="378.5" cy="314.7617" fill="#84BE84" rx="3" ry="3" style="stroke: #038048; stroke-width: 1.0;"/><text fill="#000000" font-family="sans-serif" font-size="11" lengthAdjust="spacingAndGlyphs" textLength="164" x="387.5" y="317.7627">whitespace(): IndentingPrintWriter</text><ellipse cx="378.5" cy="328.5977" fill="#84BE84" rx="3" ry="3" style="stroke: #038048; stroke-width: 1.0;"/><text fill="#000000" font-family="sans-serif" font-size="11" lengthAdjust="spacingAndGlyphs" textLength="145" x="387.5" y="331.5986">newline(): IndentingPrintWriter</text><ellipse cx="378.5" cy="342.4336" fill="#84BE84" rx="3" ry="3" style="stroke: #038048; stroke-width: 1.0;"/><text fill="#000000" font-family="sans-serif" font-size="11" lengthAdjust="spacingAndGlyphs" textLength="215" x="387.5" y="345.4346">append(CharSequence): IndentingPrintWriter</text><ellipse cx="378.5" cy="356.2695" fill="#84BE84" rx="3" ry="3" style="stroke: #038048; stroke-width: 1.0;"/><text fill="#000000" font-family="sans-serif" font-size="11" lengthAdjust="spacingAndGlyphs" textLength="249" x="387.5" y="359.2705">append(CharSequence, int, int): IndentingPrintWriter</text><ellipse cx="378.5" cy="370.1055" fill="#84BE84" rx="3" ry="3" style="stroke: #038048; stroke-width: 1.0;"/><text fill="#000000" font-family="sans-serif" font-size="11" lengthAdjust="spacingAndGlyphs" textLength="165" x="387.5" y="373.1064">append(char): IndentingPrintWriter</text><!--class nl.talsmasoftware.umldoclet.rendering.indent.IndentingRenderer--><rect fill="#FEFECE" filter="url(#fzo3as112fsv1)" height="75.6719" id="nl.talsmasoftware.umldoclet.rendering.indent.IndentingRenderer" style="stroke: #A80036; stroke-width: 1.5;" width="406" x="678" y="255.5"/><ellipse cx="824.75" cy="271.5" fill="#B4A7E5" rx="11" ry="11" style="stroke: #A80036; stroke-width: 1.0;"/><path d="M825.7031,268.1406 L825.7031,274.7969 L827.4219,274.7969 Q828.0313,274.7969 828.2969,275.0313 Q828.5625,275.2656 828.5625,275.6563 Q828.5625,276.0313 828.2969,276.2656 Q828.0313,276.5 827.4219,276.5 L822.2813,276.5 Q821.6719,276.5 821.4063,276.2656 Q821.1406,276.0313 821.1406,275.6406 Q821.1406,275.2656 821.4063,275.0313 Q821.6719,274.7969 822.2813,274.7969 L824,274.7969 L824,268.1406 L822.2813,268.1406 Q821.6719,268.1406 821.4063,267.9063 Q821.1406,267.6719 821.1406,267.2813 Q821.1406,266.9063 821.4063,266.6719 Q821.6719,266.4375 822.2813,266.4375 L827.4219,266.4375 Q828.0313,266.4375 828.2969,266.6719 Q828.5625,266.9063 828.5625,267.2813 Q828.5625,267.6719 828.2969,267.9063 Q828.0313,268.1406 827.4219,268.1406 L825.7031,268.1406 Z "/><text fill="#000000" font-family="sans-serif" font-size="12" font-style="italic" lengthAdjust="spacingAndGlyphs" textLength="104" x="845.25" y="276.4102">IndentingRenderer</text><line style="stroke: #A80036; stroke-width: 1.5;" x1="679" x2="1083" y1="287.5" y2="287.5"/><line style="stroke: #A80036; stroke-width: 1.5;" x1="679" x2="1083" y1="295.5" y2="295.5"/><ellipse cx="689" cy="307.918" fill="#84BE84" rx="3" ry="3" style="stroke: #038048; stroke-width: 1.0;"/><text fill="#000000" font-family="sans-serif" font-size="11" font-style="italic" lengthAdjust="spacingAndGlyphs" textLength="380" x="698" y="310.9189">writeTo(IPW extends IndentingPrintWriter): IPW extends IndentingPrintWriter</text><ellipse cx="689" cy="321.7539" fill="#84BE84" rx="3" ry="3" style="stroke: #038048; stroke-width: 1.0;"/><text fill="#000000" font-family="sans-serif" font-size="11" lengthAdjust="spacingAndGlyphs" textLength="273" x="698" y="324.7549">writeTo(A extends Appendable): A extends Appendable</text><!--class nl.talsmasoftware.umldoclet.rendering.indent.IndentingWriter--><rect fill="#FEFECE" filter="url(#fzo3as112fsv1)" height="172.5234" id="nl.talsmasoftware.umldoclet.rendering.indent.IndentingWriter" style="stroke: #A80036; stroke-width: 1.5;" width="254" x="78" y="207"/><ellipse cx="159.25" cy="223" fill="#ADD1B2" rx="11" ry="11" style="stroke: #A80036; stroke-width: 1.0;"/><path d="M162.0156,218.875 Q162.1719,218.6563 162.3594,218.5469 Q162.5469,218.4375 162.7656,218.4375 Q163.1406,218.4375 163.375,218.6953 Q163.6094,218.9531 163.6094,219.5625 L163.6094,221.0156 Q163.6094,221.625 163.375,221.8906 Q163.1406,222.1563 162.7656,222.1563 Q162.4219,222.1563 162.2188,221.9531 Q162.0156,221.7656 161.9063,221.25 Q161.8594,220.8906 161.6719,220.7031 Q161.3438,220.3281 160.7344,220.1094 Q160.125,219.8906 159.5,219.8906 Q158.7344,219.8906 158.1016,220.2188 Q157.4688,220.5469 156.9766,221.2969 Q156.4844,222.0469 156.4844,223.0781 L156.4844,224.1719 Q156.4844,225.4063 157.375,226.2266 Q158.2656,227.0469 159.8594,227.0469 Q160.7969,227.0469 161.4531,226.7969 Q161.8438,226.6406 162.2656,226.2031 Q162.5313,225.9375 162.6797,225.8594 Q162.8281,225.7813 163.0313,225.7813 Q163.3594,225.7813 163.6172,226.0391 Q163.875,226.2969 163.875,226.6406 Q163.875,226.9844 163.5313,227.3906 Q163.0313,227.9688 162.2344,228.2969 Q161.1563,228.75 159.8594,228.75 Q158.3438,228.75 157.1406,228.125 Q156.1563,227.625 155.4688,226.5547 Q154.7813,225.4844 154.7813,224.2031 L154.7813,223.0469 Q154.7813,221.7188 155.3984,220.5703 Q156.0156,219.4219 157.1094,218.8047 Q158.2031,218.1875 159.4375,218.1875 Q160.1719,218.1875 160.8203,218.3516 Q161.4688,218.5156 162.0156,218.875 Z "/><text fill="#000000" font-family="sans-serif" font-size="12" lengthAdjust="spacingAndGlyphs" textLength="83" x="179.75" y="227.9102">IndentingWriter</text><line style="stroke: #A80036; stroke-width: 1.5;" x1="79" x2="331" y1="239" y2="239"/><line style="stroke: #A80036; stroke-width: 1.5;" x1="79" x2="331" y1="247" y2="247"/><polygon fill="#FFFF44" points="89,254.418,93,258.418,89,262.418,85,258.418" style="stroke: #B38D22; stroke-width: 1.0;"/><text fill="#000000" font-family="sans-serif" font-size="11" lengthAdjust="spacingAndGlyphs" textLength="196" x="98" y="262.4189">IndentingWriter(Appendable, Indentation)</text><ellipse cx="89" cy="273.2539" fill="#84BE84" rx="3" ry="3" style="stroke: #038048; stroke-width: 1.0;"/><text fill="#000000" font-family="sans-serif" font-size="11" lengthAdjust="spacingAndGlyphs" text-decoration="underline" textLength="228" x="98" y="276.2549">wrap(Appendable, Indentation): IndentingWriter</text><line style="stroke: #000000; stroke-width: 1.0;" x1="98" x2="326" y1="278.2549" y2="278.2549"/><ellipse cx="89" cy="287.0898" fill="#84BE84" rx="3" ry="3" style="stroke: #038048; stroke-width: 1.0;"/><text fill="#000000" font-family="sans-serif" font-size="11" lengthAdjust="spacingAndGlyphs" textLength="211" x="98" y="290.0908">withIndentation(Indentation): IndentingWriter</text><ellipse cx="89" cy="300.9258" fill="#84BE84" rx="3" ry="3" style="stroke: #038048; stroke-width: 1.0;"/><text fill="#000000" font-family="sans-serif" font-size="11" lengthAdjust="spacingAndGlyphs" textLength="115" x="98" y="303.9268">indent(): IndentingWriter</text><ellipse cx="89" cy="314.7617" fill="#84BE84" rx="3" ry="3" style="stroke: #038048; stroke-width: 1.0;"/><text fill="#000000" font-family="sans-serif" font-size="11" lengthAdjust="spacingAndGlyphs" textLength="127" x="98" y="317.7627">unindent(): IndentingWriter</text><ellipse cx="89" cy="328.5977" fill="#84BE84" rx="3" ry="3" style="stroke: #038048; stroke-width: 1.0;"/><text fill="#000000" font-family="sans-serif" font-size="11" lengthAdjust="spacingAndGlyphs" textLength="143" x="98" y="331.5986">whitespace(): IndentingWriter</text><ellipse cx="89" cy="342.4336" fill="#84BE84" rx="3" ry="3" style="stroke: #038048; stroke-width: 1.0;"/><text fill="#000000" font-family="sans-serif" font-size="11" lengthAdjust="spacingAndGlyphs" textLength="121" x="98" y="345.4346">write(char[], int, int): void</text><ellipse cx="89" cy="356.2695" fill="#84BE84" rx="3" ry="3" style="stroke: #038048; stroke-width: 1.0;"/><text fill="#000000" font-family="sans-serif" font-size="11" lengthAdjust="spacingAndGlyphs" textLength="58" x="98" y="359.2705">flush(): void</text><ellipse cx="89" cy="370.1055" fill="#84BE84" rx="3" ry="3" style="stroke: #038048; stroke-width: 1.0;"/><text fill="#000000" font-family="sans-serif" font-size="11" lengthAdjust="spacingAndGlyphs" textLength="60" x="98" y="373.1064">close(): void</text><!--class java.lang.CharSequence--><rect fill="#FEFECE" filter="url(#fzo3as112fsv1)" height="117.1797" id="java.lang.CharSequence" style="stroke: #A80036; stroke-width: 1.5;" width="211" x="1140.5" y="235"/><ellipse cx="1200.25" cy="251" fill="#B4A7E5" rx="11" ry="11" style="stroke: #A80036; stroke-width: 1.0;"/><path d="M1201.2031,247.6406 L1201.2031,254.2969 L1202.9219,254.2969 Q1203.5313,254.2969 1203.7969,254.5313 Q1204.0625,254.7656 1204.0625,255.1563 Q1204.0625,255.5313 1203.7969,255.7656 Q1203.5313,256 1202.9219,256 L1197.7813,256 Q1197.1719,256 1196.9063,255.7656 Q1196.6406,255.5313 1196.6406,255.1406 Q1196.6406,254.7656 1196.9063,254.5313 Q1197.1719,254.2969 1197.7813,254.2969 L1199.5,254.2969 L1199.5,247.6406 L1197.7813,247.6406 Q1197.1719,247.6406 1196.9063,247.4063 Q1196.6406,247.1719 1196.6406,246.7813 Q1196.6406,246.4063 1196.9063,246.1719 Q1197.1719,245.9375 1197.7813,245.9375 L1202.9219,245.9375 Q1203.5313,245.9375 1203.7969,246.1719 Q1204.0625,246.4063 1204.0625,246.7813 Q1204.0625,247.1719 1203.7969,247.4063 Q1203.5313,247.6406 1202.9219,247.6406 L1201.2031,247.6406 Z "/><text fill="#000000" font-family="sans-serif" font-size="12" font-style="italic" lengthAdjust="spacingAndGlyphs" textLength="83" x="1220.75" y="255.9102">CharSequence</text><line style="stroke: #A80036; stroke-width: 1.5;" x1="1141.5" x2="1350.5" y1="267" y2="267"/><line style="stroke: #A80036; stroke-width: 1.5;" x1="1141.5" x2="1350.5" y1="275" y2="275"/><ellipse cx="1151.5" cy="287.418" fill="#84BE84" rx="3" ry="3" style="stroke: #038048; stroke-width: 1.0;"/><text fill="#000000" font-family="sans-serif" font-size="11" font-style="italic" lengthAdjust="spacingAndGlyphs" textLength="56" x="1160.5" y="290.4189">length(): int</text><ellipse cx="1151.5" cy="301.2539" fill="#84BE84" rx="3" ry="3" style="stroke: #038048; stroke-width: 1.0;"/><text fill="#000000" font-family="sans-serif" font-size="11" font-style="italic" lengthAdjust="spacingAndGlyphs" textLength="80" x="1160.5" y="304.2549">charAt(int): char</text><ellipse cx="1151.5" cy="315.0898" fill="#84BE84" rx="3" ry="3" style="stroke: #038048; stroke-width: 1.0;"/><text fill="#000000" font-family="sans-serif" font-size="11" font-style="italic" lengthAdjust="spacingAndGlyphs" textLength="185" x="1160.5" y="318.0908">subSequence(int, int): CharSequence</text><ellipse cx="1151.5" cy="328.9258" fill="#84BE84" rx="3" ry="3" style="stroke: #038048; stroke-width: 1.0;"/><text fill="#000000" font-family="sans-serif" font-size="11" lengthAdjust="spacingAndGlyphs" textLength="87" x="1160.5" y="331.9268">chars(): IntStream</text><ellipse cx="1151.5" cy="342.7617" fill="#84BE84" rx="3" ry="3" style="stroke: #038048; stroke-width: 1.0;"/><text fill="#000000" font-family="sans-serif" font-size="11" lengthAdjust="spacingAndGlyphs" textLength="112" x="1160.5" y="345.7627">codePoints(): IntStream</text><!--class java.io.Serializable--><rect fill="#FEFECE" filter="url(#fzo3as112fsv1)" height="48" id="java.io.Serializable" style="stroke: #A80036; stroke-width: 1.5;" width="99" x="38.5" y="67"/><ellipse cx="53.5" cy="83" fill="#B4A7E5" rx="11" ry="11" style="stroke: #A80036; stroke-width: 1.0;"/><path d="M54.4531,79.6406 L54.4531,86.2969 L56.1719,86.2969 Q56.7813,86.2969 57.0469,86.5313 Q57.3125,86.7656 57.3125,87.1563 Q57.3125,87.5313 57.0469,87.7656 Q56.7813,88 56.1719,88 L51.0313,88 Q50.4219,88 50.1563,87.7656 Q49.8906,87.5313 49.8906,87.1406 Q49.8906,86.7656 50.1563,86.5313 Q50.4219,86.2969 51.0313,86.2969 L52.75,86.2969 L52.75,79.6406 L51.0313,79.6406 Q50.4219,79.6406 50.1563,79.4063 Q49.8906,79.1719 49.8906,78.7813 Q49.8906,78.4063 50.1563,78.1719 Q50.4219,77.9375 51.0313,77.9375 L56.1719,77.9375 Q56.7813,77.9375 57.0469,78.1719 Q57.3125,78.4063 57.3125,78.7813 Q57.3125,79.1719 57.0469,79.4063 Q56.7813,79.6406 56.1719,79.6406 L54.4531,79.6406 Z "/><text fill="#000000" font-family="sans-serif" font-size="12" font-style="italic" lengthAdjust="spacingAndGlyphs" textLength="67" x="67.5" y="87.9102">Serializable</text><line style="stroke: #A80036; stroke-width: 1.5;" x1="39.5" x2="136.5" y1="99" y2="99"/><line style="stroke: #A80036; stroke-width: 1.5;" x1="39.5" x2="136.5" y1="107" y2="107"/><!--class java.io.PrintWriter--><rect fill="#FEFECE" filter="url(#fzo3as112fsv1)" height="48" id="java.io.PrintWriter" style="stroke: #A80036; stroke-width: 1.5;" width="89" x="272.5" y="67"/><ellipse cx="287.5" cy="83" fill="#ADD1B2" rx="11" ry="11" style="stroke: #A80036; stroke-width: 1.0;"/><path d="M290.2656,78.875 Q290.4219,78.6563 290.6094,78.5469 Q290.7969,78.4375 291.0156,78.4375 Q291.3906,78.4375 291.625,78.6953 Q291.8594,78.9531 291.8594,79.5625 L291.8594,81.0156 Q291.8594,81.625 291.625,81.8906 Q291.3906,82.1563 291.0156,82.1563 Q290.6719,82.1563 290.4688,81.9531 Q290.2656,81.7656 290.1563,81.25 Q290.1094,80.8906 289.9219,80.7031 Q289.5938,80.3281 288.9844,80.1094 Q288.375,79.8906 287.75,79.8906 Q286.9844,79.8906 286.3516,80.2188 Q285.7188,80.5469 285.2266,81.2969 Q284.7344,82.0469 284.7344,83.0781 L284.7344,84.1719 Q284.7344,85.4063 285.625,86.2266 Q286.5156,87.0469 288.1094,87.0469 Q289.0469,87.0469 289.7031,86.7969 Q290.0938,86.6406 290.5156,86.2031 Q290.7813,85.9375 290.9297,85.8594 Q291.0781,85.7813 291.2813,85.7813 Q291.6094,85.7813 291.8672,86.0391 Q292.125,86.2969 292.125,86.6406 Q292.125,86.9844 291.7813,87.3906 Q291.2813,87.9688 290.4844,88.2969 Q289.4063,88.75 288.1094,88.75 Q286.5938,88.75 285.3906,88.125 Q284.4063,87.625 283.7188,86.5547 Q283.0313,85.4844 283.0313,84.2031 L283.0313,83.0469 Q283.0313,81.7188 283.6484,80.5703 Q284.2656,79.4219 285.3594,78.8047 Q286.4531,78.1875 287.6875,78.1875 Q288.4219,78.1875 289.0703,78.3516 Q289.7188,78.5156 290.2656,78.875 Z "/><text fill="#000000" font-family="sans-serif" font-size="12" lengthAdjust="spacingAndGlyphs" textLength="57" x="301.5" y="87.9102">PrintWriter</text><line style="stroke: #A80036; stroke-width: 1.5;" x1="273.5" x2="360.5" y1="99" y2="99"/><line style="stroke: #A80036; stroke-width: 1.5;" x1="273.5" x2="360.5" y1="107" y2="107"/><!--class java.io.Writer--><rect fill="#FEFECE" filter="url(#fzo3as112fsv1)" height="48" id="java.io.Writer" style="stroke: #A80036; stroke-width: 1.5;" width="64" x="173" y="67"/><ellipse cx="188" cy="83" fill="#ADD1B2" rx="11" ry="11" style="stroke: #A80036; stroke-width: 1.0;"/><path d="M190.7656,78.875 Q190.9219,78.6563 191.1094,78.5469 Q191.2969,78.4375 191.5156,78.4375 Q191.8906,78.4375 192.125,78.6953 Q192.3594,78.9531 192.3594,79.5625 L192.3594,81.0156 Q192.3594,81.625 192.125,81.8906 Q191.8906,82.1563 191.5156,82.1563 Q191.1719,82.1563 190.9688,81.9531 Q190.7656,81.7656 190.6563,81.25 Q190.6094,80.8906 190.4219,80.7031 Q190.0938,80.3281 189.4844,80.1094 Q188.875,79.8906 188.25,79.8906 Q187.4844,79.8906 186.8516,80.2188 Q186.2188,80.5469 185.7266,81.2969 Q185.2344,82.0469 185.2344,83.0781 L185.2344,84.1719 Q185.2344,85.4063 186.125,86.2266 Q187.0156,87.0469 188.6094,87.0469 Q189.5469,87.0469 190.2031,86.7969 Q190.5938,86.6406 191.0156,86.2031 Q191.2813,85.9375 191.4297,85.8594 Q191.5781,85.7813 191.7813,85.7813 Q192.1094,85.7813 192.3672,86.0391 Q192.625,86.2969 192.625,86.6406 Q192.625,86.9844 192.2813,87.3906 Q191.7813,87.9688 190.9844,88.2969 Q189.9063,88.75 188.6094,88.75 Q187.0938,88.75 185.8906,88.125 Q184.9063,87.625 184.2188,86.5547 Q183.5313,85.4844 183.5313,84.2031 L183.5313,83.0469 Q183.5313,81.7188 184.1484,80.5703 Q184.7656,79.4219 185.8594,78.8047 Q186.9531,78.1875 188.1875,78.1875 Q188.9219,78.1875 189.5703,78.3516 Q190.2188,78.5156 190.7656,78.875 Z "/><text fill="#000000" font-family="sans-serif" font-size="12" lengthAdjust="spacingAndGlyphs" textLength="32" x="202" y="87.9102">Writer</text><line style="stroke: #A80036; stroke-width: 1.5;" x1="174" x2="236" y1="99" y2="99"/><line style="stroke: #A80036; stroke-width: 1.5;" x1="174" x2="236" y1="107" y2="107"/><!--class nl.talsmasoftware.umldoclet.rendering.Renderer--><rect fill="#FEFECE" filter="url(#fzo3as112fsv1)" height="61.8359" id="nl.talsmasoftware.umldoclet.rendering.Renderer" style="stroke: #A80036; stroke-width: 1.5;" width="298" x="732" y="60"/><ellipse cx="850.75" cy="76" fill="#B4A7E5" rx="11" ry="11" style="stroke: #A80036; stroke-width: 1.0;"/><path d="M851.7031,72.6406 L851.7031,79.2969 L853.4219,79.2969 Q854.0313,79.2969 854.2969,79.5313 Q854.5625,79.7656 854.5625,80.1563 Q854.5625,80.5313 854.2969,80.7656 Q854.0313,81 853.4219,81 L848.2813,81 Q847.6719,81 847.4063,80.7656 Q847.1406,80.5313 847.1406,80.1406 Q847.1406,79.7656 847.4063,79.5313 Q847.6719,79.2969 848.2813,79.2969 L850,79.2969 L850,72.6406 L848.2813,72.6406 Q847.6719,72.6406 847.4063,72.4063 Q847.1406,72.1719 847.1406,71.7813 Q847.1406,71.4063 847.4063,71.1719 Q847.6719,70.9375 848.2813,70.9375 L853.4219,70.9375 Q854.0313,70.9375 854.2969,71.1719 Q854.5625,71.4063 854.5625,71.7813 Q854.5625,72.1719 854.2969,72.4063 Q854.0313,72.6406 853.4219,72.6406 L851.7031,72.6406 Z "/><text fill="#000000" font-family="sans-serif" font-size="12" font-style="italic" lengthAdjust="spacingAndGlyphs" textLength="52" x="871.25" y="80.9102">Renderer</text><line style="stroke: #A80036; stroke-width: 1.5;" x1="733" x2="1029" y1="92" y2="92"/><line style="stroke: #A80036; stroke-width: 1.5;" x1="733" x2="1029" y1="100" y2="100"/><ellipse cx="743" cy="112.418" fill="#84BE84" rx="3" ry="3" style="stroke: #038048; stroke-width: 1.0;"/><text fill="#000000" font-family="sans-serif" font-size="11" font-style="italic" lengthAdjust="spacingAndGlyphs" textLength="272" x="752" y="115.4189">writeTo(A extends Appendable): A extends Appendable</text><!--link java.lang.CharSequence to nl.talsmasoftware.umldoclet.rendering.indent.Indentation--><path d="M1141.69,361.599 C1128.02,368.582 1113.92,374.955 1100,380 C825.255,479.557 478.748,513.33 308.735,524.382 " fill="none" id="java.lang.CharSequence-nl.talsmasoftware.umldoclet.rendering.indent.Indentation" style="stroke: #A80036; stroke-width: 1.0; stroke-dasharray: 7.0,7.0;"/><polygon fill="none" points="1138.42,355.408,1159.36,352.129,1145.04,367.747,1138.42,355.408" style="stroke: #A80036; stroke-width: 1.0;"/><!--link java.io.Serializable to nl.talsmasoftware.umldoclet.rendering.indent.Indentation--><path d="M68.5843,133.647 C65.0271,143.101 61.8555,153.237 60,163 C41.9921,257.748 23.7741,290.618 60,380 C71.7478,408.986 92.1113,435.452 113.927,457.792 " fill="none" id="java.io.Serializable-nl.talsmasoftware.umldoclet.rendering.indent.Indentation" style="stroke: #A80036; stroke-width: 1.0; stroke-dasharray: 7.0,7.0;"/><polygon fill="none" points="62.2051,130.758,76.3751,115.003,75.1226,136.156,62.2051,130.758" style="stroke: #A80036; stroke-width: 1.0;"/><!--link nl.talsmasoftware.umldoclet.rendering.indent.Indentation to nl.talsmasoftware.umldoclet.rendering.indent.Indentation--><path d="M308.588,510.759 C328.985,513.016 343.5,519.597 343.5,530.5 C343.5,540.4663 331.373,546.8207 313.711,549.5632 " fill="none" id="nl.talsmasoftware.umldoclet.rendering.indent.Indentation-nl.talsmasoftware.umldoclet.rendering.indent.Indentation" style="stroke: #A80036; stroke-width: 1.0;"/><polygon fill="#A80036" points="308.588,550.241,318.0348,553.0262,313.5448,549.5853,316.9857,545.0953,308.588,550.241" style="stroke: #A80036; stroke-width: 1.0;"/><text fill="#000000" font-family="sans-serif" font-size="13" lengthAdjust="spacingAndGlyphs" textLength="58" x="349.5" y="527.9951">DEFAULT</text><text fill="#000000" font-family="sans-serif" font-size="13" lengthAdjust="spacingAndGlyphs" textLength="37" x="360" y="544.3467">NONE</text><!--link java.io.PrintWriter to nl.talsmasoftware.umldoclet.rendering.indent.IndentingPrintWriter--><path d="M352.885,130.271 C373.213,151.951 399.508,179.994 424.502,206.65 " fill="none" id="java.io.PrintWriter-nl.talsmasoftware.umldoclet.rendering.indent.IndentingPrintWriter" style="stroke: #A80036; stroke-width: 1.0;"/><polygon fill="none" points="347.508,134.77,338.934,115.392,357.72,125.194,347.508,134.77" style="stroke: #A80036; stroke-width: 1.0;"/><!--link nl.talsmasoftware.umldoclet.rendering.Renderer to nl.talsmasoftware.umldoclet.rendering.indent.IndentingRenderer--><path d="M881,142.259 C881,177.423 881,223.615 881,255.45 " fill="none" id="nl.talsmasoftware.umldoclet.rendering.Renderer-nl.talsmasoftware.umldoclet.rendering.indent.IndentingRenderer" style="stroke: #A80036; stroke-width: 1.0; stroke-dasharray: 7.0,7.0;"/><polygon fill="none" points="874,142.017,881,122.017,888,142.017,874,142.017" style="stroke: #A80036; stroke-width: 1.0;"/><!--link java.io.Writer to nl.talsmasoftware.umldoclet.rendering.indent.IndentingWriter--><path d="M205,135.46 C205,156.32 205,182.074 205,206.65 " fill="none" id="java.io.Writer-nl.talsmasoftware.umldoclet.rendering.indent.IndentingWriter" style="stroke: #A80036; stroke-width: 1.0;"/><polygon fill="none" points="198,135.392,205,115.392,212,135.392,198,135.392" style="stroke: #A80036; stroke-width: 1.0;"/><!--link nl.talsmasoftware.umldoclet.rendering.indent.IndentingWriter to nl.talsmasoftware.umldoclet.rendering.indent.Indentation--><path d="M205,380.005 C205,403.797 205,429.483 205,452.738 " fill="none" id="nl.talsmasoftware.umldoclet.rendering.indent.IndentingWriter-nl.talsmasoftware.umldoclet.rendering.indent.Indentation" style="stroke: #A80036; stroke-width: 1.0;"/><polygon fill="#A80036" points="205,457.971,209,448.971,205,452.971,201,448.971,205,457.971" style="stroke: #A80036; stroke-width: 1.0;"/><text fill="#000000" font-family="sans-serif" font-size="13" lengthAdjust="spacingAndGlyphs" textLength="63" x="206" y="424.4951">indentation</text><!--
@startuml

    namespace nl.talsmasoftware.umldoclet.rendering.indent {

        class Indentation {
            {static} +tabs(int): Indentation
            {static} +spaces(int, int): Indentation
            +increase(): Indentation
            +decrease(): Indentation
            +length(): int
            +charAt(int): char
            +subSequence(int, int): CharSequence
        }

        class IndentingPrintWriter {
            #IndentingPrintWriter(Appendable, Indentation)
            {static} +wrap(Appendable, Indentation): IndentingPrintWriter
            +indent(): IndentingPrintWriter
            +unindent(): IndentingPrintWriter
            +whitespace(): IndentingPrintWriter
            +newline(): IndentingPrintWriter
            +append(CharSequence): IndentingPrintWriter
            +append(CharSequence, int, int): IndentingPrintWriter
            +append(char): IndentingPrintWriter
        }

        interface IndentingRenderer {
            {abstract} +writeTo(IPW extends IndentingPrintWriter): IPW extends IndentingPrintWriter
            +writeTo(A extends Appendable): A extends Appendable
        }

        class IndentingWriter {
            #IndentingWriter(Appendable, Indentation)
            {static} +wrap(Appendable, Indentation): IndentingWriter
            +withIndentation(Indentation): IndentingWriter
            +indent(): IndentingWriter
            +unindent(): IndentingWriter
            +whitespace(): IndentingWriter
            +write(char[], int, int): void
            +flush(): void
            +close(): void
        }
    }

    namespace java.lang {
        interface CharSequence {
            {abstract} +length(): int
            {abstract} +charAt(int): char
            {abstract} +subSequence(int, int): CharSequence
            +chars(): IntStream
            +codePoints(): IntStream
        }
    }

    namespace java.io {
        interface Serializable
    }

    namespace nl.talsmasoftware.umldoclet.rendering {
        interface Renderer {
            {abstract} +writeTo(A extends Appendable): A extends Appendable
        }
    }

    java.lang.CharSequence <|.. nl.talsmasoftware.umldoclet.rendering.indent.Indentation
    java.io.Serializable <|.. nl.talsmasoftware.umldoclet.rendering.indent.Indentation
    nl.talsmasoftware.umldoclet.rendering.indent.Indentation - -> nl.talsmasoftware.umldoclet.rendering.indent.Indentation: DEFAULT\nNONE
    java.io.PrintWriter <|- - nl.talsmasoftware.umldoclet.rendering.indent.IndentingPrintWriter
    nl.talsmasoftware.umldoclet.rendering.Renderer <|.. nl.talsmasoftware.umldoclet.rendering.indent.IndentingRenderer
    java.io.Writer <|- - nl.talsmasoftware.umldoclet.rendering.indent.IndentingWriter
    nl.talsmasoftware.umldoclet.rendering.indent.IndentingWriter - -> nl.talsmasoftware.umldoclet.rendering.indent.Indentation: indentation

@enduml

PlantUML version 1.2018.05(Sat May 05 22:00:17 CEST 2018)
(APACHE source distribution)
Java Runtime: Java(TM) SE Runtime Environment
JVM: Java HotSpot(TM) 64-Bit Server VM
Java Version: 9+181
Operating System: Windows 7
OS Version: 6.1
Default Encoding: Cp1252
Language: en
Country: US
--></g></svg>