<?xml version="1.0" encoding="UTF-8" standalone="no"?>
<svg xmlns="http://www.w3.org/2000/svg" contentScriptType="application/ecmascript" contentStyleType="text/css"
     height="1069px" preserveAspectRatio="none" style="width:2010px;height:1069px;" version="1.1"
     viewBox="0 0 2010 1069" width="2010px" zoomAndPan="magnify"><defs><filter height="300%" id="favugbb" width="300%" x="-1" y="-1"><feGaussianBlur result="blurOut" stdDeviation="2.0"/><feColorMatrix in="blurOut" result="blurOut2" type="matrix" values="0 0 0 0 0 0 0 0 0 0 0 0 0 0 0 0 0 0 .4 0"/><feOffset dx="4.0" dy="4.0" in="blurOut2" result="blurOut3"/><feBlend in="SourceGraphic" in2="blurOut3" mode="normal"/></filter></defs><g><!--cluster nl.talsmasoftware.umldoclet.rendering--><polygon fill="#FFFFFF" filter="url(#favugbb)" points="22,24,304,24,311,46.4883,2003,46.4883,2003,1062,22,1062,22,24" style="stroke: #000000; stroke-width: 2.0;"/><line style="stroke: #000000; stroke-width: 2.0;" x1="22" x2="311" y1="46.4883" y2="46.4883"/><text fill="#000000" font-family="sans-serif" font-size="14" font-weight="bold" lengthAdjust="spacingAndGlyphs" textLength="276" x="26" y="39.5352">nl.talsmasoftware.umldoclet.rendering</text><!--class nl.talsmasoftware.umldoclet.rendering.Renderer--><rect fill="#FEFECE" filter="url(#favugbb)" height="138.6855" style="stroke: #A80036; stroke-width: 1.5;" width="354" x="1041" y="59"/><ellipse cx="1186.75" cy="75" fill="#A9DCDF" rx="11" ry="11" style="stroke: #A80036; stroke-width: 1.0;"/><path d="M1186.8633,70.3481 L1185.7095,75.4199 L1188.0254,75.4199 Z M1185.3691,68.1069 L1188.3657,68.1069 L1191.7109,80.5 L1189.2622,80.5 L1188.4985,77.437 L1185.2197,77.437 L1184.4727,80.5 L1182.0239,80.5 Z "/><text fill="#000000" font-family="sans-serif" font-size="12" font-style="italic" lengthAdjust="spacingAndGlyphs" textLength="54" x="1207.25" y="79.5352">Renderer</text><line style="stroke: #A80036; stroke-width: 1.5;" x1="1042" x2="1394" y1="91" y2="91"/><line style="stroke: #A80036; stroke-width: 1.5;" x1="1042" x2="1394" y1="99" y2="99"/><polygon fill="#FFFF44" points="1052,105.9775,1056,109.9775,1052,113.9775,1048,109.9775" style="stroke: #B38D22; stroke-width: 1.0;"/><text fill="#000000" font-family="sans-serif" font-size="11" lengthAdjust="spacingAndGlyphs" textLength="151" x="1061" y="113.6348">Renderer(DiagramRenderer)</text><ellipse cx="1052" cy="123.9326" fill="#84BE84" rx="3" ry="3" style="stroke: #038048; stroke-width: 1.0;"/><text fill="#000000" font-family="sans-serif" font-size="11" lengthAdjust="spacingAndGlyphs" textLength="118" x="1061" y="126.5898">writeTo(Writer): Writer</text><polygon fill="#FFFF44" points="1052,131.8877,1056,135.8877,1052,139.8877,1048,135.8877" style="stroke: #B38D22; stroke-width: 1.0;"/><text fill="#000000" font-family="sans-serif" font-size="11" lengthAdjust="spacingAndGlyphs" textLength="316" x="1061" y="139.5449">writeChildrenTo(IndentingPrintWriter): IndentingPrintWriter</text><polygon fill="#FFFF44" points="1052,144.8428,1056,148.8428,1052,152.8428,1048,148.8428" style="stroke: #B38D22; stroke-width: 1.0;"/><text fill="#000000" font-family="sans-serif" font-size="11" lengthAdjust="spacingAndGlyphs" textLength="110" x="1061" y="152.5">lastChild(): Renderer</text><polygon fill="#FFFF44" points="1052,157.7979,1056,161.7979,1052,165.7979,1048,161.7979" style="stroke: #B38D22; stroke-width: 1.0;"/><text fill="#000000" font-family="sans-serif" font-size="11" lengthAdjust="spacingAndGlyphs" text-decoration="underline" textLength="328" x="1061" y="165.4551">writeTypeTo(IndentingPrintWriter, Type): IndentingPrintWriter</text><line style="stroke: #000000; stroke-width: 1.0;" x1="1061" x2="1389" y1="167.4551" y2="167.4551"/><ellipse cx="1052" cy="175.7529" fill="#84BE84" rx="3" ry="3" style="stroke: #038048; stroke-width: 1.0;"/><text fill="#000000" font-family="sans-serif" font-size="11" lengthAdjust="spacingAndGlyphs" text-decoration="underline" textLength="116" x="1061" y="178.4102">quoted(String): String</text><line style="stroke: #000000; stroke-width: 1.0;" x1="1061" x2="1177" y1="180.4102" y2="180.4102"/><polygon fill="#FFFF44" points="1052,183.708,1056,187.708,1052,191.708,1048,187.708" style="stroke: #B38D22; stroke-width: 1.0;"/><text fill="#000000" font-family="sans-serif" font-size="11" font-style="italic" lengthAdjust="spacingAndGlyphs" textLength="270" x="1061" y="191.3652">writeTo(IndentingPrintWriter): IndentingPrintWriter</text><!--class nl.talsmasoftware.umldoclet.rendering.ParentAwareRenderer--><rect fill="#FEFECE" filter="url(#favugbb)" height="60.9551" style="stroke: #A80036; stroke-width: 1.5;" width="199" x="1121.5" y="344"/><ellipse cx="1154.5" cy="360" fill="#A9DCDF" rx="11" ry="11" style="stroke: #A80036; stroke-width: 1.0;"/><path d="M1154.6133,355.3481 L1153.4595,360.4199 L1155.7754,360.4199 Z M1153.1191,353.1069 L1156.1157,353.1069 L1159.4609,365.5 L1157.0122,365.5 L1156.2485,362.437 L1152.9697,362.437 L1152.2227,365.5 L1149.7739,365.5 Z "/><text fill="#000000" font-family="sans-serif" font-size="12" font-style="italic" lengthAdjust="spacingAndGlyphs" textLength="127" x="1172.5" y="364.5352">ParentAwareRenderer</text><line style="stroke: #A80036; stroke-width: 1.5;" x1="1122.5" x2="1319.5" y1="376" y2="376"/><line style="stroke: #A80036; stroke-width: 1.5;" x1="1122.5" x2="1319.5" y1="384" y2="384"/><polygon fill="#FFFF44" points="1132.5,390.9775,1136.5,394.9775,1132.5,398.9775,1128.5,394.9775" style="stroke: #B38D22; stroke-width: 1.0;"/><text fill="#000000" font-family="sans-serif" font-size="11" lengthAdjust="spacingAndGlyphs" textLength="173" x="1141.5" y="398.6348">ParentAwareRenderer(Renderer)</text><!--class nl.talsmasoftware.umldoclet.rendering.PackageRenderer--><rect fill="#FEFECE" filter="url(#favugbb)" height="86.8652" style="stroke: #A80036; stroke-width: 1.5;" width="296" x="38" y="331"/><ellipse cx="130.75" cy="347" fill="#ADD1B2" rx="11" ry="11" style="stroke: #A80036; stroke-width: 1.0;"/><path d="M133.7231,352.6431 Q133.1421,352.9419 132.5029,353.0913 Q131.8638,353.2407 131.1582,353.2407 Q128.6514,353.2407 127.3315,351.5889 Q126.0117,349.937 126.0117,346.8159 Q126.0117,343.6865 127.3315,342.0347 Q128.6514,340.3828 131.1582,340.3828 Q131.8638,340.3828 132.5112,340.5322 Q133.1587,340.6816 133.7231,340.9805 L133.7231,343.7031 Q133.0923,343.1221 132.4988,342.8523 Q131.9053,342.5825 131.2744,342.5825 Q129.9297,342.5825 129.2449,343.6492 Q128.5601,344.7158 128.5601,346.8159 Q128.5601,348.9077 129.2449,349.9744 Q129.9297,351.041 131.2744,351.041 Q131.9053,351.041 132.4988,350.7712 Q133.0923,350.5015 133.7231,349.9204 Z "/><text fill="#000000" font-family="sans-serif" font-size="12" lengthAdjust="spacingAndGlyphs" textLength="102" x="151.25" y="351.5352">PackageRenderer</text><line style="stroke: #A80036; stroke-width: 1.5;" x1="39" x2="333" y1="363" y2="363"/><polygon fill="none" points="49,369.9775,53,373.9775,49,377.9775,45,373.9775" style="stroke: #B38D22; stroke-width: 1.0;"/><text fill="#000000" font-family="sans-serif" font-size="11" lengthAdjust="spacingAndGlyphs" textLength="135" x="58" y="377.6348">packageDoc: PackageDoc</text><line style="stroke: #A80036; stroke-width: 1.5;" x1="39" x2="333" y1="383.9551" y2="383.9551"/><polygon fill="#FFFF44" points="49,390.9326,53,394.9326,49,398.9326,45,394.9326" style="stroke: #B38D22; stroke-width: 1.0;"/><text fill="#000000" font-family="sans-serif" font-size="11" lengthAdjust="spacingAndGlyphs" textLength="264" x="58" y="398.5898">PackageRenderer(DiagramRenderer, PackageDoc)</text><polygon fill="#FFFF44" points="49,403.8877,53,407.8877,49,411.8877,45,407.8877" style="stroke: #B38D22; stroke-width: 1.0;"/><text fill="#000000" font-family="sans-serif" font-size="11" lengthAdjust="spacingAndGlyphs" textLength="270" x="58" y="411.5449">writeTo(IndentingPrintWriter): IndentingPrintWriter</text><!--class nl.talsmasoftware.umldoclet.rendering.NoteRenderer--><rect fill="#FEFECE" filter="url(#favugbb)" height="86.8652" style="stroke: #A80036; stroke-width: 1.5;" width="296" x="975" y="563"/><ellipse cx="1078.25" cy="579" fill="#ADD1B2" rx="11" ry="11" style="stroke: #A80036; stroke-width: 1.0;"/><path d="M1081.2231,584.6431 Q1080.6421,584.9419 1080.0029,585.0913 Q1079.3638,585.2407 1078.6582,585.2407 Q1076.1514,585.2407 1074.8315,583.5889 Q1073.5117,581.937 1073.5117,578.8159 Q1073.5117,575.6865 1074.8315,574.0347 Q1076.1514,572.3828 1078.6582,572.3828 Q1079.3638,572.3828 1080.0112,572.5322 Q1080.6587,572.6816 1081.2231,572.9805 L1081.2231,575.7031 Q1080.5923,575.1221 1079.9988,574.8523 Q1079.4053,574.5825 1078.7744,574.5825 Q1077.4297,574.5825 1076.7449,575.6492 Q1076.0601,576.7158 1076.0601,578.8159 Q1076.0601,580.9077 1076.7449,581.9744 Q1077.4297,583.041 1078.7744,583.041 Q1079.4053,583.041 1079.9988,582.7712 Q1080.5923,582.5015 1081.2231,581.9204 Z "/><text fill="#000000" font-family="sans-serif" font-size="12" lengthAdjust="spacingAndGlyphs" textLength="81" x="1098.75" y="583.5352">NoteRenderer</text><line style="stroke: #A80036; stroke-width: 1.5;" x1="976" x2="1270" y1="595" y2="595"/><polygon fill="none" points="986,601.9775,990,605.9775,986,609.9775,982,605.9775" style="stroke: #B38D22; stroke-width: 1.0;"/><text fill="#000000" font-family="sans-serif" font-size="11" lengthAdjust="spacingAndGlyphs" textLength="62" x="995" y="609.6348">note: String</text><line style="stroke: #A80036; stroke-width: 1.5;" x1="976" x2="1270" y1="615.9551" y2="615.9551"/><polygon fill="#FFFF44" points="986,622.9326,990,626.9326,986,630.9326,982,626.9326" style="stroke: #B38D22; stroke-width: 1.0;"/><text fill="#000000" font-family="sans-serif" font-size="11" lengthAdjust="spacingAndGlyphs" textLength="169" x="995" y="630.5898">NoteRenderer(Renderer, String)</text><polygon fill="#FFFF44" points="986,635.8877,990,639.8877,986,643.8877,982,639.8877" style="stroke: #B38D22; stroke-width: 1.0;"/><text fill="#000000" font-family="sans-serif" font-size="11" lengthAdjust="spacingAndGlyphs" textLength="270" x="995" y="643.5449">writeTo(IndentingPrintWriter): IndentingPrintWriter</text><!--class nl.talsmasoftware.umldoclet.rendering.MethodRenderer--><rect fill="#FEFECE" filter="url(#favugbb)" height="138.6855" style="stroke: #A80036; stroke-width: 1.5;" width="356" x="369" y="305"/><ellipse cx="494.25" cy="321" fill="#ADD1B2" rx="11" ry="11" style="stroke: #A80036; stroke-width: 1.0;"/><path d="M497.2231,326.6431 Q496.6421,326.9419 496.0029,327.0913 Q495.3638,327.2407 494.6582,327.2407 Q492.1514,327.2407 490.8315,325.5889 Q489.5117,323.937 489.5117,320.8159 Q489.5117,317.6865 490.8315,316.0347 Q492.1514,314.3828 494.6582,314.3828 Q495.3638,314.3828 496.0112,314.5322 Q496.6587,314.6816 497.2231,314.9805 L497.2231,317.7031 Q496.5923,317.1221 495.9988,316.8523 Q495.4053,316.5825 494.7744,316.5825 Q493.4297,316.5825 492.7449,317.6492 Q492.0601,318.7158 492.0601,320.8159 Q492.0601,322.9077 492.7449,323.9744 Q493.4297,325.041 494.7744,325.041 Q495.4053,325.041 495.9988,324.7712 Q496.5923,324.5015 497.2231,323.9204 Z "/><text fill="#000000" font-family="sans-serif" font-size="12" lengthAdjust="spacingAndGlyphs" textLength="97" x="514.75" y="325.5352">MethodRenderer</text><line style="stroke: #A80036; stroke-width: 1.5;" x1="370" x2="724" y1="337" y2="337"/><polygon fill="none" points="380,343.9775,384,347.9775,380,351.9775,376,347.9775" style="stroke: #B38D22; stroke-width: 1.0;"/><text fill="#000000" font-family="sans-serif" font-size="11" lengthAdjust="spacingAndGlyphs" textLength="190" x="389" y="351.6348">methodDoc: ExecutableMemberDoc</text><line style="stroke: #A80036; stroke-width: 1.5;" x1="370" x2="724" y1="357.9551" y2="357.9551"/><polygon fill="#FFFF44" points="380,364.9326,384,368.9326,380,372.9326,376,368.9326" style="stroke: #B38D22; stroke-width: 1.0;"/><text fill="#000000" font-family="sans-serif" font-size="11" lengthAdjust="spacingAndGlyphs" textLength="319" x="389" y="372.5898">MethodRenderer(DiagramRenderer, ExecutableMemberDoc)</text><polygon fill="#FFFF44" points="380,377.8877,384,381.8877,380,385.8877,376,381.8877" style="stroke: #B38D22; stroke-width: 1.0;"/><text fill="#000000" font-family="sans-serif" font-size="11" lengthAdjust="spacingAndGlyphs" textLength="136" x="389" y="385.5449">includeMethod(): boolean</text><polygon fill="#FFFF44" points="380,390.8428,384,394.8428,380,398.8428,376,394.8428" style="stroke: #B38D22; stroke-width: 1.0;"/><text fill="#000000" font-family="sans-serif" font-size="11" lengthAdjust="spacingAndGlyphs" textLength="300" x="389" y="398.5">writeNameTo(IndentingPrintWriter): IndentingPrintWriter</text><polygon fill="#FFFF44" points="380,403.7979,384,407.7979,380,411.7979,376,407.7979" style="stroke: #B38D22; stroke-width: 1.0;"/><text fill="#000000" font-family="sans-serif" font-size="11" lengthAdjust="spacingAndGlyphs" textLength="330" x="389" y="411.4551">writeParametersTo(IndentingPrintWriter): IndentingPrintWriter</text><polygon fill="#FFFF44" points="380,416.7529,384,420.7529,380,424.7529,376,420.7529" style="stroke: #B38D22; stroke-width: 1.0;"/><text fill="#000000" font-family="sans-serif" font-size="11" lengthAdjust="spacingAndGlyphs" textLength="270" x="389" y="424.4102">writeTo(IndentingPrintWriter): IndentingPrintWriter</text><polygon fill="#FFFF44" points="380,429.708,384,433.708,380,437.708,376,433.708" style="stroke: #B38D22; stroke-width: 1.0;"/><text fill="#000000" font-family="sans-serif" font-size="11" lengthAdjust="spacingAndGlyphs" textLength="123" x="389" y="437.3652">propertyName(): String</text><!--class nl.talsmasoftware.umldoclet.rendering.LegacyTag--><rect fill="#FEFECE" filter="url(#favugbb)" height="112.7754" style="stroke: #A80036; stroke-width: 1.5;" width="93" x="474.5" y="72"/><ellipse cx="489.5" cy="88" fill="#EB937F" rx="11" ry="11" style="stroke: #A80036; stroke-width: 1.0;"/><path d="M493.6143,94 L485.8945,94 L485.8945,81.6069 L493.6143,81.6069 L493.6143,83.7651 L488.3433,83.7651 L488.3433,86.438 L493.1162,86.438 L493.1162,88.5962 L488.3433,88.5962 L488.3433,91.8418 L493.6143,91.8418 Z "/><text fill="#000000" font-family="sans-serif" font-size="12" lengthAdjust="spacingAndGlyphs" textLength="61" x="503.5" y="92.5352">LegacyTag</text><line style="stroke: #A80036; stroke-width: 1.5;" x1="475.5" x2="566.5" y1="104" y2="104"/><ellipse cx="485.5" cy="115.9775" fill="none" rx="3" ry="3" style="stroke: #038048; stroke-width: 1.0;"/><text fill="#000000" font-family="sans-serif" font-size="11" lengthAdjust="spacingAndGlyphs" text-decoration="underline" textLength="48" x="494.5" y="118.6348">EXTENDS</text><line style="stroke: #000000; stroke-width: 1.0;" x1="494.5" x2="542.5" y1="120.6348" y2="120.6348"/><ellipse cx="485.5" cy="128.9326" fill="none" rx="3" ry="3" style="stroke: #038048; stroke-width: 1.0;"/><text fill="#000000" font-family="sans-serif" font-size="11" lengthAdjust="spacingAndGlyphs" text-decoration="underline" textLength="66" x="494.5" y="131.5898">IMPLEMENTS</text><line style="stroke: #000000; stroke-width: 1.0;" x1="494.5" x2="560.5" y1="133.5898" y2="133.5898"/><ellipse cx="485.5" cy="141.8877" fill="none" rx="3" ry="3" style="stroke: #038048; stroke-width: 1.0;"/><text fill="#000000" font-family="sans-serif" font-size="11" lengthAdjust="spacingAndGlyphs" text-decoration="underline" textLength="37" x="494.5" y="144.5449">ASSOC</text><line style="stroke: #000000; stroke-width: 1.0;" x1="494.5" x2="531.5" y1="146.5449" y2="146.5449"/><ellipse cx="485.5" cy="154.8428" fill="none" rx="3" ry="3" style="stroke: #038048; stroke-width: 1.0;"/><text fill="#000000" font-family="sans-serif" font-size="11" lengthAdjust="spacingAndGlyphs" text-decoration="underline" textLength="60" x="494.5" y="157.5">NAVASSOC</text><line style="stroke: #000000; stroke-width: 1.0;" x1="494.5" x2="554.5" y1="159.5" y2="159.5"/><ellipse cx="485.5" cy="167.7979" fill="none" rx="3" ry="3" style="stroke: #038048; stroke-width: 1.0;"/><text fill="#000000" font-family="sans-serif" font-size="11" lengthAdjust="spacingAndGlyphs" text-decoration="underline" textLength="42" x="494.5" y="170.4551">DEPEND</text><line style="stroke: #000000; stroke-width: 1.0;" x1="494.5" x2="536.5" y1="172.4551" y2="172.4551"/><line style="stroke: #A80036; stroke-width: 1.5;" x1="475.5" x2="566.5" y1="176.7754" y2="176.7754"/><!--class nl.talsmasoftware.umldoclet.rendering.FieldRenderer--><rect fill="#FEFECE" filter="url(#favugbb)" height="125.7305" style="stroke: #A80036; stroke-width: 1.5;" width="326" x="760" y="311.5"/><ellipse cx="878.25" cy="327.5" fill="#ADD1B2" rx="11" ry="11" style="stroke: #A80036; stroke-width: 1.0;"/><path d="M881.2231,333.1431 Q880.6421,333.4419 880.0029,333.5913 Q879.3638,333.7407 878.6582,333.7407 Q876.1514,333.7407 874.8315,332.0889 Q873.5117,330.437 873.5117,327.3159 Q873.5117,324.1865 874.8315,322.5347 Q876.1514,320.8828 878.6582,320.8828 Q879.3638,320.8828 880.0112,321.0322 Q880.6587,321.1816 881.2231,321.4805 L881.2231,324.2031 Q880.5923,323.6221 879.9988,323.3523 Q879.4053,323.0825 878.7744,323.0825 Q877.4297,323.0825 876.7449,324.1492 Q876.0601,325.2158 876.0601,327.3159 Q876.0601,329.4077 876.7449,330.4744 Q877.4297,331.541 878.7744,331.541 Q879.4053,331.541 879.9988,331.2712 Q880.5923,331.0015 881.2231,330.4204 Z "/><text fill="#000000" font-family="sans-serif" font-size="12" lengthAdjust="spacingAndGlyphs" textLength="81" x="898.75" y="332.0352">FieldRenderer</text><line style="stroke: #A80036; stroke-width: 1.5;" x1="761" x2="1085" y1="343.5" y2="343.5"/><polygon fill="none" points="771,350.4775,775,354.4775,771,358.4775,767,354.4775" style="stroke: #B38D22; stroke-width: 1.0;"/><text fill="#000000" font-family="sans-serif" font-size="11" lengthAdjust="spacingAndGlyphs" textLength="96" x="780" y="358.1348">fieldDoc: FieldDoc</text><line style="stroke: #A80036; stroke-width: 1.5;" x1="761" x2="1085" y1="364.4551" y2="364.4551"/><polygon fill="#FFFF44" points="771,371.4326,775,375.4326,771,379.4326,767,375.4326" style="stroke: #B38D22; stroke-width: 1.0;"/><text fill="#000000" font-family="sans-serif" font-size="11" lengthAdjust="spacingAndGlyphs" textLength="228" x="780" y="379.0898">FieldRenderer(DiagramRenderer, FieldDoc)</text><polygon fill="#FFFF44" points="771,384.3877,775,388.3877,771,392.3877,767,388.3877" style="stroke: #B38D22; stroke-width: 1.0;"/><text fill="#000000" font-family="sans-serif" font-size="11" lengthAdjust="spacingAndGlyphs" textLength="147" x="780" y="392.0449">includeFieldType(): boolean</text><polygon fill="#FFFF44" points="771,397.3428,775,401.3428,771,405.3428,767,401.3428" style="stroke: #B38D22; stroke-width: 1.0;"/><text fill="#000000" font-family="sans-serif" font-size="11" lengthAdjust="spacingAndGlyphs" textLength="121" x="780" y="405">includeField(): boolean</text><polygon fill="#FFFF44" points="771,410.2979,775,414.2979,771,418.2979,767,414.2979" style="stroke: #B38D22; stroke-width: 1.0;"/><text fill="#000000" font-family="sans-serif" font-size="11" lengthAdjust="spacingAndGlyphs" textLength="300" x="780" y="417.9551">writeNameTo(IndentingPrintWriter): IndentingPrintWriter</text><polygon fill="#FFFF44" points="771,423.2529,775,427.2529,771,431.2529,767,427.2529" style="stroke: #B38D22; stroke-width: 1.0;"/><text fill="#000000" font-family="sans-serif" font-size="11" lengthAdjust="spacingAndGlyphs" textLength="270" x="780" y="430.9102">writeTo(IndentingPrintWriter): IndentingPrintWriter</text><!--class nl.talsmasoftware.umldoclet.rendering.DiagramRenderer--><rect fill="#FEFECE" filter="url(#favugbb)" height="125.7305" style="stroke: #A80036; stroke-width: 1.5;" width="300" x="1356" y="311.5"/><ellipse cx="1450.25" cy="327.5" fill="#ADD1B2" rx="11" ry="11" style="stroke: #A80036; stroke-width: 1.0;"/><path d="M1453.2231,333.1431 Q1452.6421,333.4419 1452.0029,333.5913 Q1451.3638,333.7407 1450.6582,333.7407 Q1448.1514,333.7407 1446.8315,332.0889 Q1445.5117,330.437 1445.5117,327.3159 Q1445.5117,324.1865 1446.8315,322.5347 Q1448.1514,320.8828 1450.6582,320.8828 Q1451.3638,320.8828 1452.0112,321.0322 Q1452.6587,321.1816 1453.2231,321.4805 L1453.2231,324.2031 Q1452.5923,323.6221 1451.9988,323.3523 Q1451.4053,323.0825 1450.7744,323.0825 Q1449.4297,323.0825 1448.7449,324.1492 Q1448.0601,325.2158 1448.0601,327.3159 Q1448.0601,329.4077 1448.7449,330.4744 Q1449.4297,331.541 1450.7744,331.541 Q1451.4053,331.541 1451.9988,331.2712 Q1452.5923,331.0015 1453.2231,330.4204 Z "/><text fill="#000000" font-family="sans-serif" font-size="12" lengthAdjust="spacingAndGlyphs" textLength="103" x="1470.75" y="332.0352">DiagramRenderer</text><line style="stroke: #A80036; stroke-width: 1.5;" x1="1357" x2="1655" y1="343.5" y2="343.5"/><polygon fill="none" points="1367,350.4775,1371,354.4775,1367,358.4775,1363,354.4775" style="stroke: #B38D22; stroke-width: 1.0;"/><text fill="#000000" font-family="sans-serif" font-size="11" lengthAdjust="spacingAndGlyphs" textLength="133" x="1376" y="358.1348">config: UMLDocletConfig</text><line style="stroke: #A80036; stroke-width: 1.5;" x1="1357" x2="1655" y1="364.4551" y2="364.4551"/><ellipse cx="1367" cy="376.4326" fill="#84BE84" rx="3" ry="3" style="stroke: #038048; stroke-width: 1.0;"/><text fill="#000000" font-family="sans-serif" font-size="11" lengthAdjust="spacingAndGlyphs" textLength="195" x="1376" y="379.0898">DiagramRenderer(UMLDocletConfig)</text><ellipse cx="1367" cy="389.3877" fill="#84BE84" rx="3" ry="3" style="stroke: #038048; stroke-width: 1.0;"/><text fill="#000000" font-family="sans-serif" font-size="11" lengthAdjust="spacingAndGlyphs" textLength="207" x="1376" y="392.0449">addClass(ClassDoc): DiagramRenderer</text><ellipse cx="1367" cy="402.3428" fill="#84BE84" rx="3" ry="3" style="stroke: #038048; stroke-width: 1.0;"/><text fill="#000000" font-family="sans-serif" font-size="11" lengthAdjust="spacingAndGlyphs" textLength="235" x="1376" y="405">addPackage(PackageDoc): DiagramRenderer</text><ellipse cx="1367" cy="415.2979" fill="#84BE84" rx="3" ry="3" style="stroke: #038048; stroke-width: 1.0;"/><text fill="#000000" font-family="sans-serif" font-size="11" lengthAdjust="spacingAndGlyphs" textLength="274" x="1376" y="417.9551">addDependencyDiagram(Object): DiagramRenderer</text><polygon fill="#FFFF44" points="1367,423.2529,1371,427.2529,1367,431.2529,1363,427.2529" style="stroke: #B38D22; stroke-width: 1.0;"/><text fill="#000000" font-family="sans-serif" font-size="11" lengthAdjust="spacingAndGlyphs" textLength="270" x="1376" y="430.9102">writeTo(IndentingPrintWriter): IndentingPrintWriter</text><!--class nl.talsmasoftware.umldoclet.rendering.CommandRenderer--><rect fill="#FEFECE" filter="url(#favugbb)" height="86.8652" style="stroke: #A80036; stroke-width: 1.5;" width="296" x="1691" y="331"/><ellipse cx="1778.25" cy="347" fill="#ADD1B2" rx="11" ry="11" style="stroke: #A80036; stroke-width: 1.0;"/><path d="M1781.2231,352.6431 Q1780.6421,352.9419 1780.0029,353.0913 Q1779.3638,353.2407 1778.6582,353.2407 Q1776.1514,353.2407 1774.8315,351.5889 Q1773.5117,349.937 1773.5117,346.8159 Q1773.5117,343.6865 1774.8315,342.0347 Q1776.1514,340.3828 1778.6582,340.3828 Q1779.3638,340.3828 1780.0112,340.5322 Q1780.6587,340.6816 1781.2231,340.9805 L1781.2231,343.7031 Q1780.5923,343.1221 1779.9988,342.8523 Q1779.4053,342.5825 1778.7744,342.5825 Q1777.4297,342.5825 1776.7449,343.6492 Q1776.0601,344.7158 1776.0601,346.8159 Q1776.0601,348.9077 1776.7449,349.9744 Q1777.4297,351.041 1778.7744,351.041 Q1779.4053,351.041 1779.9988,350.7712 Q1780.5923,350.5015 1781.2231,349.9204 Z "/><text fill="#000000" font-family="sans-serif" font-size="12" lengthAdjust="spacingAndGlyphs" textLength="113" x="1798.75" y="351.5352">CommandRenderer</text><line style="stroke: #A80036; stroke-width: 1.5;" x1="1692" x2="1986" y1="363" y2="363"/><polygon fill="none" points="1702,369.9775,1706,373.9775,1702,377.9775,1698,373.9775" style="stroke: #B38D22; stroke-width: 1.0;"/><text fill="#000000" font-family="sans-serif" font-size="11" lengthAdjust="spacingAndGlyphs" textLength="91" x="1711" y="377.6348">command: String</text><line style="stroke: #A80036; stroke-width: 1.5;" x1="1692" x2="1986" y1="383.9551" y2="383.9551"/><polygon fill="#FFFF44" points="1702,390.9326,1706,394.9326,1702,398.9326,1698,394.9326" style="stroke: #B38D22; stroke-width: 1.0;"/><text fill="#000000" font-family="sans-serif" font-size="11" lengthAdjust="spacingAndGlyphs" textLength="244" x="1711" y="398.5898">CommandRenderer(DiagramRenderer, String)</text><polygon fill="#FFFF44" points="1702,403.8877,1706,407.8877,1702,411.8877,1698,407.8877" style="stroke: #B38D22; stroke-width: 1.0;"/><text fill="#000000" font-family="sans-serif" font-size="11" lengthAdjust="spacingAndGlyphs" textLength="270" x="1711" y="411.5449">writeTo(IndentingPrintWriter): IndentingPrintWriter</text><!--class nl.talsmasoftware.umldoclet.rendering.ClassRenderer--><rect fill="#FEFECE" filter="url(#favugbb)" height="203.4609" style="stroke: #A80036; stroke-width: 1.5;" width="398" x="1306" y="505"/><ellipse cx="1458.75" cy="521" fill="#ADD1B2" rx="11" ry="11" style="stroke: #A80036; stroke-width: 1.0;"/><path d="M1461.7231,526.6431 Q1461.1421,526.9419 1460.5029,527.0913 Q1459.8638,527.2407 1459.1582,527.2407 Q1456.6514,527.2407 1455.3315,525.5889 Q1454.0117,523.937 1454.0117,520.8159 Q1454.0117,517.6865 1455.3315,516.0347 Q1456.6514,514.3828 1459.1582,514.3828 Q1459.8638,514.3828 1460.5112,514.5322 Q1461.1587,514.6816 1461.7231,514.9805 L1461.7231,517.7031 Q1461.0923,517.1221 1460.4988,516.8523 Q1459.9053,516.5825 1459.2744,516.5825 Q1457.9297,516.5825 1457.2449,517.6492 Q1456.5601,518.7158 1456.5601,520.8159 Q1456.5601,522.9077 1457.2449,523.9744 Q1457.9297,525.041 1459.2744,525.041 Q1459.9053,525.041 1460.4988,524.7712 Q1461.0923,524.5015 1461.7231,523.9204 Z "/><text fill="#000000" font-family="sans-serif" font-size="12" lengthAdjust="spacingAndGlyphs" textLength="84" x="1479.25" y="525.5352">ClassRenderer</text><line style="stroke: #A80036; stroke-width: 1.5;" x1="1307" x2="1703" y1="537" y2="537"/><polygon fill="none" points="1317,543.9775,1321,547.9775,1317,551.9775,1313,547.9775" style="stroke: #B38D22; stroke-width: 1.0;"/><text fill="#000000" font-family="sans-serif" font-size="11" lengthAdjust="spacingAndGlyphs" textLength="104" x="1326" y="551.6348">classDoc: ClassDoc</text><line style="stroke: #A80036; stroke-width: 1.5;" x1="1307" x2="1703" y1="557.9551" y2="557.9551"/><polygon fill="#FFFF44" points="1317,564.9326,1321,568.9326,1317,572.9326,1313,568.9326" style="stroke: #B38D22; stroke-width: 1.0;"/><text fill="#000000" font-family="sans-serif" font-size="11" lengthAdjust="spacingAndGlyphs" textLength="191" x="1326" y="572.5898">ClassRenderer(Renderer, ClassDoc)</text><polygon fill="#FFFF44" points="1317,577.8877,1321,581.8877,1317,585.8877,1313,581.8877" style="stroke: #B38D22; stroke-width: 1.0;"/><text fill="#000000" font-family="sans-serif" font-size="11" lengthAdjust="spacingAndGlyphs" textLength="92" x="1326" y="585.5449">umlType(): String</text><polygon fill="#FFFF44" points="1317,590.8428,1321,594.8428,1317,598.8428,1313,594.8428" style="stroke: #B38D22; stroke-width: 1.0;"/><text fill="#000000" font-family="sans-serif" font-size="11" lengthAdjust="spacingAndGlyphs" text-decoration="underline" textLength="155" x="1326" y="598.5">umlTypeOf(ClassDoc): String</text><line style="stroke: #000000; stroke-width: 1.0;" x1="1326" x2="1481" y1="600.5" y2="600.5"/><polygon fill="#FFFF44" points="1317,603.7979,1321,607.7979,1317,611.7979,1313,607.7979" style="stroke: #B38D22; stroke-width: 1.0;"/><text fill="#000000" font-family="sans-serif" font-size="11" lengthAdjust="spacingAndGlyphs" textLength="317" x="1326" y="611.4551">writeGenericsTo(IndentingPrintWriter): IndentingPrintWriter</text><polygon fill="#FFFF44" points="1317,616.7529,1321,620.7529,1317,624.7529,1313,620.7529" style="stroke: #B38D22; stroke-width: 1.0;"/><text fill="#000000" font-family="sans-serif" font-size="11" lengthAdjust="spacingAndGlyphs" text-decoration="underline" textLength="372" x="1326" y="624.4102">writeGenericsOf(ClassDoc, IndentingPrintWriter): IndentingPrintWriter</text><line style="stroke: #000000; stroke-width: 1.0;" x1="1326" x2="1698" y1="626.4102" y2="626.4102"/><polygon fill="#FFFF44" points="1317,629.708,1321,633.708,1317,637.708,1313,633.708" style="stroke: #B38D22; stroke-width: 1.0;"/><text fill="#000000" font-family="sans-serif" font-size="11" lengthAdjust="spacingAndGlyphs" textLength="301" x="1326" y="637.3652">writeNotesTo(IndentingPrintWriter): IndentingPrintWriter</text><polygon fill="#FFFF44" points="1317,642.6631,1321,646.6631,1317,650.6631,1313,646.6631" style="stroke: #B38D22; stroke-width: 1.0;"/><text fill="#000000" font-family="sans-serif" font-size="11" lengthAdjust="spacingAndGlyphs" textLength="75" x="1326" y="650.3203">name(): String</text><polygon fill="#FFFF44" points="1317,655.6182,1321,659.6182,1317,663.6182,1313,659.6182" style="stroke: #B38D22; stroke-width: 1.0;"/><text fill="#000000" font-family="sans-serif" font-size="11" lengthAdjust="spacingAndGlyphs" textLength="120" x="1326" y="663.2754">nameOf(String): String</text><polygon fill="#FFFF44" points="1317,668.5732,1321,672.5732,1317,676.5732,1313,672.5732" style="stroke: #B38D22; stroke-width: 1.0;"/><text fill="#000000" font-family="sans-serif" font-size="11" lengthAdjust="spacingAndGlyphs" textLength="254" x="1326" y="676.2305">simplifyClassnameWithinPackage(String): String</text><polygon fill="#FFFF44" points="1317,681.5283,1321,685.5283,1317,689.5283,1313,685.5283" style="stroke: #B38D22; stroke-width: 1.0;"/><text fill="#000000" font-family="sans-serif" font-size="11" lengthAdjust="spacingAndGlyphs" textLength="300" x="1326" y="689.1855">writeNameTo(IndentingPrintWriter): IndentingPrintWriter</text><polygon fill="#FFFF44" points="1317,694.4834,1321,698.4834,1317,702.4834,1313,698.4834" style="stroke: #B38D22; stroke-width: 1.0;"/><text fill="#000000" font-family="sans-serif" font-size="11" lengthAdjust="spacingAndGlyphs" textLength="270" x="1326" y="702.1406">writeTo(IndentingPrintWriter): IndentingPrintWriter</text><!--class nl.talsmasoftware.umldoclet.rendering.ClassReferenceRenderer--><rect fill="#FEFECE" filter="url(#favugbb)" height="138.6855" style="stroke: #A80036; stroke-width: 1.5;" width="389" x="1309.5" y="785"/><ellipse cx="1428.75" cy="801" fill="#ADD1B2" rx="11" ry="11" style="stroke: #A80036; stroke-width: 1.0;"/><path d="M1431.7231,806.6431 Q1431.1421,806.9419 1430.5029,807.0913 Q1429.8638,807.2407 1429.1582,807.2407 Q1426.6514,807.2407 1425.3315,805.5889 Q1424.0117,803.937 1424.0117,800.8159 Q1424.0117,797.6865 1425.3315,796.0347 Q1426.6514,794.3828 1429.1582,794.3828 Q1429.8638,794.3828 1430.5112,794.5322 Q1431.1587,794.6816 1431.7231,794.9805 L1431.7231,797.7031 Q1431.0923,797.1221 1430.4988,796.8523 Q1429.9053,796.5825 1429.2744,796.5825 Q1427.9297,796.5825 1427.2449,797.6492 Q1426.5601,798.7158 1426.5601,800.8159 Q1426.5601,802.9077 1427.2449,803.9744 Q1427.9297,805.041 1429.2744,805.041 Q1429.9053,805.041 1430.4988,804.7712 Q1431.0923,804.5015 1431.7231,803.9204 Z "/><text fill="#000000" font-family="sans-serif" font-size="12" lengthAdjust="spacingAndGlyphs" textLength="142" x="1449.25" y="805.5352">ClassReferenceRenderer</text><line style="stroke: #A80036; stroke-width: 1.5;" x1="1310.5" x2="1697.5" y1="817" y2="817"/><polygon fill="none" points="1320.5,823.9775,1324.5,827.9775,1320.5,831.9775,1316.5,827.9775" style="stroke: #B38D22; stroke-width: 1.0;"/><text fill="#000000" font-family="sans-serif" font-size="11" lengthAdjust="spacingAndGlyphs" textLength="110" x="1329.5" y="831.6348">reference: Reference</text><line style="stroke: #A80036; stroke-width: 1.5;" x1="1310.5" x2="1697.5" y1="837.9551" y2="837.9551"/><polygon fill="#FFFF44" points="1320.5,844.9326,1324.5,848.9326,1320.5,852.9326,1316.5,848.9326" style="stroke: #B38D22; stroke-width: 1.0;"/><text fill="#000000" font-family="sans-serif" font-size="11" lengthAdjust="spacingAndGlyphs" textLength="293" x="1329.5" y="852.5898">ClassReferenceRenderer(ClassRenderer, String, String)</text><polygon fill="#FFFF44" points="1320.5,857.8877,1324.5,861.8877,1320.5,865.8877,1316.5,861.8877" style="stroke: #B38D22; stroke-width: 1.0;"/><text fill="#000000" font-family="sans-serif" font-size="11" lengthAdjust="spacingAndGlyphs" textLength="276" x="1329.5" y="865.5449">ClassReferenceRenderer(ClassRenderer, Reference)</text><polygon fill="#FFFF44" points="1320.5,870.8428,1324.5,874.8428,1320.5,878.8428,1316.5,874.8428" style="stroke: #B38D22; stroke-width: 1.0;"/><text fill="#000000" font-family="sans-serif" font-size="11" lengthAdjust="spacingAndGlyphs" textLength="363" x="1329.5" y="878.5">writeTypeDeclarationsTo(IndentingPrintWriter): IndentingPrintWriter</text><polygon fill="#FFFF44" points="1320.5,883.7979,1324.5,887.7979,1320.5,891.7979,1316.5,887.7979" style="stroke: #B38D22; stroke-width: 1.0;"/><text fill="#000000" font-family="sans-serif" font-size="11" lengthAdjust="spacingAndGlyphs" textLength="138" x="1329.5" y="891.4551">isSelfReference(): boolean</text><polygon fill="#FFFF44" points="1320.5,896.7529,1324.5,900.7529,1320.5,904.7529,1316.5,900.7529" style="stroke: #B38D22; stroke-width: 1.0;"/><text fill="#000000" font-family="sans-serif" font-size="11" lengthAdjust="spacingAndGlyphs" textLength="114" x="1329.5" y="904.4102">addNote(String): void</text><polygon fill="#FFFF44" points="1320.5,909.708,1324.5,913.708,1320.5,917.708,1316.5,913.708" style="stroke: #B38D22; stroke-width: 1.0;"/><text fill="#000000" font-family="sans-serif" font-size="11" lengthAdjust="spacingAndGlyphs" textLength="270" x="1329.5" y="917.3652">writeTo(IndentingPrintWriter): IndentingPrintWriter</text><!--class nl.talsmasoftware.umldoclet.rendering.ClassPropertyRenderer--><rect fill="#FEFECE" filter="url(#favugbb)" height="60.9551" style="stroke: #A80036; stroke-width: 1.5;" width="330" x="1339" y="985"/><ellipse cx="1433.25" cy="1001" fill="#ADD1B2" rx="11" ry="11" style="stroke: #A80036; stroke-width: 1.0;"/><path d="M1436.2231,1006.6431 Q1435.6421,1006.9419 1435.0029,1007.0913 Q1434.3638,1007.2407 1433.6582,1007.2407 Q1431.1514,1007.2407 1429.8315,1005.5889 Q1428.5117,1003.937 1428.5117,1000.8159 Q1428.5117,997.6865 1429.8315,996.0347 Q1431.1514,994.3828 1433.6582,994.3828 Q1434.3638,994.3828 1435.0112,994.5322 Q1435.6587,994.6816 1436.2231,994.9805 L1436.2231,997.7031 Q1435.5923,997.1221 1434.9988,996.8523 Q1434.4053,996.5825 1433.7744,996.5825 Q1432.4297,996.5825 1431.7449,997.6492 Q1431.0601,998.7158 1431.0601,1000.8159 Q1431.0601,1002.9077 1431.7449,1003.9744 Q1432.4297,1005.041 1433.7744,1005.041 Q1434.4053,1005.041 1434.9988,1004.7712 Q1435.5923,1004.5015 1436.2231,1003.9204 Z "/><text fill="#000000" font-family="sans-serif" font-size="12" lengthAdjust="spacingAndGlyphs" textLength="133" x="1453.75" y="1005.5352">ClassPropertyRenderer</text><line style="stroke: #A80036; stroke-width: 1.5;" x1="1340" x2="1668" y1="1017" y2="1017"/><line style="stroke: #A80036; stroke-width: 1.5;" x1="1340" x2="1668" y1="1025" y2="1025"/><polygon fill="#FFFF44" points="1350,1031.9775,1354,1035.9775,1350,1039.9775,1346,1035.9775" style="stroke: #B38D22; stroke-width: 1.0;"/><text fill="#000000" font-family="sans-serif" font-size="11" lengthAdjust="spacingAndGlyphs" textLength="304" x="1359" y="1039.6348">ClassPropertyRenderer(ClassRenderer, ClassDoc, String)</text><path d="M1202.44,218.173 C1200.77,236.927 1200.24,256.608 1202,275 C1204.24,298.405 1209.4,324.517 1213.78,343.972 " fill="none" style="stroke: #A80036; stroke-width: 1.0;"/><polygon fill="none" points="1195.48,217.404,1204.63,198.292,1209.39,218.939,1195.48,217.404" style="stroke: #A80036; stroke-width: 1.0;"/><path d="M1220.64,343.963 C1220.21,309.283 1219.49,250.499 1218.91,203.236 " fill="none" style="stroke: #A80036; stroke-width: 1.0;"/><polygon fill="#A80036" points="1218.84,198.117,1214.9509,207.1655,1218.9014,203.1166,1222.9503,207.0672,1218.84,198.117" style="stroke: #A80036; stroke-width: 1.0;"/><text fill="#000000" font-family="sans-serif" font-size="13" lengthAdjust="spacingAndGlyphs" textLength="40" x="1248.5" y="241.5684">parent</text><text fill="#000000" font-family="sans-serif" font-size="13" lengthAdjust="spacingAndGlyphs" textLength="97" x="1220" y="256.8789">previousSibling</text><text fill="#000000" font-family="sans-serif" font-size="13" lengthAdjust="spacingAndGlyphs" textLength="71" x="1233" y="272.1895">nextSibling</text><path d="M1021.15,158.356 C843.87,186.936 577.314,236.373 352,305 C328.439,312.176 303.611,321.447 280.543,330.835 " fill="none" style="stroke: #A80036; stroke-width: 1.0;"/><polygon fill="none" points="1020.12,151.432,1040.97,155.188,1022.33,165.257,1020.12,151.432" style="stroke: #A80036; stroke-width: 1.0;"/><path d="M1200.46,423.706 C1182.96,464.785 1158.04,523.268 1141.23,562.713 " fill="none" style="stroke: #A80036; stroke-width: 1.0;"/><polygon fill="none" points="1194.11,420.753,1208.39,405.098,1206.99,426.241,1194.11,420.753" style="stroke: #A80036; stroke-width: 1.0;"/><path d="M1022,200.773 C928.151,234.899 816.587,275.468 725.169,308.711 " fill="none" style="stroke: #A80036; stroke-width: 1.0;"/><polygon fill="none" points="1019.64,194.184,1040.82,193.927,1024.42,207.341,1019.64,194.184" style="stroke: #A80036; stroke-width: 1.0;"/><path d="M1119.6,210.889 C1080.04,243.609 1035.16,280.728 998.282,311.233 " fill="none" style="stroke: #A80036; stroke-width: 1.0;"/><polygon fill="none" points="1115.17,205.47,1135.04,198.117,1124.09,216.258,1115.17,205.47" style="stroke: #A80036; stroke-width: 1.0;"/><path d="M1314.32,211.106 C1352.88,243.773 1396.58,280.796 1432.5,311.233 " fill="none" style="stroke: #A80036; stroke-width: 1.0;"/><polygon fill="none" points="1309.73,216.386,1298.99,198.117,1318.78,205.704,1309.73,216.386" style="stroke: #A80036; stroke-width: 1.0;"/><path d="M1331.85,198.206 C1345.41,207.718 1358.77,217.754 1371,228 C1399.45,251.835 1427.85,281.368 1451.22,307.586 " fill="none" style="stroke: #A80036; stroke-width: 1.0;"/><polygon fill="#A80036" points="1454.63,311.429,1451.6522,302.0411,1451.3129,307.6878,1445.6662,307.3485,1454.63,311.429" style="stroke: #A80036; stroke-width: 1.0;"/><text fill="#000000" font-family="sans-serif" font-size="13" lengthAdjust="spacingAndGlyphs" textLength="51" x="1419" y="256.5684">diagram</text><path d="M1413.89,203.058 C1435.87,211.422 1457.93,219.864 1479,228 C1565.92,261.562 1587.63,270.024 1674,305 C1694.41,313.266 1716.19,322.216 1737.01,330.835 " fill="none" style="stroke: #A80036; stroke-width: 1.0;"/><polygon fill="none" points="1411.25,209.544,1395.04,195.898,1416.22,196.456,1411.25,209.544" style="stroke: #A80036; stroke-width: 1.0;"/><path d="M1273.34,417.89 C1303.6,442.396 1343.05,474.347 1380.8,504.916 " fill="none" style="stroke: #A80036; stroke-width: 1.0;"/><polygon fill="none" points="1268.68,423.125,1257.55,405.098,1277.49,412.245,1268.68,423.125" style="stroke: #A80036; stroke-width: 1.0;"/><path d="M1488.28,728.466 C1488.14,737.439 1488.35,746.358 1489,755 C1489.73,764.659 1490.86,774.806 1492.18,784.764 " fill="none" style="stroke: #A80036; stroke-width: 1.0;"/><polygon fill="none" points="1481.29,727.878,1489.12,708.186,1495.28,728.46,1481.29,727.878" style="stroke: #A80036; stroke-width: 1.0;"/><path d="M1504.28,784.809 C1504.37,762.669 1504.47,737.591 1504.57,713.412 " fill="none" style="stroke: #A80036; stroke-width: 1.0;"/><polygon fill="#A80036" points="1504.59,708.267,1500.5515,717.2498,1504.5686,713.267,1508.5514,717.2841,1504.59,708.267" style="stroke: #A80036; stroke-width: 1.0;"/><text fill="#000000" font-family="sans-serif" font-size="13" lengthAdjust="spacingAndGlyphs" textLength="40" x="1505" y="751.5684">parent</text><path d="M1504,944.754 C1504,959.149 1504,973.11 1504,984.7129 " fill="none" style="stroke: #A80036; stroke-width: 1.0;"/><polygon fill="none" points="1497,944.315,1504,924.315,1511,944.315,1497,944.315" style="stroke: #A80036; stroke-width: 1.0;"/><path d="M1395.06,108.842 C1416.2,112.416 1430,118.969 1430,128.5 C1430,137.212 1418.47,143.436 1400.35,147.171 " fill="none" style="stroke: #A80036; stroke-width: 1.0;"/><polygon fill="#A80036" points="1395.06,148.158,1404.6397,150.4448,1399.9757,147.2437,1403.1768,142.5797,1395.06,148.158" style="stroke: #A80036; stroke-width: 1.0;"/><text fill="#000000" font-family="sans-serif" font-size="13" lengthAdjust="spacingAndGlyphs" textLength="51" x="1436" y="133.5684">children</text><text fill="#000000" font-family="sans-serif" font-size="13" lengthAdjust="spacingAndGlyphs" textLength="6" x="1403.219" y="146.2914">*</text></g></svg>