<?xml version="1.0" encoding="UTF-8" standalone="no"?><svg xmlns="http://www.w3.org/2000/svg" xmlns:xlink="http://www.w3.org/1999/xlink" contentScriptType="application/ecmascript" contentStyleType="text/css" height="1260px" preserveAspectRatio="none" style="width:1675px;height:1260px;" version="1.1" viewBox="0 0 1675 1260" width="1675px" zoomAndPan="magnify"><defs><filter height="300%" id="fb1gvqp" width="300%" x="-1" y="-1"><feGaussianBlur result="blurOut" stdDeviation="2.0"/><feColorMatrix in="blurOut" result="blurOut2" type="matrix" values="0 0 0 0 0 0 0 0 0 0 0 0 0 0 0 0 0 0 .4 0"/><feOffset dx="4.0" dy="4.0" in="blurOut2" result="blurOut3"/><feBlend in="SourceGraphic" in2="blurOut3" mode="normal"/></filter></defs><g><!--cluster nl.talsmasoftware.umldoclet.rendering--><polygon fill="#FFFFFF" filter="url(#fb1gvqp)" points="22,24,304,24,311,46.4883,1668,46.4883,1668,1253,22,1253,22,24" style="stroke: #000000; stroke-width: 2.0;"/><line style="stroke: #000000; stroke-width: 2.0;" x1="22" x2="311" y1="46.4883" y2="46.4883"/><text fill="#000000" font-family="sans-serif" font-size="14" font-weight="bold" lengthAdjust="spacingAndGlyphs" textLength="276" x="26" y="39.5352">nl.talsmasoftware.umldoclet.rendering</text><!--class nl.talsmasoftware.umldoclet.rendering.UMLDiagram--><rect fill="#FEFECE" filter="url(#fb1gvqp)" height="125.7305" style="stroke: #A80036; stroke-width: 1.5;" width="296" x="460" y="65.5"/><ellipse cx="567.25" cy="81.5" fill="#ADD1B2" rx="11" ry="11" style="stroke: #A80036; stroke-width: 1.0;"/><path d="M570.2231,87.1431 Q569.6421,87.4419 569.0029,87.5913 Q568.3638,87.7407 567.6582,87.7407 Q565.1514,87.7407 563.8315,86.0889 Q562.5117,84.437 562.5117,81.3159 Q562.5117,78.1865 563.8315,76.5347 Q565.1514,74.8828 567.6582,74.8828 Q568.3638,74.8828 569.0112,75.0322 Q569.6587,75.1816 570.2231,75.4805 L570.2231,78.2031 Q569.5923,77.6221 568.9988,77.3523 Q568.4053,77.0825 567.7744,77.0825 Q566.4297,77.0825 565.7449,78.1492 Q565.0601,79.2158 565.0601,81.3159 Q565.0601,83.4077 565.7449,84.4744 Q566.4297,85.541 567.7744,85.541 Q568.4053,85.541 568.9988,85.2712 Q569.5923,85.0015 570.2231,84.4204 Z "/><text fill="#000000" font-family="sans-serif" font-size="12" lengthAdjust="spacingAndGlyphs" textLength="73" x="587.75" y="86.0352">UMLDiagram</text><line style="stroke: #A80036; stroke-width: 1.5;" x1="461" x2="755" y1="97.5" y2="97.5"/><polygon fill="none" points="471,104.4775,475,108.4775,471,112.4775,467,108.4775" style="stroke: #B38D22; stroke-width: 1.0;"/><text fill="#000000" font-family="sans-serif" font-size="11" lengthAdjust="spacingAndGlyphs" textLength="133" x="480" y="112.1348">config: UMLDocletConfig</text><line style="stroke: #A80036; stroke-width: 1.5;" x1="461" x2="755" y1="118.4551" y2="118.4551"/><ellipse cx="471" cy="130.4326" fill="#84BE84" rx="3" ry="3" style="stroke: #038048; stroke-width: 1.0;"/><text fill="#000000" font-family="sans-serif" font-size="11" lengthAdjust="spacingAndGlyphs" textLength="169" x="480" y="133.0898">UMLDiagram(UMLDocletConfig)</text><ellipse cx="471" cy="143.3877" fill="#84BE84" rx="3" ry="3" style="stroke: #038048; stroke-width: 1.0;"/><text fill="#000000" font-family="sans-serif" font-size="11" lengthAdjust="spacingAndGlyphs" textLength="181" x="480" y="146.0449">addClass(ClassDoc): UMLDiagram</text><ellipse cx="471" cy="156.3428" fill="#84BE84" rx="3" ry="3" style="stroke: #038048; stroke-width: 1.0;"/><text fill="#000000" font-family="sans-serif" font-size="11" lengthAdjust="spacingAndGlyphs" textLength="209" x="480" y="159">addPackage(PackageDoc): UMLDiagram</text><ellipse cx="471" cy="169.2979" fill="#84BE84" rx="3" ry="3" style="stroke: #038048; stroke-width: 1.0;"/><text fill="#000000" font-family="sans-serif" font-size="11" lengthAdjust="spacingAndGlyphs" textLength="248" x="480" y="171.9551">addDependencyDiagram(Object): UMLDiagram</text><polygon fill="#FFFF44" points="471,177.2529,475,181.2529,471,185.2529,467,181.2529" style="stroke: #B38D22; stroke-width: 1.0;"/><text fill="#000000" font-family="sans-serif" font-size="11" lengthAdjust="spacingAndGlyphs" textLength="270" x="480" y="184.9102">writeTo(IndentingPrintWriter): IndentingPrintWriter</text><!--class nl.talsmasoftware.umldoclet.rendering.Renderer--><rect fill="#FEFECE" filter="url(#fb1gvqp)" height="138.6855" style="stroke: #A80036; stroke-width: 1.5;" width="354" x="424" y="275"/><ellipse cx="569.75" cy="291" fill="#A9DCDF" rx="11" ry="11" style="stroke: #A80036; stroke-width: 1.0;"/><path d="M569.8633,286.3481 L568.7095,291.4199 L571.0254,291.4199 Z M568.3691,284.1069 L571.3657,284.1069 L574.7109,296.5 L572.2622,296.5 L571.4985,293.437 L568.2197,293.437 L567.4727,296.5 L565.0239,296.5 Z "/><text fill="#000000" font-family="sans-serif" font-size="12" font-style="italic" lengthAdjust="spacingAndGlyphs" textLength="54" x="590.25" y="295.5352">Renderer</text><line style="stroke: #A80036; stroke-width: 1.5;" x1="425" x2="777" y1="307" y2="307"/><line style="stroke: #A80036; stroke-width: 1.5;" x1="425" x2="777" y1="315" y2="315"/><polygon fill="#FFFF44" points="435,321.9775,439,325.9775,435,329.9775,431,325.9775" style="stroke: #B38D22; stroke-width: 1.0;"/><text fill="#000000" font-family="sans-serif" font-size="11" lengthAdjust="spacingAndGlyphs" textLength="125" x="444" y="329.6348">Renderer(UMLDiagram)</text><ellipse cx="435" cy="339.9326" fill="#84BE84" rx="3" ry="3" style="stroke: #038048; stroke-width: 1.0;"/><text fill="#000000" font-family="sans-serif" font-size="11" lengthAdjust="spacingAndGlyphs" textLength="118" x="444" y="342.5898">writeTo(Writer): Writer</text><polygon fill="#FFFF44" points="435,347.8877,439,351.8877,435,355.8877,431,351.8877" style="stroke: #B38D22; stroke-width: 1.0;"/><text fill="#000000" font-family="sans-serif" font-size="11" lengthAdjust="spacingAndGlyphs" textLength="316" x="444" y="355.5449">writeChildrenTo(IndentingPrintWriter): IndentingPrintWriter</text><polygon fill="#FFFF44" points="435,360.8428,439,364.8428,435,368.8428,431,364.8428" style="stroke: #B38D22; stroke-width: 1.0;"/><text fill="#000000" font-family="sans-serif" font-size="11" lengthAdjust="spacingAndGlyphs" textLength="110" x="444" y="368.5">lastChild(): Renderer</text><polygon fill="#FFFF44" points="435,373.7979,439,377.7979,435,381.7979,431,377.7979" style="stroke: #B38D22; stroke-width: 1.0;"/><text fill="#000000" font-family="sans-serif" font-size="11" lengthAdjust="spacingAndGlyphs" text-decoration="underline" textLength="328" x="444" y="381.4551">writeTypeTo(IndentingPrintWriter, Type): IndentingPrintWriter</text><line style="stroke: #000000; stroke-width: 1.0;" x1="444" x2="772" y1="383.4551" y2="383.4551"/><polygon fill="#FFFF44" points="435,386.7529,439,390.7529,435,394.7529,431,390.7529" style="stroke: #B38D22; stroke-width: 1.0;"/><text fill="#000000" font-family="sans-serif" font-size="11" lengthAdjust="spacingAndGlyphs" text-decoration="underline" textLength="116" x="444" y="394.4102">quoted(String): String</text><line style="stroke: #000000; stroke-width: 1.0;" x1="444" x2="560" y1="396.4102" y2="396.4102"/><polygon fill="#FFFF44" points="435,399.708,439,403.708,435,407.708,431,403.708" style="stroke: #B38D22; stroke-width: 1.0;"/><text fill="#000000" font-family="sans-serif" font-size="11" font-style="italic" lengthAdjust="spacingAndGlyphs" textLength="270" x="444" y="407.3652">writeTo(IndentingPrintWriter): IndentingPrintWriter</text><!--class nl.talsmasoftware.umldoclet.rendering.ParentAwareRenderer--><rect fill="#FEFECE" filter="url(#fb1gvqp)" height="60.9551" style="stroke: #A80036; stroke-width: 1.5;" width="199" x="38.5" y="560"/><ellipse cx="71.5" cy="576" fill="#A9DCDF" rx="11" ry="11" style="stroke: #A80036; stroke-width: 1.0;"/><path d="M71.6133,571.3481 L70.4595,576.4199 L72.7754,576.4199 Z M70.1191,569.1069 L73.1157,569.1069 L76.4609,581.5 L74.0122,581.5 L73.2485,578.437 L69.9697,578.437 L69.2227,581.5 L66.7739,581.5 Z "/><text fill="#000000" font-family="sans-serif" font-size="12" font-style="italic" lengthAdjust="spacingAndGlyphs" textLength="127" x="89.5" y="580.5352">ParentAwareRenderer</text><line style="stroke: #A80036; stroke-width: 1.5;" x1="39.5" x2="236.5" y1="592" y2="592"/><line style="stroke: #A80036; stroke-width: 1.5;" x1="39.5" x2="236.5" y1="600" y2="600"/><polygon fill="#FFFF44" points="49.5,606.9775,53.5,610.9775,49.5,614.9775,45.5,610.9775" style="stroke: #B38D22; stroke-width: 1.0;"/><text fill="#000000" font-family="sans-serif" font-size="11" lengthAdjust="spacingAndGlyphs" textLength="173" x="58.5" y="614.6348">ParentAwareRenderer(Renderer)</text><!--class nl.talsmasoftware.umldoclet.rendering.PackageRenderer--><rect fill="#FEFECE" filter="url(#fb1gvqp)" height="86.8652" style="stroke: #A80036; stroke-width: 1.5;" width="296" x="273" y="547"/><ellipse cx="365.75" cy="563" fill="#ADD1B2" rx="11" ry="11" style="stroke: #A80036; stroke-width: 1.0;"/><path d="M368.7231,568.6431 Q368.1421,568.9419 367.5029,569.0913 Q366.8638,569.2407 366.1582,569.2407 Q363.6514,569.2407 362.3315,567.5889 Q361.0117,565.937 361.0117,562.8159 Q361.0117,559.6865 362.3315,558.0347 Q363.6514,556.3828 366.1582,556.3828 Q366.8638,556.3828 367.5112,556.5322 Q368.1587,556.6816 368.7231,556.9805 L368.7231,559.7031 Q368.0923,559.1221 367.4988,558.8523 Q366.9053,558.5825 366.2744,558.5825 Q364.9297,558.5825 364.2449,559.6492 Q363.5601,560.7158 363.5601,562.8159 Q363.5601,564.9077 364.2449,565.9744 Q364.9297,567.041 366.2744,567.041 Q366.9053,567.041 367.4988,566.7712 Q368.0923,566.5015 368.7231,565.9204 Z "/><text fill="#000000" font-family="sans-serif" font-size="12" lengthAdjust="spacingAndGlyphs" textLength="102" x="386.25" y="567.5352">PackageRenderer</text><line style="stroke: #A80036; stroke-width: 1.5;" x1="274" x2="568" y1="579" y2="579"/><polygon fill="none" points="284,585.9775,288,589.9775,284,593.9775,280,589.9775" style="stroke: #B38D22; stroke-width: 1.0;"/><text fill="#000000" font-family="sans-serif" font-size="11" lengthAdjust="spacingAndGlyphs" textLength="135" x="293" y="593.6348">packageDoc: PackageDoc</text><line style="stroke: #A80036; stroke-width: 1.5;" x1="274" x2="568" y1="599.9551" y2="599.9551"/><polygon fill="#FFFF44" points="284,606.9326,288,610.9326,284,614.9326,280,610.9326" style="stroke: #B38D22; stroke-width: 1.0;"/><text fill="#000000" font-family="sans-serif" font-size="11" lengthAdjust="spacingAndGlyphs" textLength="238" x="293" y="614.5898">PackageRenderer(UMLDiagram, PackageDoc)</text><polygon fill="#FFFF44" points="284,619.8877,288,623.8877,284,627.8877,280,623.8877" style="stroke: #B38D22; stroke-width: 1.0;"/><text fill="#000000" font-family="sans-serif" font-size="11" lengthAdjust="spacingAndGlyphs" textLength="270" x="293" y="627.5449">writeTo(IndentingPrintWriter): IndentingPrintWriter</text><!--class nl.talsmasoftware.umldoclet.rendering.NoteRenderer--><rect fill="#FEFECE" filter="url(#fb1gvqp)" height="86.8652" style="stroke: #A80036; stroke-width: 1.5;" width="296" x="38" y="760"/><ellipse cx="141.25" cy="776" fill="#ADD1B2" rx="11" ry="11" style="stroke: #A80036; stroke-width: 1.0;"/><path d="M144.2231,781.6431 Q143.6421,781.9419 143.0029,782.0913 Q142.3638,782.2407 141.6582,782.2407 Q139.1514,782.2407 137.8315,780.5889 Q136.5117,778.937 136.5117,775.8159 Q136.5117,772.6865 137.8315,771.0347 Q139.1514,769.3828 141.6582,769.3828 Q142.3638,769.3828 143.0112,769.5322 Q143.6587,769.6816 144.2231,769.9805 L144.2231,772.7031 Q143.5923,772.1221 142.9988,771.8523 Q142.4053,771.5825 141.7744,771.5825 Q140.4297,771.5825 139.7449,772.6492 Q139.0601,773.7158 139.0601,775.8159 Q139.0601,777.9077 139.7449,778.9744 Q140.4297,780.041 141.7744,780.041 Q142.4053,780.041 142.9988,779.7712 Q143.5923,779.5015 144.2231,778.9204 Z "/><text fill="#000000" font-family="sans-serif" font-size="12" lengthAdjust="spacingAndGlyphs" textLength="81" x="161.75" y="780.5352">NoteRenderer</text><line style="stroke: #A80036; stroke-width: 1.5;" x1="39" x2="333" y1="792" y2="792"/><polygon fill="none" points="49,798.9775,53,802.9775,49,806.9775,45,802.9775" style="stroke: #B38D22; stroke-width: 1.0;"/><text fill="#000000" font-family="sans-serif" font-size="11" lengthAdjust="spacingAndGlyphs" textLength="62" x="58" y="806.6348">note: String</text><line style="stroke: #A80036; stroke-width: 1.5;" x1="39" x2="333" y1="812.9551" y2="812.9551"/><polygon fill="#FFFF44" points="49,819.9326,53,823.9326,49,827.9326,45,823.9326" style="stroke: #B38D22; stroke-width: 1.0;"/><text fill="#000000" font-family="sans-serif" font-size="11" lengthAdjust="spacingAndGlyphs" textLength="169" x="58" y="827.5898">NoteRenderer(Renderer, String)</text><polygon fill="#FFFF44" points="49,832.8877,53,836.8877,49,840.8877,45,836.8877" style="stroke: #B38D22; stroke-width: 1.0;"/><text fill="#000000" font-family="sans-serif" font-size="11" lengthAdjust="spacingAndGlyphs" textLength="270" x="58" y="840.5449">writeTo(IndentingPrintWriter): IndentingPrintWriter</text><!--class nl.talsmasoftware.umldoclet.rendering.MethodRenderer--><rect fill="#FEFECE" filter="url(#fb1gvqp)" height="138.6855" style="stroke: #A80036; stroke-width: 1.5;" width="356" x="604" y="521"/><ellipse cx="729.25" cy="537" fill="#ADD1B2" rx="11" ry="11" style="stroke: #A80036; stroke-width: 1.0;"/><path d="M732.2231,542.6431 Q731.6421,542.9419 731.0029,543.0913 Q730.3638,543.2407 729.6582,543.2407 Q727.1514,543.2407 725.8315,541.5889 Q724.5117,539.937 724.5117,536.8159 Q724.5117,533.6865 725.8315,532.0347 Q727.1514,530.3828 729.6582,530.3828 Q730.3638,530.3828 731.0112,530.5322 Q731.6587,530.6816 732.2231,530.9805 L732.2231,533.7031 Q731.5923,533.1221 730.9988,532.8523 Q730.4053,532.5825 729.7744,532.5825 Q728.4297,532.5825 727.7449,533.6492 Q727.0601,534.7158 727.0601,536.8159 Q727.0601,538.9077 727.7449,539.9744 Q728.4297,541.041 729.7744,541.041 Q730.4053,541.041 730.9988,540.7712 Q731.5923,540.5015 732.2231,539.9204 Z "/><text fill="#000000" font-family="sans-serif" font-size="12" lengthAdjust="spacingAndGlyphs" textLength="97" x="749.75" y="541.5352">MethodRenderer</text><line style="stroke: #A80036; stroke-width: 1.5;" x1="605" x2="959" y1="553" y2="553"/><polygon fill="none" points="615,559.9775,619,563.9775,615,567.9775,611,563.9775" style="stroke: #B38D22; stroke-width: 1.0;"/><text fill="#000000" font-family="sans-serif" font-size="11" lengthAdjust="spacingAndGlyphs" textLength="190" x="624" y="567.6348">methodDoc: ExecutableMemberDoc</text><line style="stroke: #A80036; stroke-width: 1.5;" x1="605" x2="959" y1="573.9551" y2="573.9551"/><polygon fill="#FFFF44" points="615,580.9326,619,584.9326,615,588.9326,611,584.9326" style="stroke: #B38D22; stroke-width: 1.0;"/><text fill="#000000" font-family="sans-serif" font-size="11" lengthAdjust="spacingAndGlyphs" textLength="293" x="624" y="588.5898">MethodRenderer(UMLDiagram, ExecutableMemberDoc)</text><polygon fill="#FFFF44" points="615,593.8877,619,597.8877,615,601.8877,611,597.8877" style="stroke: #B38D22; stroke-width: 1.0;"/><text fill="#000000" font-family="sans-serif" font-size="11" lengthAdjust="spacingAndGlyphs" textLength="136" x="624" y="601.5449">includeMethod(): boolean</text><polygon fill="#FFFF44" points="615,606.8428,619,610.8428,615,614.8428,611,610.8428" style="stroke: #B38D22; stroke-width: 1.0;"/><text fill="#000000" font-family="sans-serif" font-size="11" lengthAdjust="spacingAndGlyphs" textLength="300" x="624" y="614.5">writeNameTo(IndentingPrintWriter): IndentingPrintWriter</text><polygon fill="#FFFF44" points="615,619.7979,619,623.7979,615,627.7979,611,623.7979" style="stroke: #B38D22; stroke-width: 1.0;"/><text fill="#000000" font-family="sans-serif" font-size="11" lengthAdjust="spacingAndGlyphs" textLength="330" x="624" y="627.4551">writeParametersTo(IndentingPrintWriter): IndentingPrintWriter</text><polygon fill="#FFFF44" points="615,632.7529,619,636.7529,615,640.7529,611,636.7529" style="stroke: #B38D22; stroke-width: 1.0;"/><text fill="#000000" font-family="sans-serif" font-size="11" lengthAdjust="spacingAndGlyphs" textLength="270" x="624" y="640.4102">writeTo(IndentingPrintWriter): IndentingPrintWriter</text><polygon fill="#FFFF44" points="615,645.708,619,649.708,615,653.708,611,649.708" style="stroke: #B38D22; stroke-width: 1.0;"/><text fill="#000000" font-family="sans-serif" font-size="11" lengthAdjust="spacingAndGlyphs" textLength="123" x="624" y="653.3652">propertyName(): String</text><!--class nl.talsmasoftware.umldoclet.rendering.LegacyTag--><rect fill="#FEFECE" filter="url(#fb1gvqp)" height="138.6855" style="stroke: #A80036; stroke-width: 1.5;" width="170" x="240" y="59"/><ellipse cx="290.25" cy="75" fill="#EB937F" rx="11" ry="11" style="stroke: #A80036; stroke-width: 1.0;"/><path d="M294.3643,81 L286.6445,81 L286.6445,68.6069 L294.3643,68.6069 L294.3643,70.7651 L289.0933,70.7651 L289.0933,73.438 L293.8662,73.438 L293.8662,75.5962 L289.0933,75.5962 L289.0933,78.8418 L294.3643,78.8418 Z "/><text fill="#000000" font-family="sans-serif" font-size="12" lengthAdjust="spacingAndGlyphs" textLength="61" x="310.75" y="79.5352">LegacyTag</text><line style="stroke: #A80036; stroke-width: 1.5;" x1="241" x2="409" y1="91" y2="91"/><ellipse cx="251" cy="102.9775" fill="none" rx="3" ry="3" style="stroke: #038048; stroke-width: 1.0;"/><text fill="#000000" font-family="sans-serif" font-size="11" lengthAdjust="spacingAndGlyphs" text-decoration="underline" textLength="48" x="260" y="105.6348">EXTENDS</text><line style="stroke: #000000; stroke-width: 1.0;" x1="260" x2="308" y1="107.6348" y2="107.6348"/><ellipse cx="251" cy="115.9326" fill="none" rx="3" ry="3" style="stroke: #038048; stroke-width: 1.0;"/><text fill="#000000" font-family="sans-serif" font-size="11" lengthAdjust="spacingAndGlyphs" text-decoration="underline" textLength="66" x="260" y="118.5898">IMPLEMENTS</text><line style="stroke: #000000; stroke-width: 1.0;" x1="260" x2="326" y1="120.5898" y2="120.5898"/><ellipse cx="251" cy="128.8877" fill="none" rx="3" ry="3" style="stroke: #038048; stroke-width: 1.0;"/><text fill="#000000" font-family="sans-serif" font-size="11" lengthAdjust="spacingAndGlyphs" text-decoration="underline" textLength="37" x="260" y="131.5449">ASSOC</text><line style="stroke: #000000; stroke-width: 1.0;" x1="260" x2="297" y1="133.5449" y2="133.5449"/><ellipse cx="251" cy="141.8428" fill="none" rx="3" ry="3" style="stroke: #038048; stroke-width: 1.0;"/><text fill="#000000" font-family="sans-serif" font-size="11" lengthAdjust="spacingAndGlyphs" text-decoration="underline" textLength="60" x="260" y="144.5">NAVASSOC</text><line style="stroke: #000000; stroke-width: 1.0;" x1="260" x2="320" y1="146.5" y2="146.5"/><ellipse cx="251" cy="154.7979" fill="none" rx="3" ry="3" style="stroke: #038048; stroke-width: 1.0;"/><text fill="#000000" font-family="sans-serif" font-size="11" lengthAdjust="spacingAndGlyphs" text-decoration="underline" textLength="42" x="260" y="157.4551">DEPEND</text><line style="stroke: #000000; stroke-width: 1.0;" x1="260" x2="302" y1="159.4551" y2="159.4551"/><line style="stroke: #A80036; stroke-width: 1.5;" x1="241" x2="409" y1="163.7754" y2="163.7754"/><ellipse cx="251" cy="175.7529" fill="#84BE84" rx="3" ry="3" style="stroke: #038048; stroke-width: 1.0;"/><text fill="#000000" font-family="sans-serif" font-size="11" lengthAdjust="spacingAndGlyphs" text-decoration="underline" textLength="113" x="260" y="178.4102">values(): LegacyTag[]</text><line style="stroke: #000000; stroke-width: 1.0;" x1="260" x2="373" y1="180.4102" y2="180.4102"/><ellipse cx="251" cy="188.708" fill="#84BE84" rx="3" ry="3" style="stroke: #038048; stroke-width: 1.0;"/><text fill="#000000" font-family="sans-serif" font-size="11" lengthAdjust="spacingAndGlyphs" text-decoration="underline" textLength="144" x="260" y="191.3652">valueOf(String): LegacyTag</text><line style="stroke: #000000; stroke-width: 1.0;" x1="260" x2="404" y1="193.3652" y2="193.3652"/><!--class nl.talsmasoftware.umldoclet.rendering.FieldRenderer--><rect fill="#FEFECE" filter="url(#fb1gvqp)" height="125.7305" style="stroke: #A80036; stroke-width: 1.5;" width="326" x="995" y="527.5"/><ellipse cx="1113.25" cy="543.5" fill="#ADD1B2" rx="11" ry="11" style="stroke: #A80036; stroke-width: 1.0;"/><path d="M1116.2231,549.1431 Q1115.6421,549.4419 1115.0029,549.5913 Q1114.3638,549.7407 1113.6582,549.7407 Q1111.1514,549.7407 1109.8315,548.0889 Q1108.5117,546.437 1108.5117,543.3159 Q1108.5117,540.1865 1109.8315,538.5347 Q1111.1514,536.8828 1113.6582,536.8828 Q1114.3638,536.8828 1115.0112,537.0322 Q1115.6587,537.1816 1116.2231,537.4805 L1116.2231,540.2031 Q1115.5923,539.6221 1114.9988,539.3523 Q1114.4053,539.0825 1113.7744,539.0825 Q1112.4297,539.0825 1111.7449,540.1492 Q1111.0601,541.2158 1111.0601,543.3159 Q1111.0601,545.4077 1111.7449,546.4744 Q1112.4297,547.541 1113.7744,547.541 Q1114.4053,547.541 1114.9988,547.2712 Q1115.5923,547.0015 1116.2231,546.4204 Z "/><text fill="#000000" font-family="sans-serif" font-size="12" lengthAdjust="spacingAndGlyphs" textLength="81" x="1133.75" y="548.0352">FieldRenderer</text><line style="stroke: #A80036; stroke-width: 1.5;" x1="996" x2="1320" y1="559.5" y2="559.5"/><polygon fill="none" points="1006,566.4775,1010,570.4775,1006,574.4775,1002,570.4775" style="stroke: #B38D22; stroke-width: 1.0;"/><text fill="#000000" font-family="sans-serif" font-size="11" lengthAdjust="spacingAndGlyphs" textLength="96" x="1015" y="574.1348">fieldDoc: FieldDoc</text><line style="stroke: #A80036; stroke-width: 1.5;" x1="996" x2="1320" y1="580.4551" y2="580.4551"/><polygon fill="#FFFF44" points="1006,587.4326,1010,591.4326,1006,595.4326,1002,591.4326" style="stroke: #B38D22; stroke-width: 1.0;"/><text fill="#000000" font-family="sans-serif" font-size="11" lengthAdjust="spacingAndGlyphs" textLength="202" x="1015" y="595.0898">FieldRenderer(UMLDiagram, FieldDoc)</text><polygon fill="#FFFF44" points="1006,600.3877,1010,604.3877,1006,608.3877,1002,604.3877" style="stroke: #B38D22; stroke-width: 1.0;"/><text fill="#000000" font-family="sans-serif" font-size="11" lengthAdjust="spacingAndGlyphs" textLength="147" x="1015" y="608.0449">includeFieldType(): boolean</text><polygon fill="#FFFF44" points="1006,613.3428,1010,617.3428,1006,621.3428,1002,617.3428" style="stroke: #B38D22; stroke-width: 1.0;"/><text fill="#000000" font-family="sans-serif" font-size="11" lengthAdjust="spacingAndGlyphs" textLength="121" x="1015" y="621">includeField(): boolean</text><polygon fill="#FFFF44" points="1006,626.2979,1010,630.2979,1006,634.2979,1002,630.2979" style="stroke: #B38D22; stroke-width: 1.0;"/><text fill="#000000" font-family="sans-serif" font-size="11" lengthAdjust="spacingAndGlyphs" textLength="300" x="1015" y="633.9551">writeNameTo(IndentingPrintWriter): IndentingPrintWriter</text><polygon fill="#FFFF44" points="1006,639.2529,1010,643.2529,1006,647.2529,1002,643.2529" style="stroke: #B38D22; stroke-width: 1.0;"/><text fill="#000000" font-family="sans-serif" font-size="11" lengthAdjust="spacingAndGlyphs" textLength="270" x="1015" y="646.9102">writeTo(IndentingPrintWriter): IndentingPrintWriter</text><!--class nl.talsmasoftware.umldoclet.rendering.CommandRenderer--><rect fill="#FEFECE" filter="url(#fb1gvqp)" height="86.8652" style="stroke: #A80036; stroke-width: 1.5;" width="296" x="1356" y="547"/><ellipse cx="1443.25" cy="563" fill="#ADD1B2" rx="11" ry="11" style="stroke: #A80036; stroke-width: 1.0;"/><path d="M1446.2231,568.6431 Q1445.6421,568.9419 1445.0029,569.0913 Q1444.3638,569.2407 1443.6582,569.2407 Q1441.1514,569.2407 1439.8315,567.5889 Q1438.5117,565.937 1438.5117,562.8159 Q1438.5117,559.6865 1439.8315,558.0347 Q1441.1514,556.3828 1443.6582,556.3828 Q1444.3638,556.3828 1445.0112,556.5322 Q1445.6587,556.6816 1446.2231,556.9805 L1446.2231,559.7031 Q1445.5923,559.1221 1444.9988,558.8523 Q1444.4053,558.5825 1443.7744,558.5825 Q1442.4297,558.5825 1441.7449,559.6492 Q1441.0601,560.7158 1441.0601,562.8159 Q1441.0601,564.9077 1441.7449,565.9744 Q1442.4297,567.041 1443.7744,567.041 Q1444.4053,567.041 1444.9988,566.7712 Q1445.5923,566.5015 1446.2231,565.9204 Z "/><text fill="#000000" font-family="sans-serif" font-size="12" lengthAdjust="spacingAndGlyphs" textLength="113" x="1463.75" y="567.5352">CommandRenderer</text><line style="stroke: #A80036; stroke-width: 1.5;" x1="1357" x2="1651" y1="579" y2="579"/><polygon fill="none" points="1367,585.9775,1371,589.9775,1367,593.9775,1363,589.9775" style="stroke: #B38D22; stroke-width: 1.0;"/><text fill="#000000" font-family="sans-serif" font-size="11" lengthAdjust="spacingAndGlyphs" textLength="91" x="1376" y="593.6348">command: String</text><line style="stroke: #A80036; stroke-width: 1.5;" x1="1357" x2="1651" y1="599.9551" y2="599.9551"/><polygon fill="#FFFF44" points="1367,606.9326,1371,610.9326,1367,614.9326,1363,610.9326" style="stroke: #B38D22; stroke-width: 1.0;"/><text fill="#000000" font-family="sans-serif" font-size="11" lengthAdjust="spacingAndGlyphs" textLength="218" x="1376" y="614.5898">CommandRenderer(UMLDiagram, String)</text><polygon fill="#FFFF44" points="1367,619.8877,1371,623.8877,1367,627.8877,1363,623.8877" style="stroke: #B38D22; stroke-width: 1.0;"/><text fill="#000000" font-family="sans-serif" font-size="11" lengthAdjust="spacingAndGlyphs" textLength="270" x="1376" y="627.5449">writeTo(IndentingPrintWriter): IndentingPrintWriter</text><!--class nl.talsmasoftware.umldoclet.rendering.ClassRenderer--><rect fill="#FEFECE" filter="url(#fb1gvqp)" height="164.5957" style="stroke: #A80036; stroke-width: 1.5;" width="343" x="369.5" y="721"/><ellipse cx="494.75" cy="737" fill="#ADD1B2" rx="11" ry="11" style="stroke: #A80036; stroke-width: 1.0;"/><path d="M497.7231,742.6431 Q497.1421,742.9419 496.5029,743.0913 Q495.8638,743.2407 495.1582,743.2407 Q492.6514,743.2407 491.3315,741.5889 Q490.0117,739.937 490.0117,736.8159 Q490.0117,733.6865 491.3315,732.0347 Q492.6514,730.3828 495.1582,730.3828 Q495.8638,730.3828 496.5112,730.5322 Q497.1587,730.6816 497.7231,730.9805 L497.7231,733.7031 Q497.0923,733.1221 496.4988,732.8523 Q495.9053,732.5825 495.2744,732.5825 Q493.9297,732.5825 493.2449,733.6492 Q492.5601,734.7158 492.5601,736.8159 Q492.5601,738.9077 493.2449,739.9744 Q493.9297,741.041 495.2744,741.041 Q495.9053,741.041 496.4988,740.7712 Q497.0923,740.5015 497.7231,739.9204 Z "/><text fill="#000000" font-family="sans-serif" font-size="12" lengthAdjust="spacingAndGlyphs" textLength="84" x="515.25" y="741.5352">ClassRenderer</text><line style="stroke: #A80036; stroke-width: 1.5;" x1="370.5" x2="711.5" y1="753" y2="753"/><polygon fill="none" points="380.5,759.9775,384.5,763.9775,380.5,767.9775,376.5,763.9775" style="stroke: #B38D22; stroke-width: 1.0;"/><text fill="#000000" font-family="sans-serif" font-size="11" lengthAdjust="spacingAndGlyphs" textLength="104" x="389.5" y="767.6348">classDoc: ClassDoc</text><line style="stroke: #A80036; stroke-width: 1.5;" x1="370.5" x2="711.5" y1="773.9551" y2="773.9551"/><polygon fill="#FFFF44" points="380.5,780.9326,384.5,784.9326,380.5,788.9326,376.5,784.9326" style="stroke: #B38D22; stroke-width: 1.0;"/><text fill="#000000" font-family="sans-serif" font-size="11" lengthAdjust="spacingAndGlyphs" textLength="191" x="389.5" y="788.5898">ClassRenderer(Renderer, ClassDoc)</text><polygon fill="#FFFF44" points="380.5,793.8877,384.5,797.8877,380.5,801.8877,376.5,797.8877" style="stroke: #B38D22; stroke-width: 1.0;"/><text fill="#000000" font-family="sans-serif" font-size="11" lengthAdjust="spacingAndGlyphs" textLength="92" x="389.5" y="801.5449">umlType(): String</text><polygon fill="#FFFF44" points="380.5,806.8428,384.5,810.8428,380.5,814.8428,376.5,810.8428" style="stroke: #B38D22; stroke-width: 1.0;"/><text fill="#000000" font-family="sans-serif" font-size="11" lengthAdjust="spacingAndGlyphs" textLength="317" x="389.5" y="814.5">writeGenericsTo(IndentingPrintWriter): IndentingPrintWriter</text><polygon fill="#FFFF44" points="380.5,819.7979,384.5,823.7979,380.5,827.7979,376.5,823.7979" style="stroke: #B38D22; stroke-width: 1.0;"/><text fill="#000000" font-family="sans-serif" font-size="11" lengthAdjust="spacingAndGlyphs" textLength="301" x="389.5" y="827.4551">writeNotesTo(IndentingPrintWriter): IndentingPrintWriter</text><polygon fill="#FFFF44" points="380.5,832.7529,384.5,836.7529,380.5,840.7529,376.5,836.7529" style="stroke: #B38D22; stroke-width: 1.0;"/><text fill="#000000" font-family="sans-serif" font-size="11" lengthAdjust="spacingAndGlyphs" textLength="75" x="389.5" y="840.4102">name(): String</text><polygon fill="#FFFF44" points="380.5,845.708,384.5,849.708,380.5,853.708,376.5,849.708" style="stroke: #B38D22; stroke-width: 1.0;"/><text fill="#000000" font-family="sans-serif" font-size="11" lengthAdjust="spacingAndGlyphs" textLength="254" x="389.5" y="853.3652">simplifyClassnameWithinPackage(String): String</text><polygon fill="#FFFF44" points="380.5,858.6631,384.5,862.6631,380.5,866.6631,376.5,862.6631" style="stroke: #B38D22; stroke-width: 1.0;"/><text fill="#000000" font-family="sans-serif" font-size="11" lengthAdjust="spacingAndGlyphs" textLength="300" x="389.5" y="866.3203">writeNameTo(IndentingPrintWriter): IndentingPrintWriter</text><polygon fill="#FFFF44" points="380.5,871.6182,384.5,875.6182,380.5,879.6182,376.5,875.6182" style="stroke: #B38D22; stroke-width: 1.0;"/><text fill="#000000" font-family="sans-serif" font-size="11" lengthAdjust="spacingAndGlyphs" textLength="270" x="389.5" y="879.2754">writeTo(IndentingPrintWriter): IndentingPrintWriter</text><!--class nl.talsmasoftware.umldoclet.rendering.ClassReferenceRenderer--><rect fill="#FEFECE" filter="url(#fb1gvqp)" height="151.6406" style="stroke: #A80036; stroke-width: 1.5;" width="383" x="348.5" y="963"/><ellipse cx="464.75" cy="979" fill="#ADD1B2" rx="11" ry="11" style="stroke: #A80036; stroke-width: 1.0;"/><path d="M467.7231,984.6431 Q467.1421,984.9419 466.5029,985.0913 Q465.8638,985.2407 465.1582,985.2407 Q462.6514,985.2407 461.3315,983.5889 Q460.0117,981.937 460.0117,978.8159 Q460.0117,975.6865 461.3315,974.0347 Q462.6514,972.3828 465.1582,972.3828 Q465.8638,972.3828 466.5112,972.5322 Q467.1587,972.6816 467.7231,972.9805 L467.7231,975.7031 Q467.0923,975.1221 466.4988,974.8523 Q465.9053,974.5825 465.2744,974.5825 Q463.9297,974.5825 463.2449,975.6492 Q462.5601,976.7158 462.5601,978.8159 Q462.5601,980.9077 463.2449,981.9744 Q463.9297,983.041 465.2744,983.041 Q465.9053,983.041 466.4988,982.7712 Q467.0923,982.5015 467.7231,981.9204 Z "/><text fill="#000000" font-family="sans-serif" font-size="12" lengthAdjust="spacingAndGlyphs" textLength="142" x="485.25" y="983.5352">ClassReferenceRenderer</text><line style="stroke: #A80036; stroke-width: 1.5;" x1="349.5" x2="730.5" y1="995" y2="995"/><polygon fill="none" points="359.5,1001.9775,363.5,1005.9775,359.5,1009.9775,355.5,1005.9775" style="stroke: #B38D22; stroke-width: 1.0;"/><text fill="#000000" font-family="sans-serif" font-size="11" lengthAdjust="spacingAndGlyphs" textLength="114" x="368.5" y="1009.6348">qualifiedName: String</text><polygon fill="none" points="359.5,1014.9326,363.5,1018.9326,359.5,1022.9326,355.5,1018.9326" style="stroke: #B38D22; stroke-width: 1.0;"/><text fill="#000000" font-family="sans-serif" font-size="11" lengthAdjust="spacingAndGlyphs" textLength="109" x="368.5" y="1022.5898">umlreference: String</text><line style="stroke: #A80036; stroke-width: 1.5;" x1="349.5" x2="730.5" y1="1028.9102" y2="1028.9102"/><polygon fill="#FFFF44" points="359.5,1035.8877,363.5,1039.8877,359.5,1043.8877,355.5,1039.8877" style="stroke: #B38D22; stroke-width: 1.0;"/><text fill="#000000" font-family="sans-serif" font-size="11" lengthAdjust="spacingAndGlyphs" textLength="311" x="368.5" y="1043.5449">ClassReferenceRenderer(ClassRenderer, ClassDoc, String)</text><polygon fill="#FFFF44" points="359.5,1048.8428,363.5,1052.8428,359.5,1056.8428,355.5,1052.8428" style="stroke: #B38D22; stroke-width: 1.0;"/><text fill="#000000" font-family="sans-serif" font-size="11" lengthAdjust="spacingAndGlyphs" textLength="293" x="368.5" y="1056.5">ClassReferenceRenderer(ClassRenderer, String, String)</text><polygon fill="#FFFF44" points="359.5,1061.7979,363.5,1065.7979,359.5,1069.7979,355.5,1065.7979" style="stroke: #B38D22; stroke-width: 1.0;"/><text fill="#000000" font-family="sans-serif" font-size="11" lengthAdjust="spacingAndGlyphs" textLength="357" x="368.5" y="1069.4551">writeTypeDeclarationTo(IndentingPrintWriter): IndentingPrintWriter</text><polygon fill="#FFFF44" points="359.5,1074.7529,363.5,1078.7529,359.5,1082.7529,355.5,1078.7529" style="stroke: #B38D22; stroke-width: 1.0;"/><text fill="#000000" font-family="sans-serif" font-size="11" lengthAdjust="spacingAndGlyphs" textLength="75" x="368.5" y="1082.4102">name(): String</text><polygon fill="#FFFF44" points="359.5,1087.708,363.5,1091.708,359.5,1095.708,355.5,1091.708" style="stroke: #B38D22; stroke-width: 1.0;"/><text fill="#000000" font-family="sans-serif" font-size="11" lengthAdjust="spacingAndGlyphs" textLength="138" x="368.5" y="1095.3652">isSelfReference(): boolean</text><polygon fill="#FFFF44" points="359.5,1100.6631,363.5,1104.6631,359.5,1108.6631,355.5,1104.6631" style="stroke: #B38D22; stroke-width: 1.0;"/><text fill="#000000" font-family="sans-serif" font-size="11" lengthAdjust="spacingAndGlyphs" textLength="270" x="368.5" y="1108.3203">writeTo(IndentingPrintWriter): IndentingPrintWriter</text><!--class nl.talsmasoftware.umldoclet.rendering.ClassDependencyRenderer--><rect fill="#FEFECE" filter="url(#fb1gvqp)" height="60.9551" style="stroke: #A80036; stroke-width: 1.5;" width="312" x="384" y="1176"/><ellipse cx="457.75" cy="1192" fill="#ADD1B2" rx="11" ry="11" style="stroke: #A80036; stroke-width: 1.0;"/><path d="M460.7231,1197.6431 Q460.1421,1197.9419 459.5029,1198.0913 Q458.8638,1198.2407 458.1582,1198.2407 Q455.6514,1198.2407 454.3315,1196.5889 Q453.0117,1194.937 453.0117,1191.8159 Q453.0117,1188.6865 454.3315,1187.0347 Q455.6514,1185.3828 458.1582,1185.3828 Q458.8638,1185.3828 459.5112,1185.5322 Q460.1587,1185.6816 460.7231,1185.9805 L460.7231,1188.7031 Q460.0923,1188.1221 459.4988,1187.8523 Q458.9053,1187.5825 458.2744,1187.5825 Q456.9297,1187.5825 456.2449,1188.6492 Q455.5601,1189.7158 455.5601,1191.8159 Q455.5601,1193.9077 456.2449,1194.9744 Q456.9297,1196.041 458.2744,1196.041 Q458.9053,1196.041 459.4988,1195.7712 Q460.0923,1195.5015 460.7231,1194.9204 Z "/><text fill="#000000" font-family="sans-serif" font-size="12" lengthAdjust="spacingAndGlyphs" textLength="156" x="478.25" y="1196.5352">ClassDependencyRenderer</text><line style="stroke: #A80036; stroke-width: 1.5;" x1="385" x2="695" y1="1208" y2="1208"/><line style="stroke: #A80036; stroke-width: 1.5;" x1="385" x2="695" y1="1216" y2="1216"/><polygon fill="#FFFF44" points="395,1222.9775,399,1226.9775,395,1230.9775,391,1226.9775" style="stroke: #B38D22; stroke-width: 1.0;"/><text fill="#000000" font-family="sans-serif" font-size="11" lengthAdjust="spacingAndGlyphs" textLength="286" x="404" y="1230.6348">ClassDependencyRenderer(ClassRenderer, ClassDoc)</text><path d="M623.577,255.22 C624.117,251.78 624.596,248.36 625,245 C627.078,227.69 625.841,208.98 623.282,191.76 " fill="none" style="stroke: #A80036; stroke-width: 1.0;"/><polygon fill="none" points="630.438,256.61,619.906,274.997,616.673,254.06,630.438,256.61" style="stroke: #A80036; stroke-width: 1.0;"/><path d="M573.657,196.47 C569.67,206.8 566.235,217.52 564,228 C560.729,243.34 562.496,259.54 566.644,274.787 " fill="none" style="stroke: #A80036; stroke-width: 1.0; stroke-dasharray: 7.0,7.0;"/><polygon fill="#A80036" points="575.525,191.76,568.4898,198.6524,573.6823,196.4081,575.9267,201.6007,575.525,191.76" style="stroke: #A80036; stroke-width: 1.0;"/><text fill="#000000" font-family="sans-serif" font-size="13" lengthAdjust="spacingAndGlyphs" textLength="51" x="565" y="241.5684">diagram</text><path d="M404.682,393.841 C366.296,407.24 327.334,423.806 293,444 C240.189,475.061 190.694,527.018 162.421,559.712 " fill="none" style="stroke: #A80036; stroke-width: 1.0;"/><polygon fill="none" points="402.571,387.166,423.76,387.418,407.039,400.434,402.571,387.166" style="stroke: #A80036; stroke-width: 1.0;"/><path d="M442.488,416.35 C423.655,425.388 404.808,434.727 387,444 C315.281,481.347 234.953,529.479 185.422,559.925 " fill="none" style="stroke: #A80036; stroke-width: 1.0; stroke-dasharray: 7.0,7.0;"/><polygon fill="#A80036" points="447.275,414.059,437.4301,414.3364,442.765,416.2176,440.8838,421.5525,447.275,414.059" style="stroke: #A80036; stroke-width: 1.0;"/><text fill="#000000" font-family="sans-serif" font-size="13" lengthAdjust="spacingAndGlyphs" textLength="40" x="416.5" y="457.5684">parent</text><text fill="#000000" font-family="sans-serif" font-size="13" lengthAdjust="spacingAndGlyphs" textLength="97" x="388" y="472.8789">previousSibling</text><text fill="#000000" font-family="sans-serif" font-size="13" lengthAdjust="spacingAndGlyphs" textLength="71" x="401" y="488.1895">nextSibling</text><path d="M538.465,430.27 C509.476,469.566 476.283,514.561 452.593,546.673 " fill="none" style="stroke: #A80036; stroke-width: 1.0;"/><polygon fill="none" points="532.875,426.056,550.381,414.117,544.141,434.367,532.875,426.056" style="stroke: #A80036; stroke-width: 1.0;"/><path d="M149.235,640.886 C157.436,676.937 168.442,725.317 176.269,759.724 " fill="none" style="stroke: #A80036; stroke-width: 1.0;"/><polygon fill="none" points="142.386,642.338,144.775,621.284,156.038,639.233,142.386,642.338" style="stroke: #A80036; stroke-width: 1.0;"/><path d="M663.84,430.213 C685.847,459.879 710.267,492.799 731.168,520.976 " fill="none" style="stroke: #A80036; stroke-width: 1.0;"/><polygon fill="none" points="658.194,434.35,651.9,414.117,669.438,426.009,658.194,434.35" style="stroke: #A80036; stroke-width: 1.0;"/><path d="M775.998,422.16 C853.396,456.065 943.228,495.417 1016.33,527.439 " fill="none" style="stroke: #A80036; stroke-width: 1.0;"/><polygon fill="none" points="773.148,428.554,757.638,414.117,778.766,415.73,773.148,428.554" style="stroke: #A80036; stroke-width: 1.0;"/><path d="M797.852,383.357 C947.893,414.357 1158.71,462.553 1339,521 C1361.87,528.413 1386.01,537.615 1408.56,546.844 " fill="none" style="stroke: #A80036; stroke-width: 1.0;"/><polygon fill="none" points="796.203,390.165,778.019,379.286,799.018,376.45,796.203,390.165" style="stroke: #A80036; stroke-width: 1.0;"/><path d="M204.727,631.204 C221.361,640.833 239.236,650.955 256,660 C293.73,680.358 334.736,701.45 373.576,720.966 " fill="none" style="stroke: #A80036; stroke-width: 1.0;"/><polygon fill="none" points="201.023,637.147,187.275,621.023,208.078,625.055,201.023,637.147" style="stroke: #A80036; stroke-width: 1.0;"/><path d="M524.648,906.462 C524.319,915.425 524.386,924.367 525,933 C525.685,942.643 526.72,952.747 527.933,962.717 " fill="none" style="stroke: #A80036; stroke-width: 1.0;"/><polygon fill="none" points="517.678,905.776,526.001,886.29,531.647,906.713,517.678,905.776" style="stroke: #A80036; stroke-width: 1.0;"/><path d="M540.628,891.443 C540.527,914.833 540.42,939.935 540.323,962.638 " fill="none" style="stroke: #A80036; stroke-width: 1.0; stroke-dasharray: 7.0,7.0;"/><polygon fill="#A80036" points="540.65,886.167,536.6115,895.1498,540.6286,891.167,544.6114,895.1841,540.65,886.167" style="stroke: #A80036; stroke-width: 1.0;"/><text fill="#000000" font-family="sans-serif" font-size="13" lengthAdjust="spacingAndGlyphs" textLength="40" x="541" y="929.5684">parent</text><path d="M540,1135.234 C540,1149.958 540,1164.143 540,1175.8642 " fill="none" style="stroke: #A80036; stroke-width: 1.0;"/><polygon fill="none" points="533,1135.002,540,1115.002,547,1135.002,533,1135.002" style="stroke: #A80036; stroke-width: 1.0;"/><path d="M783.346,327.972 C801.468,331.278 813,336.788 813,344.5 C813,352.938 799.198,358.738 778.063,361.902 " fill="none" style="stroke: #A80036; stroke-width: 1.0; stroke-dasharray: 7.0,7.0;"/><polygon fill="#A80036" points="778.063,327.098,786.2898,332.5127,782.996,327.9137,787.595,324.6199,778.063,327.098" style="stroke: #A80036; stroke-width: 1.0;"/><text fill="#000000" font-family="sans-serif" font-size="13" lengthAdjust="spacingAndGlyphs" textLength="51" x="819" y="349.5684">children</text><text fill="#000000" font-family="sans-serif" font-size="13" lengthAdjust="spacingAndGlyphs" textLength="6" x="786.2221" y="323.5521">*</text></g></svg>