<?xml version="1.0" encoding="UTF-8" standalone="no"?><svg xmlns="http://www.w3.org/2000/svg" xmlns:xlink="http://www.w3.org/1999/xlink" contentScriptType="application/ecmascript" contentStyleType="text/css" height="1105px" preserveAspectRatio="none" style="width:1825px;height:1105px;" version="1.1" viewBox="0 0 1825 1105" width="1825px" zoomAndPan="magnify"><defs><filter height="300%" id="fmu7abj" width="300%" x="-1" y="-1"><feGaussianBlur result="blurOut" stdDeviation="2.0"/><feColorMatrix in="blurOut" result="blurOut2" type="matrix" values="0 0 0 0 0 0 0 0 0 0 0 0 0 0 0 0 0 0 .4 0"/><feOffset dx="4.0" dy="4.0" in="blurOut2" result="blurOut3"/><feBlend in="SourceGraphic" in2="blurOut3" mode="normal"/></filter></defs><g><!--cluster nl.talsmasoftware.umldoclet.rendering--><polygon fill="#FFFFFF" filter="url(#fmu7abj)" points="22,24,298,24,305,47.6094,1818,47.6094,1818,1098,22,1098,22,24" style="stroke: #000000; stroke-width: 2.0;"/><line style="stroke: #000000; stroke-width: 2.0;" x1="22" x2="305" y1="47.6094" y2="47.6094"/><text fill="#000000" font-family="sans-serif" font-size="14" font-weight="bold" lengthAdjust="spacingAndGlyphs" textLength="270" x="26" y="40.5332">nl.talsmasoftware.umldoclet.rendering</text><!--class nl.talsmasoftware.umldoclet.rendering.UMLDiagram--><rect fill="#FEFECE" filter="url(#fmu7abj)" height="131.0156" style="stroke: #A80036; stroke-width: 1.5;" width="263" x="38.5" y="323"/><ellipse cx="129.25" cy="339" fill="#ADD1B2" rx="11" ry="11" style="stroke: #A80036; stroke-width: 1.0;"/><path d="M132.0156,334.875 Q132.1719,334.6563 132.3594,334.5469 Q132.5469,334.4375 132.7656,334.4375 Q133.1406,334.4375 133.375,334.6953 Q133.6094,334.9531 133.6094,335.5625 L133.6094,337.0156 Q133.6094,337.625 133.375,337.8906 Q133.1406,338.1563 132.7656,338.1563 Q132.4219,338.1563 132.2188,337.9531 Q132.0156,337.7656 131.9063,337.25 Q131.8594,336.8906 131.6719,336.7031 Q131.3438,336.3281 130.7344,336.1094 Q130.125,335.8906 129.5,335.8906 Q128.7344,335.8906 128.1016,336.2188 Q127.4688,336.5469 126.9766,337.2969 Q126.4844,338.0469 126.4844,339.0781 L126.4844,340.1719 Q126.4844,341.4063 127.375,342.2266 Q128.2656,343.0469 129.8594,343.0469 Q130.7969,343.0469 131.4531,342.7969 Q131.8438,342.6406 132.2656,342.2031 Q132.5313,341.9375 132.6797,341.8594 Q132.8281,341.7813 133.0313,341.7813 Q133.3594,341.7813 133.6172,342.0391 Q133.875,342.2969 133.875,342.6406 Q133.875,342.9844 133.5313,343.3906 Q133.0313,343.9688 132.2344,344.2969 Q131.1563,344.75 129.8594,344.75 Q128.3438,344.75 127.1406,344.125 Q126.1563,343.625 125.4688,342.5547 Q124.7813,341.4844 124.7813,340.2031 L124.7813,339.0469 Q124.7813,337.7188 125.3984,336.5703 Q126.0156,335.4219 127.1094,334.8047 Q128.2031,334.1875 129.4375,334.1875 Q130.1719,334.1875 130.8203,334.3516 Q131.4688,334.5156 132.0156,334.875 Z "/><text fill="#000000" font-family="sans-serif" font-size="12" lengthAdjust="spacingAndGlyphs" textLength="73" x="149.75" y="343.9102">UMLDiagram</text><line style="stroke: #A80036; stroke-width: 1.5;" x1="39.5" x2="300.5" y1="355" y2="355"/><polygon fill="none" points="49.5,362.418,53.5,366.418,49.5,370.418,45.5,366.418" style="stroke: #B38D22; stroke-width: 1.0;"/><text fill="#000000" font-family="sans-serif" font-size="11" lengthAdjust="spacingAndGlyphs" textLength="118" x="58.5" y="370.4189">config: UMLDocletConfig</text><line style="stroke: #A80036; stroke-width: 1.5;" x1="39.5" x2="300.5" y1="376.8359" y2="376.8359"/><ellipse cx="49.5" cy="389.2539" fill="#84BE84" rx="3" ry="3" style="stroke: #038048; stroke-width: 1.0;"/><text fill="#000000" font-family="sans-serif" font-size="11" lengthAdjust="spacingAndGlyphs" textLength="150" x="58.5" y="392.2549">UMLDiagram(UMLDocletConfig)</text><ellipse cx="49.5" cy="403.0898" fill="#84BE84" rx="3" ry="3" style="stroke: #038048; stroke-width: 1.0;"/><text fill="#000000" font-family="sans-serif" font-size="11" lengthAdjust="spacingAndGlyphs" textLength="165" x="58.5" y="406.0908">addClass(ClassDoc): UMLDiagram</text><ellipse cx="49.5" cy="416.9258" fill="#84BE84" rx="3" ry="3" style="stroke: #038048; stroke-width: 1.0;"/><text fill="#000000" font-family="sans-serif" font-size="11" lengthAdjust="spacingAndGlyphs" textLength="193" x="58.5" y="419.9268">addPackage(PackageDoc): UMLDiagram</text><ellipse cx="49.5" cy="430.7617" fill="#84BE84" rx="3" ry="3" style="stroke: #038048; stroke-width: 1.0;"/><text fill="#000000" font-family="sans-serif" font-size="11" lengthAdjust="spacingAndGlyphs" textLength="223" x="58.5" y="433.7627">addDependencyDiagram(Object): UMLDiagram</text><polygon fill="#FFFF44" points="49.5,439.5977,53.5,443.5977,49.5,447.5977,45.5,443.5977" style="stroke: #B38D22; stroke-width: 1.0;"/><text fill="#000000" font-family="sans-serif" font-size="11" lengthAdjust="spacingAndGlyphs" textLength="237" x="58.5" y="447.5986">writeTo(IndentingPrintWriter): IndentingPrintWriter</text><!--class nl.talsmasoftware.umldoclet.rendering.Renderer--><rect fill="#FEFECE" filter="url(#fmu7abj)" height="144.8516" style="stroke: #A80036; stroke-width: 1.5;" width="317" x="729.5" y="60"/><ellipse cx="857.75" cy="76" fill="#A9DCDF" rx="11" ry="11" style="stroke: #A80036; stroke-width: 1.0;"/><path d="M859.9375,77.7656 L855.7969,77.7656 L855.375,78.7969 L855.7969,78.7969 Q856.4063,78.7969 856.6719,79.0313 Q856.9375,79.2656 856.9375,79.6563 Q856.9375,80.0313 856.6719,80.2656 Q856.4063,80.5 855.7969,80.5 L853.5,80.5 Q852.8906,80.5 852.6328,80.2656 Q852.375,80.0313 852.375,79.6406 Q852.375,79.2656 852.6484,79.0234 Q852.9219,78.7813 853.5469,78.7969 L856.2188,72.1406 L855.1094,72.1406 Q854.5,72.1406 854.2344,71.9063 Q853.9688,71.6719 853.9688,71.2813 Q853.9688,70.9063 854.2344,70.6719 Q854.5,70.4375 855.1094,70.4375 L858.7813,70.4375 L862.1719,78.7969 Q862.7656,78.7969 862.9531,78.9375 Q863.3438,79.2031 863.3438,79.6563 Q863.3438,80.0313 863.0859,80.2656 Q862.8281,80.5 862.2188,80.5 L859.9219,80.5 Q859.3125,80.5 859.0469,80.2656 Q858.7813,80.0313 858.7813,79.6406 Q858.7813,79.2656 859.0469,79.0313 Q859.3125,78.7969 859.9219,78.7969 L860.3438,78.7969 L859.9375,77.7656 Z M859.2188,76.0625 L857.8594,72.6875 L856.4844,76.0625 L859.2188,76.0625 Z "/><text fill="#000000" font-family="sans-serif" font-size="12" font-style="italic" lengthAdjust="spacingAndGlyphs" textLength="52" x="878.25" y="80.9102">Renderer</text><line style="stroke: #A80036; stroke-width: 1.5;" x1="730.5" x2="1045.5" y1="92" y2="92"/><line style="stroke: #A80036; stroke-width: 1.5;" x1="730.5" x2="1045.5" y1="100" y2="100"/><polygon fill="#FFFF44" points="740.5,107.418,744.5,111.418,740.5,115.418,736.5,111.418" style="stroke: #B38D22; stroke-width: 1.0;"/><text fill="#000000" font-family="sans-serif" font-size="11" lengthAdjust="spacingAndGlyphs" textLength="113" x="749.5" y="115.4189">Renderer(UMLDiagram)</text><ellipse cx="740.5" cy="126.2539" fill="#84BE84" rx="3" ry="3" style="stroke: #038048; stroke-width: 1.0;"/><text fill="#000000" font-family="sans-serif" font-size="11" lengthAdjust="spacingAndGlyphs" textLength="109" x="749.5" y="129.2549">writeTo(Writer): Writer</text><polygon fill="#FFFF44" points="740.5,135.0898,744.5,139.0898,740.5,143.0898,736.5,139.0898" style="stroke: #B38D22; stroke-width: 1.0;"/><text fill="#000000" font-family="sans-serif" font-size="11" lengthAdjust="spacingAndGlyphs" textLength="276" x="749.5" y="143.0908">writeChildrenTo(IndentingPrintWriter): IndentingPrintWriter</text><polygon fill="#FFFF44" points="740.5,148.9258,744.5,152.9258,740.5,156.9258,736.5,152.9258" style="stroke: #B38D22; stroke-width: 1.0;"/><text fill="#000000" font-family="sans-serif" font-size="11" lengthAdjust="spacingAndGlyphs" textLength="99" x="749.5" y="156.9268">lastChild(): Renderer</text><polygon fill="#FFFF44" points="740.5,162.7617,744.5,166.7617,740.5,170.7617,736.5,166.7617" style="stroke: #B38D22; stroke-width: 1.0;"/><text fill="#000000" font-family="sans-serif" font-size="11" lengthAdjust="spacingAndGlyphs" text-decoration="underline" textLength="291" x="749.5" y="170.7627">writeTypeTo(IndentingPrintWriter, Type): IndentingPrintWriter</text><line style="stroke: #000000; stroke-width: 1.0;" x1="749.5" x2="1040.5" y1="172.7627" y2="172.7627"/><ellipse cx="740.5" cy="181.5977" fill="#84BE84" rx="3" ry="3" style="stroke: #038048; stroke-width: 1.0;"/><text fill="#000000" font-family="sans-serif" font-size="11" lengthAdjust="spacingAndGlyphs" text-decoration="underline" textLength="103" x="749.5" y="184.5986">quoted(String): String</text><line style="stroke: #000000; stroke-width: 1.0;" x1="749.5" x2="852.5" y1="186.5986" y2="186.5986"/><polygon fill="#FFFF44" points="740.5,190.4336,744.5,194.4336,740.5,198.4336,736.5,194.4336" style="stroke: #B38D22; stroke-width: 1.0;"/><text fill="#000000" font-family="sans-serif" font-size="11" font-style="italic" lengthAdjust="spacingAndGlyphs" textLength="248" x="749.5" y="198.4346">writeTo(IndentingPrintWriter): IndentingPrintWriter</text><!--class nl.talsmasoftware.umldoclet.rendering.ParentAwareRenderer--><rect fill="#FEFECE" filter="url(#fmu7abj)" height="61.8359" style="stroke: #A80036; stroke-width: 1.5;" width="189" x="988.5" y="357.5"/><ellipse cx="1019.25" cy="373.5" fill="#A9DCDF" rx="11" ry="11" style="stroke: #A80036; stroke-width: 1.0;"/><path d="M1021.4375,375.2656 L1017.2969,375.2656 L1016.875,376.2969 L1017.2969,376.2969 Q1017.9063,376.2969 1018.1719,376.5313 Q1018.4375,376.7656 1018.4375,377.1563 Q1018.4375,377.5313 1018.1719,377.7656 Q1017.9063,378 1017.2969,378 L1015,378 Q1014.3906,378 1014.1328,377.7656 Q1013.875,377.5313 1013.875,377.1406 Q1013.875,376.7656 1014.1484,376.5234 Q1014.4219,376.2813 1015.0469,376.2969 L1017.7188,369.6406 L1016.6094,369.6406 Q1016,369.6406 1015.7344,369.4063 Q1015.4688,369.1719 1015.4688,368.7813 Q1015.4688,368.4063 1015.7344,368.1719 Q1016,367.9375 1016.6094,367.9375 L1020.2813,367.9375 L1023.6719,376.2969 Q1024.2656,376.2969 1024.4531,376.4375 Q1024.8438,376.7031 1024.8438,377.1563 Q1024.8438,377.5313 1024.5859,377.7656 Q1024.3281,378 1023.7188,378 L1021.4219,378 Q1020.8125,378 1020.5469,377.7656 Q1020.2813,377.5313 1020.2813,377.1406 Q1020.2813,376.7656 1020.5469,376.5313 Q1020.8125,376.2969 1021.4219,376.2969 L1021.8438,376.2969 L1021.4375,375.2656 Z M1020.7188,373.5625 L1019.3594,370.1875 L1017.9844,373.5625 L1020.7188,373.5625 Z "/><text fill="#000000" font-family="sans-serif" font-size="12" font-style="italic" lengthAdjust="spacingAndGlyphs" textLength="122" x="1036.75" y="378.4102">ParentAwareRenderer</text><line style="stroke: #A80036; stroke-width: 1.5;" x1="989.5" x2="1176.5" y1="389.5" y2="389.5"/><line style="stroke: #A80036; stroke-width: 1.5;" x1="989.5" x2="1176.5" y1="397.5" y2="397.5"/><polygon fill="#FFFF44" points="999.5,404.918,1003.5,408.918,999.5,412.918,995.5,408.918" style="stroke: #B38D22; stroke-width: 1.0;"/><text fill="#000000" font-family="sans-serif" font-size="11" lengthAdjust="spacingAndGlyphs" textLength="163" x="1008.5" y="412.9189">ParentAwareRenderer(Renderer)</text><!--class nl.talsmasoftware.umldoclet.rendering.PackageRenderer--><rect fill="#FEFECE" filter="url(#fmu7abj)" height="89.5078" style="stroke: #A80036; stroke-width: 1.5;" width="263" x="336.5" y="343.5"/><ellipse cx="413.75" cy="359.5" fill="#ADD1B2" rx="11" ry="11" style="stroke: #A80036; stroke-width: 1.0;"/><path d="M416.5156,355.375 Q416.6719,355.1563 416.8594,355.0469 Q417.0469,354.9375 417.2656,354.9375 Q417.6406,354.9375 417.875,355.1953 Q418.1094,355.4531 418.1094,356.0625 L418.1094,357.5156 Q418.1094,358.125 417.875,358.3906 Q417.6406,358.6563 417.2656,358.6563 Q416.9219,358.6563 416.7188,358.4531 Q416.5156,358.2656 416.4063,357.75 Q416.3594,357.3906 416.1719,357.2031 Q415.8438,356.8281 415.2344,356.6094 Q414.625,356.3906 414,356.3906 Q413.2344,356.3906 412.6016,356.7188 Q411.9688,357.0469 411.4766,357.7969 Q410.9844,358.5469 410.9844,359.5781 L410.9844,360.6719 Q410.9844,361.9063 411.875,362.7266 Q412.7656,363.5469 414.3594,363.5469 Q415.2969,363.5469 415.9531,363.2969 Q416.3438,363.1406 416.7656,362.7031 Q417.0313,362.4375 417.1797,362.3594 Q417.3281,362.2813 417.5313,362.2813 Q417.8594,362.2813 418.1172,362.5391 Q418.375,362.7969 418.375,363.1406 Q418.375,363.4844 418.0313,363.8906 Q417.5313,364.4688 416.7344,364.7969 Q415.6563,365.25 414.3594,365.25 Q412.8438,365.25 411.6406,364.625 Q410.6563,364.125 409.9688,363.0547 Q409.2813,361.9844 409.2813,360.7031 L409.2813,359.5469 Q409.2813,358.2188 409.8984,357.0703 Q410.5156,355.9219 411.6094,355.3047 Q412.7031,354.6875 413.9375,354.6875 Q414.6719,354.6875 415.3203,354.8516 Q415.9688,355.0156 416.5156,355.375 Z "/><text fill="#000000" font-family="sans-serif" font-size="12" lengthAdjust="spacingAndGlyphs" textLength="100" x="434.25" y="364.4102">PackageRenderer</text><line style="stroke: #A80036; stroke-width: 1.5;" x1="337.5" x2="598.5" y1="375.5" y2="375.5"/><polygon fill="none" points="347.5,382.918,351.5,386.918,347.5,390.918,343.5,386.918" style="stroke: #B38D22; stroke-width: 1.0;"/><text fill="#000000" font-family="sans-serif" font-size="11" lengthAdjust="spacingAndGlyphs" textLength="126" x="356.5" y="390.9189">packageDoc: PackageDoc</text><line style="stroke: #A80036; stroke-width: 1.5;" x1="337.5" x2="598.5" y1="397.3359" y2="397.3359"/><polygon fill="#FFFF44" points="347.5,404.7539,351.5,408.7539,347.5,412.7539,343.5,408.7539" style="stroke: #B38D22; stroke-width: 1.0;"/><text fill="#000000" font-family="sans-serif" font-size="11" lengthAdjust="spacingAndGlyphs" textLength="220" x="356.5" y="412.7549">PackageRenderer(UMLDiagram, PackageDoc)</text><polygon fill="#FFFF44" points="347.5,418.5898,351.5,422.5898,347.5,426.5898,343.5,422.5898" style="stroke: #B38D22; stroke-width: 1.0;"/><text fill="#000000" font-family="sans-serif" font-size="11" lengthAdjust="spacingAndGlyphs" textLength="237" x="356.5" y="426.5908">writeTo(IndentingPrintWriter): IndentingPrintWriter</text><!--class nl.talsmasoftware.umldoclet.rendering.NoteRenderer--><rect fill="#FEFECE" filter="url(#fmu7abj)" height="89.5078" style="stroke: #A80036; stroke-width: 1.5;" width="263" x="862.5" y="584"/><ellipse cx="950.75" cy="600" fill="#ADD1B2" rx="11" ry="11" style="stroke: #A80036; stroke-width: 1.0;"/><path d="M953.5156,595.875 Q953.6719,595.6563 953.8594,595.5469 Q954.0469,595.4375 954.2656,595.4375 Q954.6406,595.4375 954.875,595.6953 Q955.1094,595.9531 955.1094,596.5625 L955.1094,598.0156 Q955.1094,598.625 954.875,598.8906 Q954.6406,599.1563 954.2656,599.1563 Q953.9219,599.1563 953.7188,598.9531 Q953.5156,598.7656 953.4063,598.25 Q953.3594,597.8906 953.1719,597.7031 Q952.8438,597.3281 952.2344,597.1094 Q951.625,596.8906 951,596.8906 Q950.2344,596.8906 949.6016,597.2188 Q948.9688,597.5469 948.4766,598.2969 Q947.9844,599.0469 947.9844,600.0781 L947.9844,601.1719 Q947.9844,602.4063 948.875,603.2266 Q949.7656,604.0469 951.3594,604.0469 Q952.2969,604.0469 952.9531,603.7969 Q953.3438,603.6406 953.7656,603.2031 Q954.0313,602.9375 954.1797,602.8594 Q954.3281,602.7813 954.5313,602.7813 Q954.8594,602.7813 955.1172,603.0391 Q955.375,603.2969 955.375,603.6406 Q955.375,603.9844 955.0313,604.3906 Q954.5313,604.9688 953.7344,605.2969 Q952.6563,605.75 951.3594,605.75 Q949.8438,605.75 948.6406,605.125 Q947.6563,604.625 946.9688,603.5547 Q946.2813,602.4844 946.2813,601.2031 L946.2813,600.0469 Q946.2813,598.7188 946.8984,597.5703 Q947.5156,596.4219 948.6094,595.8047 Q949.7031,595.1875 950.9375,595.1875 Q951.6719,595.1875 952.3203,595.3516 Q952.9688,595.5156 953.5156,595.875 Z "/><text fill="#000000" font-family="sans-serif" font-size="12" lengthAdjust="spacingAndGlyphs" textLength="78" x="971.25" y="604.9102">NoteRenderer</text><line style="stroke: #A80036; stroke-width: 1.5;" x1="863.5" x2="1124.5" y1="616" y2="616"/><polygon fill="none" points="873.5,623.418,877.5,627.418,873.5,631.418,869.5,627.418" style="stroke: #B38D22; stroke-width: 1.0;"/><text fill="#000000" font-family="sans-serif" font-size="11" lengthAdjust="spacingAndGlyphs" textLength="55" x="882.5" y="631.4189">note: String</text><line style="stroke: #A80036; stroke-width: 1.5;" x1="863.5" x2="1124.5" y1="637.8359" y2="637.8359"/><polygon fill="#FFFF44" points="873.5,645.2539,877.5,649.2539,873.5,653.2539,869.5,649.2539" style="stroke: #B38D22; stroke-width: 1.0;"/><text fill="#000000" font-family="sans-serif" font-size="11" lengthAdjust="spacingAndGlyphs" textLength="154" x="882.5" y="653.2549">NoteRenderer(Renderer, String)</text><polygon fill="#FFFF44" points="873.5,659.0898,877.5,663.0898,873.5,667.0898,869.5,663.0898" style="stroke: #B38D22; stroke-width: 1.0;"/><text fill="#000000" font-family="sans-serif" font-size="11" lengthAdjust="spacingAndGlyphs" textLength="237" x="882.5" y="667.0908">writeTo(IndentingPrintWriter): IndentingPrintWriter</text><!--class nl.talsmasoftware.umldoclet.rendering.MethodRenderer--><rect fill="#FEFECE" filter="url(#fmu7abj)" height="144.8516" style="stroke: #A80036; stroke-width: 1.5;" width="318" x="635" y="316"/><ellipse cx="743.75" cy="332" fill="#ADD1B2" rx="11" ry="11" style="stroke: #A80036; stroke-width: 1.0;"/><path d="M746.5156,327.875 Q746.6719,327.6563 746.8594,327.5469 Q747.0469,327.4375 747.2656,327.4375 Q747.6406,327.4375 747.875,327.6953 Q748.1094,327.9531 748.1094,328.5625 L748.1094,330.0156 Q748.1094,330.625 747.875,330.8906 Q747.6406,331.1563 747.2656,331.1563 Q746.9219,331.1563 746.7188,330.9531 Q746.5156,330.7656 746.4063,330.25 Q746.3594,329.8906 746.1719,329.7031 Q745.8438,329.3281 745.2344,329.1094 Q744.625,328.8906 744,328.8906 Q743.2344,328.8906 742.6016,329.2188 Q741.9688,329.5469 741.4766,330.2969 Q740.9844,331.0469 740.9844,332.0781 L740.9844,333.1719 Q740.9844,334.4063 741.875,335.2266 Q742.7656,336.0469 744.3594,336.0469 Q745.2969,336.0469 745.9531,335.7969 Q746.3438,335.6406 746.7656,335.2031 Q747.0313,334.9375 747.1797,334.8594 Q747.3281,334.7813 747.5313,334.7813 Q747.8594,334.7813 748.1172,335.0391 Q748.375,335.2969 748.375,335.6406 Q748.375,335.9844 748.0313,336.3906 Q747.5313,336.9688 746.7344,337.2969 Q745.6563,337.75 744.3594,337.75 Q742.8438,337.75 741.6406,337.125 Q740.6563,336.625 739.9688,335.5547 Q739.2813,334.4844 739.2813,333.2031 L739.2813,332.0469 Q739.2813,330.7188 739.8984,329.5703 Q740.5156,328.4219 741.6094,327.8047 Q742.7031,327.1875 743.9375,327.1875 Q744.6719,327.1875 745.3203,327.3516 Q745.9688,327.5156 746.5156,327.875 Z "/><text fill="#000000" font-family="sans-serif" font-size="12" lengthAdjust="spacingAndGlyphs" textLength="92" x="764.25" y="336.9102">MethodRenderer</text><line style="stroke: #A80036; stroke-width: 1.5;" x1="636" x2="952" y1="348" y2="348"/><polygon fill="none" points="646,355.418,650,359.418,646,363.418,642,359.418" style="stroke: #B38D22; stroke-width: 1.0;"/><text fill="#000000" font-family="sans-serif" font-size="11" lengthAdjust="spacingAndGlyphs" textLength="170" x="655" y="363.4189">methodDoc: ExecutableMemberDoc</text><line style="stroke: #A80036; stroke-width: 1.5;" x1="636" x2="952" y1="369.8359" y2="369.8359"/><polygon fill="#FFFF44" points="646,377.2539,650,381.2539,646,385.2539,642,381.2539" style="stroke: #B38D22; stroke-width: 1.0;"/><text fill="#000000" font-family="sans-serif" font-size="11" lengthAdjust="spacingAndGlyphs" textLength="264" x="655" y="385.2549">MethodRenderer(UMLDiagram, ExecutableMemberDoc)</text><polygon fill="#FFFF44" points="646,391.0898,650,395.0898,646,399.0898,642,395.0898" style="stroke: #B38D22; stroke-width: 1.0;"/><text fill="#000000" font-family="sans-serif" font-size="11" lengthAdjust="spacingAndGlyphs" textLength="121" x="655" y="399.0908">includeMethod(): boolean</text><polygon fill="#FFFF44" points="646,404.9258,650,408.9258,646,412.9258,642,408.9258" style="stroke: #B38D22; stroke-width: 1.0;"/><text fill="#000000" font-family="sans-serif" font-size="11" lengthAdjust="spacingAndGlyphs" textLength="264" x="655" y="412.9268">writeNameTo(IndentingPrintWriter): IndentingPrintWriter</text><polygon fill="#FFFF44" points="646,418.7617,650,422.7617,646,426.7617,642,422.7617" style="stroke: #B38D22; stroke-width: 1.0;"/><text fill="#000000" font-family="sans-serif" font-size="11" lengthAdjust="spacingAndGlyphs" textLength="292" x="655" y="426.7627">writeParametersTo(IndentingPrintWriter): IndentingPrintWriter</text><polygon fill="#FFFF44" points="646,432.5977,650,436.5977,646,440.5977,642,436.5977" style="stroke: #B38D22; stroke-width: 1.0;"/><text fill="#000000" font-family="sans-serif" font-size="11" lengthAdjust="spacingAndGlyphs" textLength="237" x="655" y="440.5986">writeTo(IndentingPrintWriter): IndentingPrintWriter</text><polygon fill="#FFFF44" points="646,446.4336,650,450.4336,646,454.4336,642,450.4336" style="stroke: #B38D22; stroke-width: 1.0;"/><text fill="#000000" font-family="sans-serif" font-size="11" lengthAdjust="spacingAndGlyphs" textLength="110" x="655" y="454.4346">propertyName(): String</text><!--class nl.talsmasoftware.umldoclet.rendering.LegacyTag--><rect fill="#FEFECE" filter="url(#fmu7abj)" height="144.8516" style="stroke: #A80036; stroke-width: 1.5;" width="160" x="330" y="60"/><ellipse cx="375.75" cy="76" fill="#EB937F" rx="11" ry="11" style="stroke: #A80036; stroke-width: 1.0;"/><path d="M374.6094,76.7969 L374.6094,79.2969 L378.9375,79.2969 L378.9375,78.375 Q378.9375,77.7656 379.1797,77.5 Q379.4219,77.2344 379.7969,77.2344 Q380.1719,77.2344 380.4063,77.5 Q380.6406,77.7656 380.6406,78.375 L380.6406,81 L372.6406,81 Q372.0156,81 371.7578,80.7656 Q371.5,80.5313 371.5,80.1406 Q371.5,79.7656 371.7656,79.5313 Q372.0313,79.2969 372.6406,79.2969 L372.9063,79.2969 L372.9063,72.6406 L372.6406,72.6406 Q372.0156,72.6406 371.7578,72.4063 Q371.5,72.1719 371.5,71.7813 Q371.5,71.4063 371.7578,71.1719 Q372.0156,70.9375 372.6406,70.9375 L380.2656,70.9375 L380.2656,73.5313 Q380.2656,74.1406 380.0391,74.3984 Q379.8125,74.6563 379.4219,74.6563 Q379.0469,74.6563 378.8125,74.3984 Q378.5781,74.1406 378.5781,73.5313 L378.5781,72.6406 L374.6094,72.6406 L374.6094,75.0938 L376.0938,75.0938 Q376.0938,74.4375 376.2188,74.25 Q376.4844,73.8438 376.9531,73.8438 Q377.3281,73.8438 377.5625,74.1016 Q377.7969,74.3594 377.7969,74.9688 L377.7969,76.9375 Q377.7969,77.4844 377.6719,77.6719 Q377.4063,78.0625 376.9531,78.0625 Q376.4844,78.0625 376.2188,77.6563 Q376.0938,77.4688 376.0938,76.7969 L374.6094,76.7969 Z "/><text fill="#000000" font-family="sans-serif" font-size="12" lengthAdjust="spacingAndGlyphs" textLength="60" x="396.25" y="80.9102">LegacyTag</text><line style="stroke: #A80036; stroke-width: 1.5;" x1="331" x2="489" y1="92" y2="92"/><ellipse cx="341" cy="104.418" fill="none" rx="3" ry="3" style="stroke: #038048; stroke-width: 1.0;"/><text fill="#000000" font-family="sans-serif" font-size="11" lengthAdjust="spacingAndGlyphs" text-decoration="underline" textLength="46" x="350" y="107.4189">EXTENDS</text><line style="stroke: #000000; stroke-width: 1.0;" x1="350" x2="396" y1="109.4189" y2="109.4189"/><ellipse cx="341" cy="118.2539" fill="none" rx="3" ry="3" style="stroke: #038048; stroke-width: 1.0;"/><text fill="#000000" font-family="sans-serif" font-size="11" lengthAdjust="spacingAndGlyphs" text-decoration="underline" textLength="62" x="350" y="121.2549">IMPLEMENTS</text><line style="stroke: #000000; stroke-width: 1.0;" x1="350" x2="412" y1="123.2549" y2="123.2549"/><ellipse cx="341" cy="132.0898" fill="none" rx="3" ry="3" style="stroke: #038048; stroke-width: 1.0;"/><text fill="#000000" font-family="sans-serif" font-size="11" lengthAdjust="spacingAndGlyphs" text-decoration="underline" textLength="37" x="350" y="135.0908">ASSOC</text><line style="stroke: #000000; stroke-width: 1.0;" x1="350" x2="387" y1="137.0908" y2="137.0908"/><ellipse cx="341" cy="145.9258" fill="none" rx="3" ry="3" style="stroke: #038048; stroke-width: 1.0;"/><text fill="#000000" font-family="sans-serif" font-size="11" lengthAdjust="spacingAndGlyphs" text-decoration="underline" textLength="60" x="350" y="148.9268">NAVASSOC</text><line style="stroke: #000000; stroke-width: 1.0;" x1="350" x2="410" y1="150.9268" y2="150.9268"/><ellipse cx="341" cy="159.7617" fill="none" rx="3" ry="3" style="stroke: #038048; stroke-width: 1.0;"/><text fill="#000000" font-family="sans-serif" font-size="11" lengthAdjust="spacingAndGlyphs" text-decoration="underline" textLength="39" x="350" y="162.7627">DEPEND</text><line style="stroke: #000000; stroke-width: 1.0;" x1="350" x2="389" y1="164.7627" y2="164.7627"/><line style="stroke: #A80036; stroke-width: 1.5;" x1="331" x2="489" y1="169.1797" y2="169.1797"/><ellipse cx="341" cy="181.5977" fill="#84BE84" rx="3" ry="3" style="stroke: #038048; stroke-width: 1.0;"/><text fill="#000000" font-family="sans-serif" font-size="11" lengthAdjust="spacingAndGlyphs" text-decoration="underline" textLength="106" x="350" y="184.5986">values(): LegacyTag[]</text><line style="stroke: #000000; stroke-width: 1.0;" x1="350" x2="456" y1="186.5986" y2="186.5986"/><ellipse cx="341" cy="195.4336" fill="#84BE84" rx="3" ry="3" style="stroke: #038048; stroke-width: 1.0;"/><text fill="#000000" font-family="sans-serif" font-size="11" lengthAdjust="spacingAndGlyphs" text-decoration="underline" textLength="134" x="350" y="198.4346">valueOf(String): LegacyTag</text><line style="stroke: #000000; stroke-width: 1.0;" x1="350" x2="484" y1="200.4346" y2="200.4346"/><!--class nl.talsmasoftware.umldoclet.rendering.FieldRenderer--><rect fill="#FEFECE" filter="url(#fmu7abj)" height="131.0156" style="stroke: #A80036; stroke-width: 1.5;" width="290" x="1213" y="323"/><ellipse cx="1314.25" cy="339" fill="#ADD1B2" rx="11" ry="11" style="stroke: #A80036; stroke-width: 1.0;"/><path d="M1317.0156,334.875 Q1317.1719,334.6563 1317.3594,334.5469 Q1317.5469,334.4375 1317.7656,334.4375 Q1318.1406,334.4375 1318.375,334.6953 Q1318.6094,334.9531 1318.6094,335.5625 L1318.6094,337.0156 Q1318.6094,337.625 1318.375,337.8906 Q1318.1406,338.1563 1317.7656,338.1563 Q1317.4219,338.1563 1317.2188,337.9531 Q1317.0156,337.7656 1316.9063,337.25 Q1316.8594,336.8906 1316.6719,336.7031 Q1316.3438,336.3281 1315.7344,336.1094 Q1315.125,335.8906 1314.5,335.8906 Q1313.7344,335.8906 1313.1016,336.2188 Q1312.4688,336.5469 1311.9766,337.2969 Q1311.4844,338.0469 1311.4844,339.0781 L1311.4844,340.1719 Q1311.4844,341.4063 1312.375,342.2266 Q1313.2656,343.0469 1314.8594,343.0469 Q1315.7969,343.0469 1316.4531,342.7969 Q1316.8438,342.6406 1317.2656,342.2031 Q1317.5313,341.9375 1317.6797,341.8594 Q1317.8281,341.7813 1318.0313,341.7813 Q1318.3594,341.7813 1318.6172,342.0391 Q1318.875,342.2969 1318.875,342.6406 Q1318.875,342.9844 1318.5313,343.3906 Q1318.0313,343.9688 1317.2344,344.2969 Q1316.1563,344.75 1314.8594,344.75 Q1313.3438,344.75 1312.1406,344.125 Q1311.1563,343.625 1310.4688,342.5547 Q1309.7813,341.4844 1309.7813,340.2031 L1309.7813,339.0469 Q1309.7813,337.7188 1310.3984,336.5703 Q1311.0156,335.4219 1312.1094,334.8047 Q1313.2031,334.1875 1314.4375,334.1875 Q1315.1719,334.1875 1315.8203,334.3516 Q1316.4688,334.5156 1317.0156,334.875 Z "/><text fill="#000000" font-family="sans-serif" font-size="12" lengthAdjust="spacingAndGlyphs" textLength="79" x="1334.75" y="343.9102">FieldRenderer</text><line style="stroke: #A80036; stroke-width: 1.5;" x1="1214" x2="1502" y1="355" y2="355"/><polygon fill="none" points="1224,362.418,1228,366.418,1224,370.418,1220,366.418" style="stroke: #B38D22; stroke-width: 1.0;"/><text fill="#000000" font-family="sans-serif" font-size="11" lengthAdjust="spacingAndGlyphs" textLength="86" x="1233" y="370.4189">fieldDoc: FieldDoc</text><line style="stroke: #A80036; stroke-width: 1.5;" x1="1214" x2="1502" y1="376.8359" y2="376.8359"/><polygon fill="#FFFF44" points="1224,384.2539,1228,388.2539,1224,392.2539,1220,388.2539" style="stroke: #B38D22; stroke-width: 1.0;"/><text fill="#000000" font-family="sans-serif" font-size="11" lengthAdjust="spacingAndGlyphs" textLength="182" x="1233" y="392.2549">FieldRenderer(UMLDiagram, FieldDoc)</text><polygon fill="#FFFF44" points="1224,398.0898,1228,402.0898,1224,406.0898,1220,402.0898" style="stroke: #B38D22; stroke-width: 1.0;"/><text fill="#000000" font-family="sans-serif" font-size="11" lengthAdjust="spacingAndGlyphs" textLength="132" x="1233" y="406.0908">includeFieldType(): boolean</text><polygon fill="#FFFF44" points="1224,411.9258,1228,415.9258,1224,419.9258,1220,415.9258" style="stroke: #B38D22; stroke-width: 1.0;"/><text fill="#000000" font-family="sans-serif" font-size="11" lengthAdjust="spacingAndGlyphs" textLength="108" x="1233" y="419.9268">includeField(): boolean</text><polygon fill="#FFFF44" points="1224,425.7617,1228,429.7617,1224,433.7617,1220,429.7617" style="stroke: #B38D22; stroke-width: 1.0;"/><text fill="#000000" font-family="sans-serif" font-size="11" lengthAdjust="spacingAndGlyphs" textLength="264" x="1233" y="433.7627">writeNameTo(IndentingPrintWriter): IndentingPrintWriter</text><polygon fill="#FFFF44" points="1224,439.5977,1228,443.5977,1224,447.5977,1220,443.5977" style="stroke: #B38D22; stroke-width: 1.0;"/><text fill="#000000" font-family="sans-serif" font-size="11" lengthAdjust="spacingAndGlyphs" textLength="237" x="1233" y="447.5986">writeTo(IndentingPrintWriter): IndentingPrintWriter</text><!--class nl.talsmasoftware.umldoclet.rendering.CommandRenderer--><rect fill="#FEFECE" filter="url(#fmu7abj)" height="89.5078" style="stroke: #A80036; stroke-width: 1.5;" width="263" x="1538.5" y="343.5"/><ellipse cx="1610.25" cy="359.5" fill="#ADD1B2" rx="11" ry="11" style="stroke: #A80036; stroke-width: 1.0;"/><path d="M1613.0156,355.375 Q1613.1719,355.1563 1613.3594,355.0469 Q1613.5469,354.9375 1613.7656,354.9375 Q1614.1406,354.9375 1614.375,355.1953 Q1614.6094,355.4531 1614.6094,356.0625 L1614.6094,357.5156 Q1614.6094,358.125 1614.375,358.3906 Q1614.1406,358.6563 1613.7656,358.6563 Q1613.4219,358.6563 1613.2188,358.4531 Q1613.0156,358.2656 1612.9063,357.75 Q1612.8594,357.3906 1612.6719,357.2031 Q1612.3438,356.8281 1611.7344,356.6094 Q1611.125,356.3906 1610.5,356.3906 Q1609.7344,356.3906 1609.1016,356.7188 Q1608.4688,357.0469 1607.9766,357.7969 Q1607.4844,358.5469 1607.4844,359.5781 L1607.4844,360.6719 Q1607.4844,361.9063 1608.375,362.7266 Q1609.2656,363.5469 1610.8594,363.5469 Q1611.7969,363.5469 1612.4531,363.2969 Q1612.8438,363.1406 1613.2656,362.7031 Q1613.5313,362.4375 1613.6797,362.3594 Q1613.8281,362.2813 1614.0313,362.2813 Q1614.3594,362.2813 1614.6172,362.5391 Q1614.875,362.7969 1614.875,363.1406 Q1614.875,363.4844 1614.5313,363.8906 Q1614.0313,364.4688 1613.2344,364.7969 Q1612.1563,365.25 1610.8594,365.25 Q1609.3438,365.25 1608.1406,364.625 Q1607.1563,364.125 1606.4688,363.0547 Q1605.7813,361.9844 1605.7813,360.7031 L1605.7813,359.5469 Q1605.7813,358.2188 1606.3984,357.0703 Q1607.0156,355.9219 1608.1094,355.3047 Q1609.2031,354.6875 1610.4375,354.6875 Q1611.1719,354.6875 1611.8203,354.8516 Q1612.4688,355.0156 1613.0156,355.375 Z "/><text fill="#000000" font-family="sans-serif" font-size="12" lengthAdjust="spacingAndGlyphs" textLength="111" x="1630.75" y="364.4102">CommandRenderer</text><line style="stroke: #A80036; stroke-width: 1.5;" x1="1539.5" x2="1800.5" y1="375.5" y2="375.5"/><polygon fill="none" points="1549.5,382.918,1553.5,386.918,1549.5,390.918,1545.5,386.918" style="stroke: #B38D22; stroke-width: 1.0;"/><text fill="#000000" font-family="sans-serif" font-size="11" lengthAdjust="spacingAndGlyphs" textLength="80" x="1558.5" y="390.9189">command: String</text><line style="stroke: #A80036; stroke-width: 1.5;" x1="1539.5" x2="1800.5" y1="397.3359" y2="397.3359"/><polygon fill="#FFFF44" points="1549.5,404.7539,1553.5,408.7539,1549.5,412.7539,1545.5,408.7539" style="stroke: #B38D22; stroke-width: 1.0;"/><text fill="#000000" font-family="sans-serif" font-size="11" lengthAdjust="spacingAndGlyphs" textLength="194" x="1558.5" y="412.7549">CommandRenderer(UMLDiagram, String)</text><polygon fill="#FFFF44" points="1549.5,418.5898,1553.5,422.5898,1549.5,426.5898,1545.5,422.5898" style="stroke: #B38D22; stroke-width: 1.0;"/><text fill="#000000" font-family="sans-serif" font-size="11" lengthAdjust="spacingAndGlyphs" textLength="237" x="1558.5" y="426.5908">writeTo(IndentingPrintWriter): IndentingPrintWriter</text><!--class nl.talsmasoftware.umldoclet.rendering.ClassRenderer--><rect fill="#FEFECE" filter="url(#fmu7abj)" height="214.0313" style="stroke: #A80036; stroke-width: 1.5;" width="359" x="1160.5" y="522"/><ellipse cx="1293.25" cy="538" fill="#ADD1B2" rx="11" ry="11" style="stroke: #A80036; stroke-width: 1.0;"/><path d="M1296.0156,533.875 Q1296.1719,533.6563 1296.3594,533.5469 Q1296.5469,533.4375 1296.7656,533.4375 Q1297.1406,533.4375 1297.375,533.6953 Q1297.6094,533.9531 1297.6094,534.5625 L1297.6094,536.0156 Q1297.6094,536.625 1297.375,536.8906 Q1297.1406,537.1563 1296.7656,537.1563 Q1296.4219,537.1563 1296.2188,536.9531 Q1296.0156,536.7656 1295.9063,536.25 Q1295.8594,535.8906 1295.6719,535.7031 Q1295.3438,535.3281 1294.7344,535.1094 Q1294.125,534.8906 1293.5,534.8906 Q1292.7344,534.8906 1292.1016,535.2188 Q1291.4688,535.5469 1290.9766,536.2969 Q1290.4844,537.0469 1290.4844,538.0781 L1290.4844,539.1719 Q1290.4844,540.4063 1291.375,541.2266 Q1292.2656,542.0469 1293.8594,542.0469 Q1294.7969,542.0469 1295.4531,541.7969 Q1295.8438,541.6406 1296.2656,541.2031 Q1296.5313,540.9375 1296.6797,540.8594 Q1296.8281,540.7813 1297.0313,540.7813 Q1297.3594,540.7813 1297.6172,541.0391 Q1297.875,541.2969 1297.875,541.6406 Q1297.875,541.9844 1297.5313,542.3906 Q1297.0313,542.9688 1296.2344,543.2969 Q1295.1563,543.75 1293.8594,543.75 Q1292.3438,543.75 1291.1406,543.125 Q1290.1563,542.625 1289.4688,541.5547 Q1288.7813,540.4844 1288.7813,539.2031 L1288.7813,538.0469 Q1288.7813,536.7188 1289.3984,535.5703 Q1290.0156,534.4219 1291.1094,533.8047 Q1292.2031,533.1875 1293.4375,533.1875 Q1294.1719,533.1875 1294.8203,533.3516 Q1295.4688,533.5156 1296.0156,533.875 Z "/><text fill="#000000" font-family="sans-serif" font-size="12" lengthAdjust="spacingAndGlyphs" textLength="85" x="1313.75" y="542.9102">ClassRenderer</text><line style="stroke: #A80036; stroke-width: 1.5;" x1="1161.5" x2="1518.5" y1="554" y2="554"/><polygon fill="none" points="1171.5,561.418,1175.5,565.418,1171.5,569.418,1167.5,565.418" style="stroke: #B38D22; stroke-width: 1.0;"/><text fill="#000000" font-family="sans-serif" font-size="11" lengthAdjust="spacingAndGlyphs" textLength="97" x="1180.5" y="569.4189">classDoc: ClassDoc</text><line style="stroke: #A80036; stroke-width: 1.5;" x1="1161.5" x2="1518.5" y1="575.8359" y2="575.8359"/><polygon fill="#FFFF44" points="1171.5,583.2539,1175.5,587.2539,1171.5,591.2539,1167.5,587.2539" style="stroke: #B38D22; stroke-width: 1.0;"/><text fill="#000000" font-family="sans-serif" font-size="11" lengthAdjust="spacingAndGlyphs" textLength="177" x="1180.5" y="591.2549">ClassRenderer(Renderer, ClassDoc)</text><polygon fill="#FFFF44" points="1171.5,597.0898,1175.5,601.0898,1171.5,605.0898,1167.5,601.0898" style="stroke: #B38D22; stroke-width: 1.0;"/><text fill="#000000" font-family="sans-serif" font-size="11" lengthAdjust="spacingAndGlyphs" textLength="82" x="1180.5" y="605.0908">umlType(): String</text><polygon fill="#FFFF44" points="1171.5,610.9258,1175.5,614.9258,1171.5,618.9258,1167.5,614.9258" style="stroke: #B38D22; stroke-width: 1.0;"/><text fill="#000000" font-family="sans-serif" font-size="11" lengthAdjust="spacingAndGlyphs" text-decoration="underline" textLength="140" x="1180.5" y="618.9268">umlTypeOf(ClassDoc): String</text><line style="stroke: #000000; stroke-width: 1.0;" x1="1180.5" x2="1320.5" y1="620.9268" y2="620.9268"/><polygon fill="#FFFF44" points="1171.5,624.7617,1175.5,628.7617,1171.5,632.7617,1167.5,628.7617" style="stroke: #B38D22; stroke-width: 1.0;"/><text fill="#000000" font-family="sans-serif" font-size="11" lengthAdjust="spacingAndGlyphs" textLength="281" x="1180.5" y="632.7627">writeGenericsTo(IndentingPrintWriter): IndentingPrintWriter</text><polygon fill="#FFFF44" points="1171.5,638.5977,1175.5,642.5977,1171.5,646.5977,1167.5,642.5977" style="stroke: #B38D22; stroke-width: 1.0;"/><text fill="#000000" font-family="sans-serif" font-size="11" lengthAdjust="spacingAndGlyphs" text-decoration="underline" textLength="333" x="1180.5" y="646.5986">writeGenericsOf(ClassDoc, IndentingPrintWriter): IndentingPrintWriter</text><line style="stroke: #000000; stroke-width: 1.0;" x1="1180.5" x2="1513.5" y1="648.5986" y2="648.5986"/><polygon fill="#FFFF44" points="1171.5,652.4336,1175.5,656.4336,1171.5,660.4336,1167.5,656.4336" style="stroke: #B38D22; stroke-width: 1.0;"/><text fill="#000000" font-family="sans-serif" font-size="11" lengthAdjust="spacingAndGlyphs" textLength="265" x="1180.5" y="660.4346">writeNotesTo(IndentingPrintWriter): IndentingPrintWriter</text><polygon fill="#FFFF44" points="1171.5,666.2695,1175.5,670.2695,1171.5,674.2695,1167.5,670.2695" style="stroke: #B38D22; stroke-width: 1.0;"/><text fill="#000000" font-family="sans-serif" font-size="11" lengthAdjust="spacingAndGlyphs" textLength="68" x="1180.5" y="674.2705">name(): String</text><polygon fill="#FFFF44" points="1171.5,680.1055,1175.5,684.1055,1171.5,688.1055,1167.5,684.1055" style="stroke: #B38D22; stroke-width: 1.0;"/><text fill="#000000" font-family="sans-serif" font-size="11" lengthAdjust="spacingAndGlyphs" textLength="108" x="1180.5" y="688.1064">nameOf(String): String</text><polygon fill="#FFFF44" points="1171.5,693.9414,1175.5,697.9414,1171.5,701.9414,1167.5,697.9414" style="stroke: #B38D22; stroke-width: 1.0;"/><text fill="#000000" font-family="sans-serif" font-size="11" lengthAdjust="spacingAndGlyphs" textLength="229" x="1180.5" y="701.9424">simplifyClassnameWithinPackage(String): String</text><polygon fill="#FFFF44" points="1171.5,707.7773,1175.5,711.7773,1171.5,715.7773,1167.5,711.7773" style="stroke: #B38D22; stroke-width: 1.0;"/><text fill="#000000" font-family="sans-serif" font-size="11" lengthAdjust="spacingAndGlyphs" textLength="264" x="1180.5" y="715.7783">writeNameTo(IndentingPrintWriter): IndentingPrintWriter</text><polygon fill="#FFFF44" points="1171.5,721.6133,1175.5,725.6133,1171.5,729.6133,1167.5,725.6133" style="stroke: #B38D22; stroke-width: 1.0;"/><text fill="#000000" font-family="sans-serif" font-size="11" lengthAdjust="spacingAndGlyphs" textLength="237" x="1180.5" y="729.6143">writeTo(IndentingPrintWriter): IndentingPrintWriter</text><!--class nl.talsmasoftware.umldoclet.rendering.ClassReferenceRenderer--><rect fill="#FEFECE" filter="url(#fmu7abj)" height="144.8516" style="stroke: #A80036; stroke-width: 1.5;" width="347" x="1165.5" y="814"/><ellipse cx="1263.75" cy="830" fill="#ADD1B2" rx="11" ry="11" style="stroke: #A80036; stroke-width: 1.0;"/><path d="M1266.5156,825.875 Q1266.6719,825.6563 1266.8594,825.5469 Q1267.0469,825.4375 1267.2656,825.4375 Q1267.6406,825.4375 1267.875,825.6953 Q1268.1094,825.9531 1268.1094,826.5625 L1268.1094,828.0156 Q1268.1094,828.625 1267.875,828.8906 Q1267.6406,829.1563 1267.2656,829.1563 Q1266.9219,829.1563 1266.7188,828.9531 Q1266.5156,828.7656 1266.4063,828.25 Q1266.3594,827.8906 1266.1719,827.7031 Q1265.8438,827.3281 1265.2344,827.1094 Q1264.625,826.8906 1264,826.8906 Q1263.2344,826.8906 1262.6016,827.2188 Q1261.9688,827.5469 1261.4766,828.2969 Q1260.9844,829.0469 1260.9844,830.0781 L1260.9844,831.1719 Q1260.9844,832.4063 1261.875,833.2266 Q1262.7656,834.0469 1264.3594,834.0469 Q1265.2969,834.0469 1265.9531,833.7969 Q1266.3438,833.6406 1266.7656,833.2031 Q1267.0313,832.9375 1267.1797,832.8594 Q1267.3281,832.7813 1267.5313,832.7813 Q1267.8594,832.7813 1268.1172,833.0391 Q1268.375,833.2969 1268.375,833.6406 Q1268.375,833.9844 1268.0313,834.3906 Q1267.5313,834.9688 1266.7344,835.2969 Q1265.6563,835.75 1264.3594,835.75 Q1262.8438,835.75 1261.6406,835.125 Q1260.6563,834.625 1259.9688,833.5547 Q1259.2813,832.4844 1259.2813,831.2031 L1259.2813,830.0469 Q1259.2813,828.7188 1259.8984,827.5703 Q1260.5156,826.4219 1261.6094,825.8047 Q1262.7031,825.1875 1263.9375,825.1875 Q1264.6719,825.1875 1265.3203,825.3516 Q1265.9688,825.5156 1266.5156,825.875 Z "/><text fill="#000000" font-family="sans-serif" font-size="12" lengthAdjust="spacingAndGlyphs" textLength="142" x="1284.25" y="834.9102">ClassReferenceRenderer</text><line style="stroke: #A80036; stroke-width: 1.5;" x1="1166.5" x2="1511.5" y1="846" y2="846"/><polygon fill="none" points="1176.5,853.418,1180.5,857.418,1176.5,861.418,1172.5,857.418" style="stroke: #B38D22; stroke-width: 1.0;"/><text fill="#000000" font-family="sans-serif" font-size="11" lengthAdjust="spacingAndGlyphs" textLength="105" x="1185.5" y="861.4189">reference: Reference</text><line style="stroke: #A80036; stroke-width: 1.5;" x1="1166.5" x2="1511.5" y1="867.8359" y2="867.8359"/><polygon fill="#FFFF44" points="1176.5,875.2539,1180.5,879.2539,1176.5,883.2539,1172.5,879.2539" style="stroke: #B38D22; stroke-width: 1.0;"/><text fill="#000000" font-family="sans-serif" font-size="11" lengthAdjust="spacingAndGlyphs" textLength="271" x="1185.5" y="883.2549">ClassReferenceRenderer(ClassRenderer, String, String)</text><polygon fill="#FFFF44" points="1176.5,889.0898,1180.5,893.0898,1176.5,897.0898,1172.5,893.0898" style="stroke: #B38D22; stroke-width: 1.0;"/><text fill="#000000" font-family="sans-serif" font-size="11" lengthAdjust="spacingAndGlyphs" textLength="260" x="1185.5" y="897.0908">ClassReferenceRenderer(ClassRenderer, Reference)</text><polygon fill="#FFFF44" points="1176.5,902.9258,1180.5,906.9258,1176.5,910.9258,1172.5,906.9258" style="stroke: #B38D22; stroke-width: 1.0;"/><text fill="#000000" font-family="sans-serif" font-size="11" lengthAdjust="spacingAndGlyphs" textLength="321" x="1185.5" y="910.9268">writeTypeDeclarationsTo(IndentingPrintWriter): IndentingPrintWriter</text><polygon fill="#FFFF44" points="1176.5,916.7617,1180.5,920.7617,1176.5,924.7617,1172.5,920.7617" style="stroke: #B38D22; stroke-width: 1.0;"/><text fill="#000000" font-family="sans-serif" font-size="11" lengthAdjust="spacingAndGlyphs" textLength="130" x="1185.5" y="924.7627">isSelfReference(): boolean</text><polygon fill="#FFFF44" points="1176.5,930.5977,1180.5,934.5977,1176.5,938.5977,1172.5,934.5977" style="stroke: #B38D22; stroke-width: 1.0;"/><text fill="#000000" font-family="sans-serif" font-size="11" lengthAdjust="spacingAndGlyphs" textLength="102" x="1185.5" y="938.5986">addNote(String): void</text><polygon fill="#FFFF44" points="1176.5,944.4336,1180.5,948.4336,1176.5,952.4336,1172.5,948.4336" style="stroke: #B38D22; stroke-width: 1.0;"/><text fill="#000000" font-family="sans-serif" font-size="11" lengthAdjust="spacingAndGlyphs" textLength="237" x="1185.5" y="952.4346">writeTo(IndentingPrintWriter): IndentingPrintWriter</text><!--class nl.talsmasoftware.umldoclet.rendering.ClassPropertyRenderer--><rect fill="#FEFECE" filter="url(#fmu7abj)" height="61.8359" style="stroke: #A80036; stroke-width: 1.5;" width="305" x="1186.5" y="1020"/><ellipse cx="1269.75" cy="1036" fill="#ADD1B2" rx="11" ry="11" style="stroke: #A80036; stroke-width: 1.0;"/><path d="M1272.5156,1031.875 Q1272.6719,1031.6563 1272.8594,1031.5469 Q1273.0469,1031.4375 1273.2656,1031.4375 Q1273.6406,1031.4375 1273.875,1031.6953 Q1274.1094,1031.9531 1274.1094,1032.5625 L1274.1094,1034.0156 Q1274.1094,1034.625 1273.875,1034.8906 Q1273.6406,1035.1563 1273.2656,1035.1563 Q1272.9219,1035.1563 1272.7188,1034.9531 Q1272.5156,1034.7656 1272.4063,1034.25 Q1272.3594,1033.8906 1272.1719,1033.7031 Q1271.8438,1033.3281 1271.2344,1033.1094 Q1270.625,1032.8906 1270,1032.8906 Q1269.2344,1032.8906 1268.6016,1033.2188 Q1267.9688,1033.5469 1267.4766,1034.2969 Q1266.9844,1035.0469 1266.9844,1036.0781 L1266.9844,1037.1719 Q1266.9844,1038.4063 1267.875,1039.2266 Q1268.7656,1040.0469 1270.3594,1040.0469 Q1271.2969,1040.0469 1271.9531,1039.7969 Q1272.3438,1039.6406 1272.7656,1039.2031 Q1273.0313,1038.9375 1273.1797,1038.8594 Q1273.3281,1038.7813 1273.5313,1038.7813 Q1273.8594,1038.7813 1274.1172,1039.0391 Q1274.375,1039.2969 1274.375,1039.6406 Q1274.375,1039.9844 1274.0313,1040.3906 Q1273.5313,1040.9688 1272.7344,1041.2969 Q1271.6563,1041.75 1270.3594,1041.75 Q1268.8438,1041.75 1267.6406,1041.125 Q1266.6563,1040.625 1265.9688,1039.5547 Q1265.2813,1038.4844 1265.2813,1037.2031 L1265.2813,1036.0469 Q1265.2813,1034.7188 1265.8984,1033.5703 Q1266.5156,1032.4219 1267.6094,1031.8047 Q1268.7031,1031.1875 1269.9375,1031.1875 Q1270.6719,1031.1875 1271.3203,1031.3516 Q1271.9688,1031.5156 1272.5156,1031.875 Z "/><text fill="#000000" font-family="sans-serif" font-size="12" lengthAdjust="spacingAndGlyphs" textLength="130" x="1290.25" y="1040.9102">ClassPropertyRenderer</text><line style="stroke: #A80036; stroke-width: 1.5;" x1="1187.5" x2="1490.5" y1="1052" y2="1052"/><line style="stroke: #A80036; stroke-width: 1.5;" x1="1187.5" x2="1490.5" y1="1060" y2="1060"/><polygon fill="#FFFF44" points="1197.5,1067.418,1201.5,1071.418,1197.5,1075.418,1193.5,1071.418" style="stroke: #B38D22; stroke-width: 1.0;"/><text fill="#000000" font-family="sans-serif" font-size="11" lengthAdjust="spacingAndGlyphs" textLength="279" x="1206.5" y="1075.4189">ClassPropertyRenderer(ClassRenderer, ClassDoc, String)</text><path d="M709.61,162.305 C627.159,178.631 528.917,202.424 444,235 C383.64,258.155 320.321,292.642 269.776,322.966 " fill="none" style="stroke: #A80036; stroke-width: 1.0;"/><polygon fill="none" points="708.427,155.404,729.393,158.469,711.091,169.148,708.427,155.404" style="stroke: #A80036; stroke-width: 1.0;"/><path d="M729.438,181.689 C588.713,224.945 394.119,286.093 319,316 C314.791,317.676 310.535,319.417 306.252,321.208 " fill="none" style="stroke: #A80036; stroke-width: 1.0;"/><polygon fill="#A80036" points="301.597,323.172,311.4441,323.3569,306.2034,321.2274,308.3328,315.9867,301.597,323.172" style="stroke: #A80036; stroke-width: 1.0;"/><text fill="#000000" font-family="sans-serif" font-size="13" lengthAdjust="spacingAndGlyphs" textLength="46" x="558" y="265.9951">diagram</text><path d="M955.413,221.309 C991.783,268.683 1034.34,324.123 1059.96,357.49 " fill="none" style="stroke: #A80036; stroke-width: 1.0;"/><polygon fill="none" points="949.724,225.395,943.097,205.268,960.829,216.869,949.724,225.395" style="stroke: #A80036; stroke-width: 1.0;"/><path d="M1068.55,357.28 C1052.56,325.333 1024.94,274.237 994,235 C987.029,226.159 979.307,217.346 971.3,208.815 " fill="none" style="stroke: #A80036; stroke-width: 1.0;"/><polygon fill="#A80036" points="967.852,205.177,971.1411,214.4604,971.292,208.8056,976.9468,208.9564,967.852,205.177" style="stroke: #A80036; stroke-width: 1.0;"/><text fill="#000000" font-family="sans-serif" font-size="13" lengthAdjust="spacingAndGlyphs" textLength="36" x="1053" y="249.4951">parent</text><text fill="#000000" font-family="sans-serif" font-size="13" lengthAdjust="spacingAndGlyphs" textLength="86" x="1028" y="265.8467">previousSibling</text><text fill="#000000" font-family="sans-serif" font-size="13" lengthAdjust="spacingAndGlyphs" textLength="64" x="1039" y="282.1982">nextSibling</text><path d="M752.062,215.71 C681.882,258.152 599.046,308.248 540.995,343.355 " fill="none" style="stroke: #A80036; stroke-width: 1.0;"/><polygon fill="none" points="748.873,209.458,769.609,205.098,756.118,221.438,748.873,209.458" style="stroke: #A80036; stroke-width: 1.0;"/><path d="M1064.63,438.732 C1048.69,481.447 1025.82,542.72 1010.47,583.867 " fill="none" style="stroke: #A80036; stroke-width: 1.0;"/><polygon fill="none" points="1058.18,435.997,1071.73,419.706,1071.29,440.891,1058.18,435.997" style="stroke: #A80036; stroke-width: 1.0;"/><path d="M854.478,224.082 C843.316,254.241 831.047,287.393 820.494,315.91 " fill="none" style="stroke: #A80036; stroke-width: 1.0;"/><polygon fill="none" points="847.934,221.595,861.44,205.268,861.064,226.454,847.934,221.595" style="stroke: #A80036; stroke-width: 1.0;"/><path d="M1064.98,206.112 C1084.78,215.364 1104.48,225.081 1123,235 C1171.88,261.176 1223.82,294.28 1266.42,322.951 " fill="none" style="stroke: #A80036; stroke-width: 1.0;"/><polygon fill="none" points="1062.04,212.466,1046.79,197.754,1067.89,199.745,1062.04,212.466" style="stroke: #A80036; stroke-width: 1.0;"/><path d="M1066.56,176.478 C1194.81,209.392 1370.83,258.779 1521,316 C1541.91,323.969 1563.91,333.719 1584.4,343.426 " fill="none" style="stroke: #A80036; stroke-width: 1.0;"/><polygon fill="none" points="1064.45,183.163,1046.8,171.439,1067.91,169.597,1064.45,183.163" style="stroke: #A80036; stroke-width: 1.0;"/><path d="M1130.38,433.467 C1157.25,458.407 1192.14,490.781 1225.71,521.939 " fill="none" style="stroke: #A80036; stroke-width: 1.0;"/><polygon fill="none" points="1125.45,438.442,1115.55,419.706,1134.97,428.18,1125.45,438.442" style="stroke: #A80036; stroke-width: 1.0;"/><path d="M1323.25,756.642 C1323.13,765.895 1323.35,775.089 1324,784 C1324.71,793.682 1325.8,803.842 1327.07,813.837 " fill="none" style="stroke: #A80036; stroke-width: 1.0;"/><polygon fill="none" points="1316.27,756.102,1324.02,736.38,1330.26,756.629,1316.27,756.102" style="stroke: #A80036; stroke-width: 1.0;"/><path d="M1339.28,813.866 C1339.37,791.359 1339.47,765.952 1339.56,741.367 " fill="none" style="stroke: #A80036; stroke-width: 1.0;"/><polygon fill="#A80036" points="1339.58,736.135,1335.544,745.1189,1339.56,741.135,1343.544,745.1509,1339.58,736.135" style="stroke: #A80036; stroke-width: 1.0;"/><text fill="#000000" font-family="sans-serif" font-size="13" lengthAdjust="spacingAndGlyphs" textLength="36" x="1340" y="780.4951">parent</text><path d="M1339,979.252 C1339,993.845 1339,1007.979 1339,1019.7267 " fill="none" style="stroke: #A80036; stroke-width: 1.0;"/><polygon fill="none" points="1332,979.248,1339,959.248,1346,979.248,1332,979.248" style="stroke: #A80036; stroke-width: 1.0;"/><path d="M1046.67,111.34 C1067.61,114.945 1081.5,122 1081.5,132.5 C1081.5,142.098 1069.9,148.817 1051.91,152.657 " fill="none" style="stroke: #A80036; stroke-width: 1.0;"/><polygon fill="#A80036" points="1046.67,153.664,1056.2628,155.895,1051.5803,152.7211,1054.7542,148.0385,1046.67,153.664" style="stroke: #A80036; stroke-width: 1.0;"/><text fill="#000000" font-family="sans-serif" font-size="13" lengthAdjust="spacingAndGlyphs" textLength="45" x="1087.5" y="137.9951">children</text><text fill="#000000" font-family="sans-serif" font-size="13" lengthAdjust="spacingAndGlyphs" textLength="5" x="1054.4767" y="151.8089">*</text></g></svg>