<?xml version="1.0" encoding="UTF-8" standalone="no"?>
<svg xmlns="http://www.w3.org/2000/svg" contentScriptType="application/ecmascript" contentStyleType="text/css"
     height="1119px" preserveAspectRatio="none" style="width:1840px;height:1119px;" version="1.1"
     viewBox="0 0 1840 1119" width="1840px" zoomAndPan="magnify"><defs><filter height="300%" id="f49zf6s" width="300%" x="-1" y="-1"><feGaussianBlur result="blurOut" stdDeviation="2.0"/><feColorMatrix in="blurOut" result="blurOut2" type="matrix" values="0 0 0 0 0 0 0 0 0 0 0 0 0 0 0 0 0 0 .4 0"/><feOffset dx="4.0" dy="4.0" in="blurOut2" result="blurOut3"/><feBlend in="SourceGraphic" in2="blurOut3" mode="normal"/></filter></defs><g><!--cluster nl.talsmasoftware.umldoclet.rendering--><polygon fill="#FFFFFF" filter="url(#f49zf6s)" points="22,24,298,24,305,47.6094,1833,47.6094,1833,1112,22,1112,22,24" style="stroke: #000000; stroke-width: 2.0;"/><line style="stroke: #000000; stroke-width: 2.0;" x1="22" x2="305" y1="47.6094" y2="47.6094"/><text fill="#000000" font-family="sans-serif" font-size="14" font-weight="bold" lengthAdjust="spacingAndGlyphs" textLength="270" x="26" y="40.5332">nl.talsmasoftware.umldoclet.rendering</text><!--class nl.talsmasoftware.umldoclet.rendering.Renderer--><rect fill="#FEFECE" filter="url(#f49zf6s)" height="144.8516" style="stroke: #A80036; stroke-width: 1.5;" width="317" x="953.5" y="60"/><ellipse cx="1081.75" cy="76" fill="#A9DCDF" rx="11" ry="11" style="stroke: #A80036; stroke-width: 1.0;"/><path d="M1083.9375,77.7656 L1079.7969,77.7656 L1079.375,78.7969 L1079.7969,78.7969 Q1080.4063,78.7969 1080.6719,79.0313 Q1080.9375,79.2656 1080.9375,79.6563 Q1080.9375,80.0313 1080.6719,80.2656 Q1080.4063,80.5 1079.7969,80.5 L1077.5,80.5 Q1076.8906,80.5 1076.6328,80.2656 Q1076.375,80.0313 1076.375,79.6406 Q1076.375,79.2656 1076.6484,79.0234 Q1076.9219,78.7813 1077.5469,78.7969 L1080.2188,72.1406 L1079.1094,72.1406 Q1078.5,72.1406 1078.2344,71.9063 Q1077.9688,71.6719 1077.9688,71.2813 Q1077.9688,70.9063 1078.2344,70.6719 Q1078.5,70.4375 1079.1094,70.4375 L1082.7813,70.4375 L1086.1719,78.7969 Q1086.7656,78.7969 1086.9531,78.9375 Q1087.3438,79.2031 1087.3438,79.6563 Q1087.3438,80.0313 1087.0859,80.2656 Q1086.8281,80.5 1086.2188,80.5 L1083.9219,80.5 Q1083.3125,80.5 1083.0469,80.2656 Q1082.7813,80.0313 1082.7813,79.6406 Q1082.7813,79.2656 1083.0469,79.0313 Q1083.3125,78.7969 1083.9219,78.7969 L1084.3438,78.7969 L1083.9375,77.7656 Z M1083.2188,76.0625 L1081.8594,72.6875 L1080.4844,76.0625 L1083.2188,76.0625 Z "/><text fill="#000000" font-family="sans-serif" font-size="12" font-style="italic" lengthAdjust="spacingAndGlyphs" textLength="52" x="1102.25" y="80.9102">Renderer</text><line style="stroke: #A80036; stroke-width: 1.5;" x1="954.5" x2="1269.5" y1="92" y2="92"/><line style="stroke: #A80036; stroke-width: 1.5;" x1="954.5" x2="1269.5" y1="100" y2="100"/><polygon fill="#FFFF44" points="964.5,107.418,968.5,111.418,964.5,115.418,960.5,111.418" style="stroke: #B38D22; stroke-width: 1.0;"/><text fill="#000000" font-family="sans-serif" font-size="11" lengthAdjust="spacingAndGlyphs" textLength="137" x="973.5" y="115.4189">Renderer(DiagramRenderer)</text><ellipse cx="964.5" cy="126.2539" fill="#84BE84" rx="3" ry="3" style="stroke: #038048; stroke-width: 1.0;"/><text fill="#000000" font-family="sans-serif" font-size="11" lengthAdjust="spacingAndGlyphs" textLength="109" x="973.5" y="129.2549">writeTo(Writer): Writer</text><polygon fill="#FFFF44" points="964.5,135.0898,968.5,139.0898,964.5,143.0898,960.5,139.0898" style="stroke: #B38D22; stroke-width: 1.0;"/><text fill="#000000" font-family="sans-serif" font-size="11" lengthAdjust="spacingAndGlyphs" textLength="276" x="973.5" y="143.0908">writeChildrenTo(IndentingPrintWriter): IndentingPrintWriter</text><polygon fill="#FFFF44" points="964.5,148.9258,968.5,152.9258,964.5,156.9258,960.5,152.9258" style="stroke: #B38D22; stroke-width: 1.0;"/><text fill="#000000" font-family="sans-serif" font-size="11" lengthAdjust="spacingAndGlyphs" textLength="99" x="973.5" y="156.9268">lastChild(): Renderer</text><polygon fill="#FFFF44" points="964.5,162.7617,968.5,166.7617,964.5,170.7617,960.5,166.7617" style="stroke: #B38D22; stroke-width: 1.0;"/><text fill="#000000" font-family="sans-serif" font-size="11" lengthAdjust="spacingAndGlyphs" text-decoration="underline" textLength="291" x="973.5" y="170.7627">writeTypeTo(IndentingPrintWriter, Type): IndentingPrintWriter</text><line style="stroke: #000000; stroke-width: 1.0;" x1="973.5" x2="1264.5" y1="172.7627" y2="172.7627"/><ellipse cx="964.5" cy="181.5977" fill="#84BE84" rx="3" ry="3" style="stroke: #038048; stroke-width: 1.0;"/><text fill="#000000" font-family="sans-serif" font-size="11" lengthAdjust="spacingAndGlyphs" text-decoration="underline" textLength="103" x="973.5" y="184.5986">quoted(String): String</text><line style="stroke: #000000; stroke-width: 1.0;" x1="973.5" x2="1076.5" y1="186.5986" y2="186.5986"/><polygon fill="#FFFF44" points="964.5,190.4336,968.5,194.4336,964.5,198.4336,960.5,194.4336" style="stroke: #B38D22; stroke-width: 1.0;"/><text fill="#000000" font-family="sans-serif" font-size="11" font-style="italic" lengthAdjust="spacingAndGlyphs" textLength="248" x="973.5" y="198.4346">writeTo(IndentingPrintWriter): IndentingPrintWriter</text><!--class nl.talsmasoftware.umldoclet.rendering.ParentAwareRenderer--><rect fill="#FEFECE" filter="url(#f49zf6s)" height="61.8359" style="stroke: #A80036; stroke-width: 1.5;" width="189" x="1021.5" y="364.5"/><ellipse cx="1052.25" cy="380.5" fill="#A9DCDF" rx="11" ry="11" style="stroke: #A80036; stroke-width: 1.0;"/><path d="M1054.4375,382.2656 L1050.2969,382.2656 L1049.875,383.2969 L1050.2969,383.2969 Q1050.9063,383.2969 1051.1719,383.5313 Q1051.4375,383.7656 1051.4375,384.1563 Q1051.4375,384.5313 1051.1719,384.7656 Q1050.9063,385 1050.2969,385 L1048,385 Q1047.3906,385 1047.1328,384.7656 Q1046.875,384.5313 1046.875,384.1406 Q1046.875,383.7656 1047.1484,383.5234 Q1047.4219,383.2813 1048.0469,383.2969 L1050.7188,376.6406 L1049.6094,376.6406 Q1049,376.6406 1048.7344,376.4063 Q1048.4688,376.1719 1048.4688,375.7813 Q1048.4688,375.4063 1048.7344,375.1719 Q1049,374.9375 1049.6094,374.9375 L1053.2813,374.9375 L1056.6719,383.2969 Q1057.2656,383.2969 1057.4531,383.4375 Q1057.8438,383.7031 1057.8438,384.1563 Q1057.8438,384.5313 1057.5859,384.7656 Q1057.3281,385 1056.7188,385 L1054.4219,385 Q1053.8125,385 1053.5469,384.7656 Q1053.2813,384.5313 1053.2813,384.1406 Q1053.2813,383.7656 1053.5469,383.5313 Q1053.8125,383.2969 1054.4219,383.2969 L1054.8438,383.2969 L1054.4375,382.2656 Z M1053.7188,380.5625 L1052.3594,377.1875 L1050.9844,380.5625 L1053.7188,380.5625 Z "/><text fill="#000000" font-family="sans-serif" font-size="12" font-style="italic" lengthAdjust="spacingAndGlyphs" textLength="122" x="1069.75" y="385.4102">ParentAwareRenderer</text><line style="stroke: #A80036; stroke-width: 1.5;" x1="1022.5" x2="1209.5" y1="396.5" y2="396.5"/><line style="stroke: #A80036; stroke-width: 1.5;" x1="1022.5" x2="1209.5" y1="404.5" y2="404.5"/><polygon fill="#FFFF44" points="1032.5,411.918,1036.5,415.918,1032.5,419.918,1028.5,415.918" style="stroke: #B38D22; stroke-width: 1.0;"/><text fill="#000000" font-family="sans-serif" font-size="11" lengthAdjust="spacingAndGlyphs" textLength="163" x="1041.5" y="419.9189">ParentAwareRenderer(Renderer)</text><!--class nl.talsmasoftware.umldoclet.rendering.PackageRenderer--><rect fill="#FEFECE" filter="url(#f49zf6s)" height="89.5078" style="stroke: #A80036; stroke-width: 1.5;" width="270" x="38" y="350.5"/><ellipse cx="118.75" cy="366.5" fill="#ADD1B2" rx="11" ry="11" style="stroke: #A80036; stroke-width: 1.0;"/><path d="M121.5156,362.375 Q121.6719,362.1563 121.8594,362.0469 Q122.0469,361.9375 122.2656,361.9375 Q122.6406,361.9375 122.875,362.1953 Q123.1094,362.4531 123.1094,363.0625 L123.1094,364.5156 Q123.1094,365.125 122.875,365.3906 Q122.6406,365.6563 122.2656,365.6563 Q121.9219,365.6563 121.7188,365.4531 Q121.5156,365.2656 121.4063,364.75 Q121.3594,364.3906 121.1719,364.2031 Q120.8438,363.8281 120.2344,363.6094 Q119.625,363.3906 119,363.3906 Q118.2344,363.3906 117.6016,363.7188 Q116.9688,364.0469 116.4766,364.7969 Q115.9844,365.5469 115.9844,366.5781 L115.9844,367.6719 Q115.9844,368.9063 116.875,369.7266 Q117.7656,370.5469 119.3594,370.5469 Q120.2969,370.5469 120.9531,370.2969 Q121.3438,370.1406 121.7656,369.7031 Q122.0313,369.4375 122.1797,369.3594 Q122.3281,369.2813 122.5313,369.2813 Q122.8594,369.2813 123.1172,369.5391 Q123.375,369.7969 123.375,370.1406 Q123.375,370.4844 123.0313,370.8906 Q122.5313,371.4688 121.7344,371.7969 Q120.6563,372.25 119.3594,372.25 Q117.8438,372.25 116.6406,371.625 Q115.6563,371.125 114.9688,370.0547 Q114.2813,368.9844 114.2813,367.7031 L114.2813,366.5469 Q114.2813,365.2188 114.8984,364.0703 Q115.5156,362.9219 116.6094,362.3047 Q117.7031,361.6875 118.9375,361.6875 Q119.6719,361.6875 120.3203,361.8516 Q120.9688,362.0156 121.5156,362.375 Z "/><text fill="#000000" font-family="sans-serif" font-size="12" lengthAdjust="spacingAndGlyphs" textLength="100" x="139.25" y="371.4102">PackageRenderer</text><line style="stroke: #A80036; stroke-width: 1.5;" x1="39" x2="307" y1="382.5" y2="382.5"/><polygon fill="none" points="49,389.918,53,393.918,49,397.918,45,393.918" style="stroke: #B38D22; stroke-width: 1.0;"/><text fill="#000000" font-family="sans-serif" font-size="11" lengthAdjust="spacingAndGlyphs" textLength="126" x="58" y="397.9189">packageDoc: PackageDoc</text><line style="stroke: #A80036; stroke-width: 1.5;" x1="39" x2="307" y1="404.3359" y2="404.3359"/><polygon fill="#FFFF44" points="49,411.7539,53,415.7539,49,419.7539,45,415.7539" style="stroke: #B38D22; stroke-width: 1.0;"/><text fill="#000000" font-family="sans-serif" font-size="11" lengthAdjust="spacingAndGlyphs" textLength="244" x="58" y="419.7549">PackageRenderer(DiagramRenderer, PackageDoc)</text><polygon fill="#FFFF44" points="49,425.5898,53,429.5898,49,433.5898,45,429.5898" style="stroke: #B38D22; stroke-width: 1.0;"/><text fill="#000000" font-family="sans-serif" font-size="11" lengthAdjust="spacingAndGlyphs" textLength="237" x="58" y="433.5908">writeTo(IndentingPrintWriter): IndentingPrintWriter</text><!--class nl.talsmasoftware.umldoclet.rendering.NoteRenderer--><rect fill="#FEFECE" filter="url(#f49zf6s)" height="89.5078" style="stroke: #A80036; stroke-width: 1.5;" width="263" x="895.5" y="598"/><ellipse cx="983.75" cy="614" fill="#ADD1B2" rx="11" ry="11" style="stroke: #A80036; stroke-width: 1.0;"/><path d="M986.5156,609.875 Q986.6719,609.6563 986.8594,609.5469 Q987.0469,609.4375 987.2656,609.4375 Q987.6406,609.4375 987.875,609.6953 Q988.1094,609.9531 988.1094,610.5625 L988.1094,612.0156 Q988.1094,612.625 987.875,612.8906 Q987.6406,613.1563 987.2656,613.1563 Q986.9219,613.1563 986.7188,612.9531 Q986.5156,612.7656 986.4063,612.25 Q986.3594,611.8906 986.1719,611.7031 Q985.8438,611.3281 985.2344,611.1094 Q984.625,610.8906 984,610.8906 Q983.2344,610.8906 982.6016,611.2188 Q981.9688,611.5469 981.4766,612.2969 Q980.9844,613.0469 980.9844,614.0781 L980.9844,615.1719 Q980.9844,616.4063 981.875,617.2266 Q982.7656,618.0469 984.3594,618.0469 Q985.2969,618.0469 985.9531,617.7969 Q986.3438,617.6406 986.7656,617.2031 Q987.0313,616.9375 987.1797,616.8594 Q987.3281,616.7813 987.5313,616.7813 Q987.8594,616.7813 988.1172,617.0391 Q988.375,617.2969 988.375,617.6406 Q988.375,617.9844 988.0313,618.3906 Q987.5313,618.9688 986.7344,619.2969 Q985.6563,619.75 984.3594,619.75 Q982.8438,619.75 981.6406,619.125 Q980.6563,618.625 979.9688,617.5547 Q979.2813,616.4844 979.2813,615.2031 L979.2813,614.0469 Q979.2813,612.7188 979.8984,611.5703 Q980.5156,610.4219 981.6094,609.8047 Q982.7031,609.1875 983.9375,609.1875 Q984.6719,609.1875 985.3203,609.3516 Q985.9688,609.5156 986.5156,609.875 Z "/><text fill="#000000" font-family="sans-serif" font-size="12" lengthAdjust="spacingAndGlyphs" textLength="78" x="1004.25" y="618.9102">NoteRenderer</text><line style="stroke: #A80036; stroke-width: 1.5;" x1="896.5" x2="1157.5" y1="630" y2="630"/><polygon fill="none" points="906.5,637.418,910.5,641.418,906.5,645.418,902.5,641.418" style="stroke: #B38D22; stroke-width: 1.0;"/><text fill="#000000" font-family="sans-serif" font-size="11" lengthAdjust="spacingAndGlyphs" textLength="55" x="915.5" y="645.4189">note: String</text><line style="stroke: #A80036; stroke-width: 1.5;" x1="896.5" x2="1157.5" y1="651.8359" y2="651.8359"/><polygon fill="#FFFF44" points="906.5,659.2539,910.5,663.2539,906.5,667.2539,902.5,663.2539" style="stroke: #B38D22; stroke-width: 1.0;"/><text fill="#000000" font-family="sans-serif" font-size="11" lengthAdjust="spacingAndGlyphs" textLength="154" x="915.5" y="667.2549">NoteRenderer(Renderer, String)</text><polygon fill="#FFFF44" points="906.5,673.0898,910.5,677.0898,906.5,681.0898,902.5,677.0898" style="stroke: #B38D22; stroke-width: 1.0;"/><text fill="#000000" font-family="sans-serif" font-size="11" lengthAdjust="spacingAndGlyphs" textLength="237" x="915.5" y="681.0908">writeTo(IndentingPrintWriter): IndentingPrintWriter</text><!--class nl.talsmasoftware.umldoclet.rendering.MethodRenderer--><rect fill="#FEFECE" filter="url(#f49zf6s)" height="158.6875" style="stroke: #A80036; stroke-width: 1.5;" width="318" x="343" y="316"/><ellipse cx="451.75" cy="332" fill="#ADD1B2" rx="11" ry="11" style="stroke: #A80036; stroke-width: 1.0;"/><path d="M454.5156,327.875 Q454.6719,327.6563 454.8594,327.5469 Q455.0469,327.4375 455.2656,327.4375 Q455.6406,327.4375 455.875,327.6953 Q456.1094,327.9531 456.1094,328.5625 L456.1094,330.0156 Q456.1094,330.625 455.875,330.8906 Q455.6406,331.1563 455.2656,331.1563 Q454.9219,331.1563 454.7188,330.9531 Q454.5156,330.7656 454.4063,330.25 Q454.3594,329.8906 454.1719,329.7031 Q453.8438,329.3281 453.2344,329.1094 Q452.625,328.8906 452,328.8906 Q451.2344,328.8906 450.6016,329.2188 Q449.9688,329.5469 449.4766,330.2969 Q448.9844,331.0469 448.9844,332.0781 L448.9844,333.1719 Q448.9844,334.4063 449.875,335.2266 Q450.7656,336.0469 452.3594,336.0469 Q453.2969,336.0469 453.9531,335.7969 Q454.3438,335.6406 454.7656,335.2031 Q455.0313,334.9375 455.1797,334.8594 Q455.3281,334.7813 455.5313,334.7813 Q455.8594,334.7813 456.1172,335.0391 Q456.375,335.2969 456.375,335.6406 Q456.375,335.9844 456.0313,336.3906 Q455.5313,336.9688 454.7344,337.2969 Q453.6563,337.75 452.3594,337.75 Q450.8438,337.75 449.6406,337.125 Q448.6563,336.625 447.9688,335.5547 Q447.2813,334.4844 447.2813,333.2031 L447.2813,332.0469 Q447.2813,330.7188 447.8984,329.5703 Q448.5156,328.4219 449.6094,327.8047 Q450.7031,327.1875 451.9375,327.1875 Q452.6719,327.1875 453.3203,327.3516 Q453.9688,327.5156 454.5156,327.875 Z "/><text fill="#000000" font-family="sans-serif" font-size="12" lengthAdjust="spacingAndGlyphs" textLength="92" x="472.25" y="336.9102">MethodRenderer</text><line style="stroke: #A80036; stroke-width: 1.5;" x1="344" x2="660" y1="348" y2="348"/><polygon fill="none" points="354,355.418,358,359.418,354,363.418,350,359.418" style="stroke: #B38D22; stroke-width: 1.0;"/><text fill="#000000" font-family="sans-serif" font-size="11" lengthAdjust="spacingAndGlyphs" textLength="170" x="363" y="363.4189">methodDoc: ExecutableMemberDoc</text><line style="stroke: #A80036; stroke-width: 1.5;" x1="344" x2="660" y1="369.8359" y2="369.8359"/><polygon fill="#FFFF44" points="354,377.2539,358,381.2539,354,385.2539,350,381.2539" style="stroke: #B38D22; stroke-width: 1.0;"/><text fill="#000000" font-family="sans-serif" font-size="11" lengthAdjust="spacingAndGlyphs" textLength="288" x="363" y="385.2549">MethodRenderer(DiagramRenderer, ExecutableMemberDoc)</text><polygon fill="#FFFF44" points="354,391.0898,358,395.0898,354,399.0898,350,395.0898" style="stroke: #B38D22; stroke-width: 1.0;"/><text fill="#000000" font-family="sans-serif" font-size="11" lengthAdjust="spacingAndGlyphs" textLength="121" x="363" y="399.0908">includeMethod(): boolean</text><polygon fill="#FFFF44" points="354,404.9258,358,408.9258,354,412.9258,350,408.9258" style="stroke: #B38D22; stroke-width: 1.0;"/><text fill="#000000" font-family="sans-serif" font-size="11" lengthAdjust="spacingAndGlyphs" textLength="264" x="363" y="412.9268">writeNameTo(IndentingPrintWriter): IndentingPrintWriter</text><polygon fill="#FFFF44" points="354,418.7617,358,422.7617,354,426.7617,350,422.7617" style="stroke: #B38D22; stroke-width: 1.0;"/><text fill="#000000" font-family="sans-serif" font-size="11" lengthAdjust="spacingAndGlyphs" textLength="292" x="363" y="426.7627">writeParametersTo(IndentingPrintWriter): IndentingPrintWriter</text><polygon fill="#FFFF44" points="354,432.5977,358,436.5977,354,440.5977,350,436.5977" style="stroke: #B38D22; stroke-width: 1.0;"/><text fill="#000000" font-family="sans-serif" font-size="11" lengthAdjust="spacingAndGlyphs" textLength="237" x="363" y="440.5986">writeTo(IndentingPrintWriter): IndentingPrintWriter</text><polygon fill="#FFFF44" points="354,446.4336,358,450.4336,354,454.4336,350,450.4336" style="stroke: #B38D22; stroke-width: 1.0;"/><text fill="#000000" font-family="sans-serif" font-size="11" lengthAdjust="spacingAndGlyphs" textLength="110" x="363" y="454.4346">propertyName(): String</text><polygon fill="#FFFF44" points="354,460.2695,358,464.2695,354,468.2695,350,464.2695" style="stroke: #B38D22; stroke-width: 1.0;"/><text fill="#000000" font-family="sans-serif" font-size="11" lengthAdjust="spacingAndGlyphs" textLength="103" x="363" y="468.2705">propertyType(): Type</text><!--class nl.talsmasoftware.umldoclet.rendering.LegacyTag--><rect fill="#FEFECE" filter="url(#f49zf6s)" height="117.1797" style="stroke: #A80036; stroke-width: 1.5;" width="92" x="430" y="74"/><ellipse cx="445" cy="90" fill="#EB937F" rx="11" ry="11" style="stroke: #A80036; stroke-width: 1.0;"/><path d="M443.8594,90.7969 L443.8594,93.2969 L448.1875,93.2969 L448.1875,92.375 Q448.1875,91.7656 448.4297,91.5 Q448.6719,91.2344 449.0469,91.2344 Q449.4219,91.2344 449.6563,91.5 Q449.8906,91.7656 449.8906,92.375 L449.8906,95 L441.8906,95 Q441.2656,95 441.0078,94.7656 Q440.75,94.5313 440.75,94.1406 Q440.75,93.7656 441.0156,93.5313 Q441.2813,93.2969 441.8906,93.2969 L442.1563,93.2969 L442.1563,86.6406 L441.8906,86.6406 Q441.2656,86.6406 441.0078,86.4063 Q440.75,86.1719 440.75,85.7813 Q440.75,85.4063 441.0078,85.1719 Q441.2656,84.9375 441.8906,84.9375 L449.5156,84.9375 L449.5156,87.5313 Q449.5156,88.1406 449.2891,88.3984 Q449.0625,88.6563 448.6719,88.6563 Q448.2969,88.6563 448.0625,88.3984 Q447.8281,88.1406 447.8281,87.5313 L447.8281,86.6406 L443.8594,86.6406 L443.8594,89.0938 L445.3438,89.0938 Q445.3438,88.4375 445.4688,88.25 Q445.7344,87.8438 446.2031,87.8438 Q446.5781,87.8438 446.8125,88.1016 Q447.0469,88.3594 447.0469,88.9688 L447.0469,90.9375 Q447.0469,91.4844 446.9219,91.6719 Q446.6563,92.0625 446.2031,92.0625 Q445.7344,92.0625 445.4688,91.6563 Q445.3438,91.4688 445.3438,90.7969 L443.8594,90.7969 Z "/><text fill="#000000" font-family="sans-serif" font-size="12" lengthAdjust="spacingAndGlyphs" textLength="60" x="459" y="94.9102">LegacyTag</text><line style="stroke: #A80036; stroke-width: 1.5;" x1="431" x2="521" y1="106" y2="106"/><ellipse cx="441" cy="118.418" fill="none" rx="3" ry="3" style="stroke: #038048; stroke-width: 1.0;"/><text fill="#000000" font-family="sans-serif" font-size="11" lengthAdjust="spacingAndGlyphs" text-decoration="underline" textLength="46" x="450" y="121.4189">EXTENDS</text><line style="stroke: #000000; stroke-width: 1.0;" x1="450" x2="496" y1="123.4189" y2="123.4189"/><ellipse cx="441" cy="132.2539" fill="none" rx="3" ry="3" style="stroke: #038048; stroke-width: 1.0;"/><text fill="#000000" font-family="sans-serif" font-size="11" lengthAdjust="spacingAndGlyphs" text-decoration="underline" textLength="62" x="450" y="135.2549">IMPLEMENTS</text><line style="stroke: #000000; stroke-width: 1.0;" x1="450" x2="512" y1="137.2549" y2="137.2549"/><ellipse cx="441" cy="146.0898" fill="none" rx="3" ry="3" style="stroke: #038048; stroke-width: 1.0;"/><text fill="#000000" font-family="sans-serif" font-size="11" lengthAdjust="spacingAndGlyphs" text-decoration="underline" textLength="37" x="450" y="149.0908">ASSOC</text><line style="stroke: #000000; stroke-width: 1.0;" x1="450" x2="487" y1="151.0908" y2="151.0908"/><ellipse cx="441" cy="159.9258" fill="none" rx="3" ry="3" style="stroke: #038048; stroke-width: 1.0;"/><text fill="#000000" font-family="sans-serif" font-size="11" lengthAdjust="spacingAndGlyphs" text-decoration="underline" textLength="60" x="450" y="162.9268">NAVASSOC</text><line style="stroke: #000000; stroke-width: 1.0;" x1="450" x2="510" y1="164.9268" y2="164.9268"/><ellipse cx="441" cy="173.7617" fill="none" rx="3" ry="3" style="stroke: #038048; stroke-width: 1.0;"/><text fill="#000000" font-family="sans-serif" font-size="11" lengthAdjust="spacingAndGlyphs" text-decoration="underline" textLength="39" x="450" y="176.7627">DEPEND</text><line style="stroke: #000000; stroke-width: 1.0;" x1="450" x2="489" y1="178.7627" y2="178.7627"/><line style="stroke: #A80036; stroke-width: 1.5;" x1="431" x2="521" y1="183.1797" y2="183.1797"/><!--class nl.talsmasoftware.umldoclet.rendering.FieldRenderer--><rect fill="#FEFECE" filter="url(#f49zf6s)" height="131.0156" style="stroke: #A80036; stroke-width: 1.5;" width="290" x="696" y="330"/><ellipse cx="797.25" cy="346" fill="#ADD1B2" rx="11" ry="11" style="stroke: #A80036; stroke-width: 1.0;"/><path d="M800.0156,341.875 Q800.1719,341.6563 800.3594,341.5469 Q800.5469,341.4375 800.7656,341.4375 Q801.1406,341.4375 801.375,341.6953 Q801.6094,341.9531 801.6094,342.5625 L801.6094,344.0156 Q801.6094,344.625 801.375,344.8906 Q801.1406,345.1563 800.7656,345.1563 Q800.4219,345.1563 800.2188,344.9531 Q800.0156,344.7656 799.9063,344.25 Q799.8594,343.8906 799.6719,343.7031 Q799.3438,343.3281 798.7344,343.1094 Q798.125,342.8906 797.5,342.8906 Q796.7344,342.8906 796.1016,343.2188 Q795.4688,343.5469 794.9766,344.2969 Q794.4844,345.0469 794.4844,346.0781 L794.4844,347.1719 Q794.4844,348.4063 795.375,349.2266 Q796.2656,350.0469 797.8594,350.0469 Q798.7969,350.0469 799.4531,349.7969 Q799.8438,349.6406 800.2656,349.2031 Q800.5313,348.9375 800.6797,348.8594 Q800.8281,348.7813 801.0313,348.7813 Q801.3594,348.7813 801.6172,349.0391 Q801.875,349.2969 801.875,349.6406 Q801.875,349.9844 801.5313,350.3906 Q801.0313,350.9688 800.2344,351.2969 Q799.1563,351.75 797.8594,351.75 Q796.3438,351.75 795.1406,351.125 Q794.1563,350.625 793.4688,349.5547 Q792.7813,348.4844 792.7813,347.2031 L792.7813,346.0469 Q792.7813,344.7188 793.3984,343.5703 Q794.0156,342.4219 795.1094,341.8047 Q796.2031,341.1875 797.4375,341.1875 Q798.1719,341.1875 798.8203,341.3516 Q799.4688,341.5156 800.0156,341.875 Z "/><text fill="#000000" font-family="sans-serif" font-size="12" lengthAdjust="spacingAndGlyphs" textLength="79" x="817.75" y="350.9102">FieldRenderer</text><line style="stroke: #A80036; stroke-width: 1.5;" x1="697" x2="985" y1="362" y2="362"/><polygon fill="none" points="707,369.418,711,373.418,707,377.418,703,373.418" style="stroke: #B38D22; stroke-width: 1.0;"/><text fill="#000000" font-family="sans-serif" font-size="11" lengthAdjust="spacingAndGlyphs" textLength="86" x="716" y="377.4189">fieldDoc: FieldDoc</text><line style="stroke: #A80036; stroke-width: 1.5;" x1="697" x2="985" y1="383.8359" y2="383.8359"/><polygon fill="#FFFF44" points="707,391.2539,711,395.2539,707,399.2539,703,395.2539" style="stroke: #B38D22; stroke-width: 1.0;"/><text fill="#000000" font-family="sans-serif" font-size="11" lengthAdjust="spacingAndGlyphs" textLength="206" x="716" y="399.2549">FieldRenderer(DiagramRenderer, FieldDoc)</text><polygon fill="#FFFF44" points="707,405.0898,711,409.0898,707,413.0898,703,409.0898" style="stroke: #B38D22; stroke-width: 1.0;"/><text fill="#000000" font-family="sans-serif" font-size="11" lengthAdjust="spacingAndGlyphs" textLength="132" x="716" y="413.0908">includeFieldType(): boolean</text><polygon fill="#FFFF44" points="707,418.9258,711,422.9258,707,426.9258,703,422.9258" style="stroke: #B38D22; stroke-width: 1.0;"/><text fill="#000000" font-family="sans-serif" font-size="11" lengthAdjust="spacingAndGlyphs" textLength="108" x="716" y="426.9268">includeField(): boolean</text><polygon fill="#FFFF44" points="707,432.7617,711,436.7617,707,440.7617,703,436.7617" style="stroke: #B38D22; stroke-width: 1.0;"/><text fill="#000000" font-family="sans-serif" font-size="11" lengthAdjust="spacingAndGlyphs" textLength="264" x="716" y="440.7627">writeNameTo(IndentingPrintWriter): IndentingPrintWriter</text><polygon fill="#FFFF44" points="707,446.5977,711,450.5977,707,454.5977,703,450.5977" style="stroke: #B38D22; stroke-width: 1.0;"/><text fill="#000000" font-family="sans-serif" font-size="11" lengthAdjust="spacingAndGlyphs" textLength="237" x="716" y="454.5986">writeTo(IndentingPrintWriter): IndentingPrintWriter</text><!--class nl.talsmasoftware.umldoclet.rendering.DiagramRenderer--><rect fill="#FEFECE" filter="url(#f49zf6s)" height="131.0156" style="stroke: #A80036; stroke-width: 1.5;" width="273" x="1245.5" y="330"/><ellipse cx="1327.75" cy="346" fill="#ADD1B2" rx="11" ry="11" style="stroke: #A80036; stroke-width: 1.0;"/><path d="M1330.5156,341.875 Q1330.6719,341.6563 1330.8594,341.5469 Q1331.0469,341.4375 1331.2656,341.4375 Q1331.6406,341.4375 1331.875,341.6953 Q1332.1094,341.9531 1332.1094,342.5625 L1332.1094,344.0156 Q1332.1094,344.625 1331.875,344.8906 Q1331.6406,345.1563 1331.2656,345.1563 Q1330.9219,345.1563 1330.7188,344.9531 Q1330.5156,344.7656 1330.4063,344.25 Q1330.3594,343.8906 1330.1719,343.7031 Q1329.8438,343.3281 1329.2344,343.1094 Q1328.625,342.8906 1328,342.8906 Q1327.2344,342.8906 1326.6016,343.2188 Q1325.9688,343.5469 1325.4766,344.2969 Q1324.9844,345.0469 1324.9844,346.0781 L1324.9844,347.1719 Q1324.9844,348.4063 1325.875,349.2266 Q1326.7656,350.0469 1328.3594,350.0469 Q1329.2969,350.0469 1329.9531,349.7969 Q1330.3438,349.6406 1330.7656,349.2031 Q1331.0313,348.9375 1331.1797,348.8594 Q1331.3281,348.7813 1331.5313,348.7813 Q1331.8594,348.7813 1332.1172,349.0391 Q1332.375,349.2969 1332.375,349.6406 Q1332.375,349.9844 1332.0313,350.3906 Q1331.5313,350.9688 1330.7344,351.2969 Q1329.6563,351.75 1328.3594,351.75 Q1326.8438,351.75 1325.6406,351.125 Q1324.6563,350.625 1323.9688,349.5547 Q1323.2813,348.4844 1323.2813,347.2031 L1323.2813,346.0469 Q1323.2813,344.7188 1323.8984,343.5703 Q1324.5156,342.4219 1325.6094,341.8047 Q1326.7031,341.1875 1327.9375,341.1875 Q1328.6719,341.1875 1329.3203,341.3516 Q1329.9688,341.5156 1330.5156,341.875 Z "/><text fill="#000000" font-family="sans-serif" font-size="12" lengthAdjust="spacingAndGlyphs" textLength="100" x="1348.25" y="350.9102">DiagramRenderer</text><line style="stroke: #A80036; stroke-width: 1.5;" x1="1246.5" x2="1517.5" y1="362" y2="362"/><polygon fill="none" points="1256.5,369.418,1260.5,373.418,1256.5,377.418,1252.5,373.418" style="stroke: #B38D22; stroke-width: 1.0;"/><text fill="#000000" font-family="sans-serif" font-size="11" lengthAdjust="spacingAndGlyphs" textLength="118" x="1265.5" y="377.4189">config: UMLDocletConfig</text><line style="stroke: #A80036; stroke-width: 1.5;" x1="1246.5" x2="1517.5" y1="383.8359" y2="383.8359"/><ellipse cx="1256.5" cy="396.2539" fill="#84BE84" rx="3" ry="3" style="stroke: #038048; stroke-width: 1.0;"/><text fill="#000000" font-family="sans-serif" font-size="11" lengthAdjust="spacingAndGlyphs" textLength="174" x="1265.5" y="399.2549">DiagramRenderer(UMLDocletConfig)</text><ellipse cx="1256.5" cy="410.0898" fill="#84BE84" rx="3" ry="3" style="stroke: #038048; stroke-width: 1.0;"/><text fill="#000000" font-family="sans-serif" font-size="11" lengthAdjust="spacingAndGlyphs" textLength="189" x="1265.5" y="413.0908">addClass(ClassDoc): DiagramRenderer</text><ellipse cx="1256.5" cy="423.9258" fill="#84BE84" rx="3" ry="3" style="stroke: #038048; stroke-width: 1.0;"/><text fill="#000000" font-family="sans-serif" font-size="11" lengthAdjust="spacingAndGlyphs" textLength="217" x="1265.5" y="426.9268">addPackage(PackageDoc): DiagramRenderer</text><ellipse cx="1256.5" cy="437.7617" fill="#84BE84" rx="3" ry="3" style="stroke: #038048; stroke-width: 1.0;"/><text fill="#000000" font-family="sans-serif" font-size="11" lengthAdjust="spacingAndGlyphs" textLength="247" x="1265.5" y="440.7627">addDependencyDiagram(Object): DiagramRenderer</text><polygon fill="#FFFF44" points="1256.5,446.5977,1260.5,450.5977,1256.5,454.5977,1252.5,450.5977" style="stroke: #B38D22; stroke-width: 1.0;"/><text fill="#000000" font-family="sans-serif" font-size="11" lengthAdjust="spacingAndGlyphs" textLength="237" x="1265.5" y="454.5986">writeTo(IndentingPrintWriter): IndentingPrintWriter</text><!--class nl.talsmasoftware.umldoclet.rendering.CommandRenderer--><rect fill="#FEFECE" filter="url(#f49zf6s)" height="89.5078" style="stroke: #A80036; stroke-width: 1.5;" width="263" x="1553.5" y="350.5"/><ellipse cx="1625.25" cy="366.5" fill="#ADD1B2" rx="11" ry="11" style="stroke: #A80036; stroke-width: 1.0;"/><path d="M1628.0156,362.375 Q1628.1719,362.1563 1628.3594,362.0469 Q1628.5469,361.9375 1628.7656,361.9375 Q1629.1406,361.9375 1629.375,362.1953 Q1629.6094,362.4531 1629.6094,363.0625 L1629.6094,364.5156 Q1629.6094,365.125 1629.375,365.3906 Q1629.1406,365.6563 1628.7656,365.6563 Q1628.4219,365.6563 1628.2188,365.4531 Q1628.0156,365.2656 1627.9063,364.75 Q1627.8594,364.3906 1627.6719,364.2031 Q1627.3438,363.8281 1626.7344,363.6094 Q1626.125,363.3906 1625.5,363.3906 Q1624.7344,363.3906 1624.1016,363.7188 Q1623.4688,364.0469 1622.9766,364.7969 Q1622.4844,365.5469 1622.4844,366.5781 L1622.4844,367.6719 Q1622.4844,368.9063 1623.375,369.7266 Q1624.2656,370.5469 1625.8594,370.5469 Q1626.7969,370.5469 1627.4531,370.2969 Q1627.8438,370.1406 1628.2656,369.7031 Q1628.5313,369.4375 1628.6797,369.3594 Q1628.8281,369.2813 1629.0313,369.2813 Q1629.3594,369.2813 1629.6172,369.5391 Q1629.875,369.7969 1629.875,370.1406 Q1629.875,370.4844 1629.5313,370.8906 Q1629.0313,371.4688 1628.2344,371.7969 Q1627.1563,372.25 1625.8594,372.25 Q1624.3438,372.25 1623.1406,371.625 Q1622.1563,371.125 1621.4688,370.0547 Q1620.7813,368.9844 1620.7813,367.7031 L1620.7813,366.5469 Q1620.7813,365.2188 1621.3984,364.0703 Q1622.0156,362.9219 1623.1094,362.3047 Q1624.2031,361.6875 1625.4375,361.6875 Q1626.1719,361.6875 1626.8203,361.8516 Q1627.4688,362.0156 1628.0156,362.375 Z "/><text fill="#000000" font-family="sans-serif" font-size="12" lengthAdjust="spacingAndGlyphs" textLength="111" x="1645.75" y="371.4102">CommandRenderer</text><line style="stroke: #A80036; stroke-width: 1.5;" x1="1554.5" x2="1815.5" y1="382.5" y2="382.5"/><polygon fill="none" points="1564.5,389.918,1568.5,393.918,1564.5,397.918,1560.5,393.918" style="stroke: #B38D22; stroke-width: 1.0;"/><text fill="#000000" font-family="sans-serif" font-size="11" lengthAdjust="spacingAndGlyphs" textLength="80" x="1573.5" y="397.9189">command: String</text><line style="stroke: #A80036; stroke-width: 1.5;" x1="1554.5" x2="1815.5" y1="404.3359" y2="404.3359"/><polygon fill="#FFFF44" points="1564.5,411.7539,1568.5,415.7539,1564.5,419.7539,1560.5,415.7539" style="stroke: #B38D22; stroke-width: 1.0;"/><text fill="#000000" font-family="sans-serif" font-size="11" lengthAdjust="spacingAndGlyphs" textLength="218" x="1573.5" y="419.7549">CommandRenderer(DiagramRenderer, String)</text><polygon fill="#FFFF44" points="1564.5,425.5898,1568.5,429.5898,1564.5,433.5898,1560.5,429.5898" style="stroke: #B38D22; stroke-width: 1.0;"/><text fill="#000000" font-family="sans-serif" font-size="11" lengthAdjust="spacingAndGlyphs" textLength="237" x="1573.5" y="433.5908">writeTo(IndentingPrintWriter): IndentingPrintWriter</text><!--class nl.talsmasoftware.umldoclet.rendering.ClassRenderer--><rect fill="#FEFECE" filter="url(#f49zf6s)" height="214.0313" style="stroke: #A80036; stroke-width: 1.5;" width="359" x="1193.5" y="536"/><ellipse cx="1326.25" cy="552" fill="#ADD1B2" rx="11" ry="11" style="stroke: #A80036; stroke-width: 1.0;"/><path d="M1329.0156,547.875 Q1329.1719,547.6563 1329.3594,547.5469 Q1329.5469,547.4375 1329.7656,547.4375 Q1330.1406,547.4375 1330.375,547.6953 Q1330.6094,547.9531 1330.6094,548.5625 L1330.6094,550.0156 Q1330.6094,550.625 1330.375,550.8906 Q1330.1406,551.1563 1329.7656,551.1563 Q1329.4219,551.1563 1329.2188,550.9531 Q1329.0156,550.7656 1328.9063,550.25 Q1328.8594,549.8906 1328.6719,549.7031 Q1328.3438,549.3281 1327.7344,549.1094 Q1327.125,548.8906 1326.5,548.8906 Q1325.7344,548.8906 1325.1016,549.2188 Q1324.4688,549.5469 1323.9766,550.2969 Q1323.4844,551.0469 1323.4844,552.0781 L1323.4844,553.1719 Q1323.4844,554.4063 1324.375,555.2266 Q1325.2656,556.0469 1326.8594,556.0469 Q1327.7969,556.0469 1328.4531,555.7969 Q1328.8438,555.6406 1329.2656,555.2031 Q1329.5313,554.9375 1329.6797,554.8594 Q1329.8281,554.7813 1330.0313,554.7813 Q1330.3594,554.7813 1330.6172,555.0391 Q1330.875,555.2969 1330.875,555.6406 Q1330.875,555.9844 1330.5313,556.3906 Q1330.0313,556.9688 1329.2344,557.2969 Q1328.1563,557.75 1326.8594,557.75 Q1325.3438,557.75 1324.1406,557.125 Q1323.1563,556.625 1322.4688,555.5547 Q1321.7813,554.4844 1321.7813,553.2031 L1321.7813,552.0469 Q1321.7813,550.7188 1322.3984,549.5703 Q1323.0156,548.4219 1324.1094,547.8047 Q1325.2031,547.1875 1326.4375,547.1875 Q1327.1719,547.1875 1327.8203,547.3516 Q1328.4688,547.5156 1329.0156,547.875 Z "/><text fill="#000000" font-family="sans-serif" font-size="12" lengthAdjust="spacingAndGlyphs" textLength="85" x="1346.75" y="556.9102">ClassRenderer</text><line style="stroke: #A80036; stroke-width: 1.5;" x1="1194.5" x2="1551.5" y1="568" y2="568"/><polygon fill="none" points="1204.5,575.418,1208.5,579.418,1204.5,583.418,1200.5,579.418" style="stroke: #B38D22; stroke-width: 1.0;"/><text fill="#000000" font-family="sans-serif" font-size="11" lengthAdjust="spacingAndGlyphs" textLength="97" x="1213.5" y="583.4189">classDoc: ClassDoc</text><line style="stroke: #A80036; stroke-width: 1.5;" x1="1194.5" x2="1551.5" y1="589.8359" y2="589.8359"/><polygon fill="#FFFF44" points="1204.5,597.2539,1208.5,601.2539,1204.5,605.2539,1200.5,601.2539" style="stroke: #B38D22; stroke-width: 1.0;"/><text fill="#000000" font-family="sans-serif" font-size="11" lengthAdjust="spacingAndGlyphs" textLength="177" x="1213.5" y="605.2549">ClassRenderer(Renderer, ClassDoc)</text><polygon fill="#FFFF44" points="1204.5,611.0898,1208.5,615.0898,1204.5,619.0898,1200.5,615.0898" style="stroke: #B38D22; stroke-width: 1.0;"/><text fill="#000000" font-family="sans-serif" font-size="11" lengthAdjust="spacingAndGlyphs" textLength="82" x="1213.5" y="619.0908">umlType(): String</text><polygon fill="#FFFF44" points="1204.5,624.9258,1208.5,628.9258,1204.5,632.9258,1200.5,628.9258" style="stroke: #B38D22; stroke-width: 1.0;"/><text fill="#000000" font-family="sans-serif" font-size="11" lengthAdjust="spacingAndGlyphs" text-decoration="underline" textLength="140" x="1213.5" y="632.9268">umlTypeOf(ClassDoc): String</text><line style="stroke: #000000; stroke-width: 1.0;" x1="1213.5" x2="1353.5" y1="634.9268" y2="634.9268"/><polygon fill="#FFFF44" points="1204.5,638.7617,1208.5,642.7617,1204.5,646.7617,1200.5,642.7617" style="stroke: #B38D22; stroke-width: 1.0;"/><text fill="#000000" font-family="sans-serif" font-size="11" lengthAdjust="spacingAndGlyphs" textLength="281" x="1213.5" y="646.7627">writeGenericsTo(IndentingPrintWriter): IndentingPrintWriter</text><polygon fill="#FFFF44" points="1204.5,652.5977,1208.5,656.5977,1204.5,660.5977,1200.5,656.5977" style="stroke: #B38D22; stroke-width: 1.0;"/><text fill="#000000" font-family="sans-serif" font-size="11" lengthAdjust="spacingAndGlyphs" text-decoration="underline" textLength="333" x="1213.5" y="660.5986">writeGenericsOf(ClassDoc, IndentingPrintWriter): IndentingPrintWriter</text><line style="stroke: #000000; stroke-width: 1.0;" x1="1213.5" x2="1546.5" y1="662.5986" y2="662.5986"/><polygon fill="#FFFF44" points="1204.5,666.4336,1208.5,670.4336,1204.5,674.4336,1200.5,670.4336" style="stroke: #B38D22; stroke-width: 1.0;"/><text fill="#000000" font-family="sans-serif" font-size="11" lengthAdjust="spacingAndGlyphs" textLength="265" x="1213.5" y="674.4346">writeNotesTo(IndentingPrintWriter): IndentingPrintWriter</text><polygon fill="#FFFF44" points="1204.5,680.2695,1208.5,684.2695,1204.5,688.2695,1200.5,684.2695" style="stroke: #B38D22; stroke-width: 1.0;"/><text fill="#000000" font-family="sans-serif" font-size="11" lengthAdjust="spacingAndGlyphs" textLength="68" x="1213.5" y="688.2705">name(): String</text><polygon fill="#FFFF44" points="1204.5,694.1055,1208.5,698.1055,1204.5,702.1055,1200.5,698.1055" style="stroke: #B38D22; stroke-width: 1.0;"/><text fill="#000000" font-family="sans-serif" font-size="11" lengthAdjust="spacingAndGlyphs" textLength="108" x="1213.5" y="702.1064">nameOf(String): String</text><polygon fill="#FFFF44" points="1204.5,707.9414,1208.5,711.9414,1204.5,715.9414,1200.5,711.9414" style="stroke: #B38D22; stroke-width: 1.0;"/><text fill="#000000" font-family="sans-serif" font-size="11" lengthAdjust="spacingAndGlyphs" textLength="229" x="1213.5" y="715.9424">simplifyClassnameWithinPackage(String): String</text><polygon fill="#FFFF44" points="1204.5,721.7773,1208.5,725.7773,1204.5,729.7773,1200.5,725.7773" style="stroke: #B38D22; stroke-width: 1.0;"/><text fill="#000000" font-family="sans-serif" font-size="11" lengthAdjust="spacingAndGlyphs" textLength="264" x="1213.5" y="729.7783">writeNameTo(IndentingPrintWriter): IndentingPrintWriter</text><polygon fill="#FFFF44" points="1204.5,735.6133,1208.5,739.6133,1204.5,743.6133,1200.5,739.6133" style="stroke: #B38D22; stroke-width: 1.0;"/><text fill="#000000" font-family="sans-serif" font-size="11" lengthAdjust="spacingAndGlyphs" textLength="237" x="1213.5" y="743.6143">writeTo(IndentingPrintWriter): IndentingPrintWriter</text><!--class nl.talsmasoftware.umldoclet.rendering.ClassReferenceRenderer--><rect fill="#FEFECE" filter="url(#f49zf6s)" height="144.8516" style="stroke: #A80036; stroke-width: 1.5;" width="347" x="1198.5" y="828"/><ellipse cx="1296.75" cy="844" fill="#ADD1B2" rx="11" ry="11" style="stroke: #A80036; stroke-width: 1.0;"/><path d="M1299.5156,839.875 Q1299.6719,839.6563 1299.8594,839.5469 Q1300.0469,839.4375 1300.2656,839.4375 Q1300.6406,839.4375 1300.875,839.6953 Q1301.1094,839.9531 1301.1094,840.5625 L1301.1094,842.0156 Q1301.1094,842.625 1300.875,842.8906 Q1300.6406,843.1563 1300.2656,843.1563 Q1299.9219,843.1563 1299.7188,842.9531 Q1299.5156,842.7656 1299.4063,842.25 Q1299.3594,841.8906 1299.1719,841.7031 Q1298.8438,841.3281 1298.2344,841.1094 Q1297.625,840.8906 1297,840.8906 Q1296.2344,840.8906 1295.6016,841.2188 Q1294.9688,841.5469 1294.4766,842.2969 Q1293.9844,843.0469 1293.9844,844.0781 L1293.9844,845.1719 Q1293.9844,846.4063 1294.875,847.2266 Q1295.7656,848.0469 1297.3594,848.0469 Q1298.2969,848.0469 1298.9531,847.7969 Q1299.3438,847.6406 1299.7656,847.2031 Q1300.0313,846.9375 1300.1797,846.8594 Q1300.3281,846.7813 1300.5313,846.7813 Q1300.8594,846.7813 1301.1172,847.0391 Q1301.375,847.2969 1301.375,847.6406 Q1301.375,847.9844 1301.0313,848.3906 Q1300.5313,848.9688 1299.7344,849.2969 Q1298.6563,849.75 1297.3594,849.75 Q1295.8438,849.75 1294.6406,849.125 Q1293.6563,848.625 1292.9688,847.5547 Q1292.2813,846.4844 1292.2813,845.2031 L1292.2813,844.0469 Q1292.2813,842.7188 1292.8984,841.5703 Q1293.5156,840.4219 1294.6094,839.8047 Q1295.7031,839.1875 1296.9375,839.1875 Q1297.6719,839.1875 1298.3203,839.3516 Q1298.9688,839.5156 1299.5156,839.875 Z "/><text fill="#000000" font-family="sans-serif" font-size="12" lengthAdjust="spacingAndGlyphs" textLength="142" x="1317.25" y="848.9102">ClassReferenceRenderer</text><line style="stroke: #A80036; stroke-width: 1.5;" x1="1199.5" x2="1544.5" y1="860" y2="860"/><polygon fill="none" points="1209.5,867.418,1213.5,871.418,1209.5,875.418,1205.5,871.418" style="stroke: #B38D22; stroke-width: 1.0;"/><text fill="#000000" font-family="sans-serif" font-size="11" lengthAdjust="spacingAndGlyphs" textLength="105" x="1218.5" y="875.4189">reference: Reference</text><line style="stroke: #A80036; stroke-width: 1.5;" x1="1199.5" x2="1544.5" y1="881.8359" y2="881.8359"/><polygon fill="#FFFF44" points="1209.5,889.2539,1213.5,893.2539,1209.5,897.2539,1205.5,893.2539" style="stroke: #B38D22; stroke-width: 1.0;"/><text fill="#000000" font-family="sans-serif" font-size="11" lengthAdjust="spacingAndGlyphs" textLength="271" x="1218.5" y="897.2549">ClassReferenceRenderer(ClassRenderer, String, String)</text><polygon fill="#FFFF44" points="1209.5,903.0898,1213.5,907.0898,1209.5,911.0898,1205.5,907.0898" style="stroke: #B38D22; stroke-width: 1.0;"/><text fill="#000000" font-family="sans-serif" font-size="11" lengthAdjust="spacingAndGlyphs" textLength="260" x="1218.5" y="911.0908">ClassReferenceRenderer(ClassRenderer, Reference)</text><polygon fill="#FFFF44" points="1209.5,916.9258,1213.5,920.9258,1209.5,924.9258,1205.5,920.9258" style="stroke: #B38D22; stroke-width: 1.0;"/><text fill="#000000" font-family="sans-serif" font-size="11" lengthAdjust="spacingAndGlyphs" textLength="321" x="1218.5" y="924.9268">writeTypeDeclarationsTo(IndentingPrintWriter): IndentingPrintWriter</text><polygon fill="#FFFF44" points="1209.5,930.7617,1213.5,934.7617,1209.5,938.7617,1205.5,934.7617" style="stroke: #B38D22; stroke-width: 1.0;"/><text fill="#000000" font-family="sans-serif" font-size="11" lengthAdjust="spacingAndGlyphs" textLength="130" x="1218.5" y="938.7627">isSelfReference(): boolean</text><polygon fill="#FFFF44" points="1209.5,944.5977,1213.5,948.5977,1209.5,952.5977,1205.5,948.5977" style="stroke: #B38D22; stroke-width: 1.0;"/><text fill="#000000" font-family="sans-serif" font-size="11" lengthAdjust="spacingAndGlyphs" textLength="102" x="1218.5" y="952.5986">addNote(String): void</text><polygon fill="#FFFF44" points="1209.5,958.4336,1213.5,962.4336,1209.5,966.4336,1205.5,962.4336" style="stroke: #B38D22; stroke-width: 1.0;"/><text fill="#000000" font-family="sans-serif" font-size="11" lengthAdjust="spacingAndGlyphs" textLength="237" x="1218.5" y="966.4346">writeTo(IndentingPrintWriter): IndentingPrintWriter</text><!--class nl.talsmasoftware.umldoclet.rendering.ClassPropertyRenderer--><rect fill="#FEFECE" filter="url(#f49zf6s)" height="61.8359" style="stroke: #A80036; stroke-width: 1.5;" width="305" x="1219.5" y="1034"/><ellipse cx="1302.75" cy="1050" fill="#ADD1B2" rx="11" ry="11" style="stroke: #A80036; stroke-width: 1.0;"/><path d="M1305.5156,1045.875 Q1305.6719,1045.6563 1305.8594,1045.5469 Q1306.0469,1045.4375 1306.2656,1045.4375 Q1306.6406,1045.4375 1306.875,1045.6953 Q1307.1094,1045.9531 1307.1094,1046.5625 L1307.1094,1048.0156 Q1307.1094,1048.625 1306.875,1048.8906 Q1306.6406,1049.1563 1306.2656,1049.1563 Q1305.9219,1049.1563 1305.7188,1048.9531 Q1305.5156,1048.7656 1305.4063,1048.25 Q1305.3594,1047.8906 1305.1719,1047.7031 Q1304.8438,1047.3281 1304.2344,1047.1094 Q1303.625,1046.8906 1303,1046.8906 Q1302.2344,1046.8906 1301.6016,1047.2188 Q1300.9688,1047.5469 1300.4766,1048.2969 Q1299.9844,1049.0469 1299.9844,1050.0781 L1299.9844,1051.1719 Q1299.9844,1052.4063 1300.875,1053.2266 Q1301.7656,1054.0469 1303.3594,1054.0469 Q1304.2969,1054.0469 1304.9531,1053.7969 Q1305.3438,1053.6406 1305.7656,1053.2031 Q1306.0313,1052.9375 1306.1797,1052.8594 Q1306.3281,1052.7813 1306.5313,1052.7813 Q1306.8594,1052.7813 1307.1172,1053.0391 Q1307.375,1053.2969 1307.375,1053.6406 Q1307.375,1053.9844 1307.0313,1054.3906 Q1306.5313,1054.9688 1305.7344,1055.2969 Q1304.6563,1055.75 1303.3594,1055.75 Q1301.8438,1055.75 1300.6406,1055.125 Q1299.6563,1054.625 1298.9688,1053.5547 Q1298.2813,1052.4844 1298.2813,1051.2031 L1298.2813,1050.0469 Q1298.2813,1048.7188 1298.8984,1047.5703 Q1299.5156,1046.4219 1300.6094,1045.8047 Q1301.7031,1045.1875 1302.9375,1045.1875 Q1303.6719,1045.1875 1304.3203,1045.3516 Q1304.9688,1045.5156 1305.5156,1045.875 Z "/><text fill="#000000" font-family="sans-serif" font-size="12" lengthAdjust="spacingAndGlyphs" textLength="130" x="1323.25" y="1054.9102">ClassPropertyRenderer</text><line style="stroke: #A80036; stroke-width: 1.5;" x1="1220.5" x2="1523.5" y1="1066" y2="1066"/><line style="stroke: #A80036; stroke-width: 1.5;" x1="1220.5" x2="1523.5" y1="1074" y2="1074"/><polygon fill="#FFFF44" points="1230.5,1081.418,1234.5,1085.418,1230.5,1089.418,1226.5,1085.418" style="stroke: #B38D22; stroke-width: 1.0;"/><text fill="#000000" font-family="sans-serif" font-size="11" lengthAdjust="spacingAndGlyphs" textLength="279" x="1239.5" y="1089.4189">ClassPropertyRenderer(ClassRenderer, ClassDoc, String)</text><path d="M1096.87,225.329 C1096.54,228.588 1096.25,231.82 1096,235 C1094.23,257.597 1093.94,263.427 1096,286 C1098.44,312.705 1104.19,342.65 1108.91,364.306 " fill="none" style="stroke: #A80036; stroke-width: 1.0;"/><polygon fill="none" points="1089.96,224.173,1099.28,205.143,1103.86,225.831,1089.96,224.173" style="stroke: #A80036; stroke-width: 1.0;"/><path d="M1115.54,364.499 C1114.97,327.165 1113.97,262.037 1113.18,210.432 " fill="none" style="stroke: #A80036; stroke-width: 1.0;"/><polygon fill="#A80036" points="1113.1,205.165,1109.2397,214.2258,1113.1774,210.1644,1117.2388,214.102,1113.1,205.165" style="stroke: #A80036; stroke-width: 1.0;"/><text fill="#000000" font-family="sans-serif" font-size="13" lengthAdjust="spacingAndGlyphs" textLength="36" x="1140" y="249.4951">parent</text><text fill="#000000" font-family="sans-serif" font-size="13" lengthAdjust="spacingAndGlyphs" textLength="86" x="1115" y="265.8467">previousSibling</text><text fill="#000000" font-family="sans-serif" font-size="13" lengthAdjust="spacingAndGlyphs" textLength="64" x="1126" y="282.1982">nextSibling</text><path d="M933.428,162.018 C771.717,190.862 528.514,241.824 326,316 C300.49,325.344 273.783,337.964 249.953,350.35 " fill="none" style="stroke: #A80036; stroke-width: 1.0;"/><polygon fill="none" points="932.316,155.106,953.228,158.525,934.748,168.893,932.316,155.106" style="stroke: #A80036; stroke-width: 1.0;"/><path d="M1098.25,445.449 C1082.12,489.954 1058.52,555.043 1042.97,597.95 " fill="none" style="stroke: #A80036; stroke-width: 1.0;"/><polygon fill="none" points="1091.69,443.02,1105.09,426.603,1104.85,447.791,1091.69,443.02" style="stroke: #A80036; stroke-width: 1.0;"/><path d="M934.762,207.329 C856.256,240.256 762.876,279.728 679,316 C673.138,318.535 667.171,321.126 661.147,323.751 " fill="none" style="stroke: #A80036; stroke-width: 1.0;"/><polygon fill="none" points="932.192,200.816,953.344,199.541,937.604,213.728,932.192,200.816" style="stroke: #A80036; stroke-width: 1.0;"/><path d="M1023.03,219.187 C985.679,255.159 942.959,296.303 908.295,329.688 " fill="none" style="stroke: #A80036; stroke-width: 1.0;"/><polygon fill="none" points="1018.33,213.997,1037.59,205.165,1028.04,224.08,1018.33,213.997" style="stroke: #A80036; stroke-width: 1.0;"/><path d="M1200.64,219.187 C1237.85,255.159 1280.42,296.303 1314.95,329.688 " fill="none" style="stroke: #A80036; stroke-width: 1.0;"/><polygon fill="none" points="1195.65,224.098,1186.14,205.165,1205.38,214.032,1195.65,224.098" style="stroke: #A80036; stroke-width: 1.0;"/><path d="M1216.43,205.256 C1228.46,214.819 1240.25,224.843 1251,235 C1280.17,262.553 1308.88,296.518 1331.96,326.014 " fill="none" style="stroke: #A80036; stroke-width: 1.0;"/><polygon fill="#A80036" points="1335.03,329.959,1332.6526,320.4014,1331.9564,326.0152,1326.3426,325.3191,1335.03,329.959" style="stroke: #A80036; stroke-width: 1.0;"/><text fill="#000000" font-family="sans-serif" font-size="13" lengthAdjust="spacingAndGlyphs" textLength="46" x="1298" y="265.9951">diagram</text><path d="M1289.22,205.643 C1365.81,237.885 1456.03,277.293 1536,316 C1558.11,326.701 1581.75,338.831 1603.54,350.3 " fill="none" style="stroke: #A80036; stroke-width: 1.0;"/><polygon fill="none" points="1286.3,212.01,1270.56,197.819,1291.71,199.099,1286.3,212.01" style="stroke: #A80036; stroke-width: 1.0;"/><path d="M1162.02,440.46 C1189.92,467.109 1226.8,502.34 1261.91,535.882 " fill="none" style="stroke: #A80036; stroke-width: 1.0;"/><polygon fill="none" points="1157.14,445.48,1147.51,426.603,1166.81,435.356,1157.14,445.48" style="stroke: #A80036; stroke-width: 1.0;"/><path d="M1356.25,770.642 C1356.13,779.895 1356.35,789.089 1357,798 C1357.71,807.682 1358.8,817.842 1360.07,827.837 " fill="none" style="stroke: #A80036; stroke-width: 1.0;"/><polygon fill="none" points="1349.27,770.102,1357.02,750.38,1363.26,770.629,1349.27,770.102" style="stroke: #A80036; stroke-width: 1.0;"/><path d="M1372.28,827.866 C1372.37,805.359 1372.47,779.952 1372.56,755.367 " fill="none" style="stroke: #A80036; stroke-width: 1.0;"/><polygon fill="#A80036" points="1372.58,750.135,1368.544,759.1189,1372.56,755.135,1376.544,759.1509,1372.58,750.135" style="stroke: #A80036; stroke-width: 1.0;"/><text fill="#000000" font-family="sans-serif" font-size="13" lengthAdjust="spacingAndGlyphs" textLength="36" x="1373" y="794.4951">parent</text><path d="M1372,993.252 C1372,1007.845 1372,1021.979 1372,1033.7267 " fill="none" style="stroke: #A80036; stroke-width: 1.0;"/><polygon fill="none" points="1365,993.248,1372,973.248,1379,993.248,1365,993.248" style="stroke: #A80036; stroke-width: 1.0;"/><path d="M1270.67,111.34 C1291.61,114.95 1305.5,122 1305.5,132.5 C1305.5,142.098 1293.9,148.817 1275.91,152.657 " fill="none" style="stroke: #A80036; stroke-width: 1.0;"/><polygon fill="#A80036" points="1270.67,153.664,1280.2628,155.895,1275.5803,152.7211,1278.7542,148.0385,1270.67,153.664" style="stroke: #A80036; stroke-width: 1.0;"/><text fill="#000000" font-family="sans-serif" font-size="13" lengthAdjust="spacingAndGlyphs" textLength="45" x="1311.5" y="137.9951">children</text><text fill="#000000" font-family="sans-serif" font-size="13" lengthAdjust="spacingAndGlyphs" textLength="5" x="1278.4767" y="151.8089">*</text></g></svg>