<?xml version="1.0" encoding="UTF-8" standalone="no"?>
<svg xmlns="http://www.w3.org/2000/svg" contentScriptType="application/ecmascript" contentStyleType="text/css"
     height="1082px" preserveAspectRatio="none" style="width:2010px;height:1082px;" version="1.1"
     viewBox="0 0 2010 1082" width="2010px" zoomAndPan="magnify"><defs><filter height="300%" id="f7k6c7i" width="300%" x="-1" y="-1"><feGaussianBlur result="blurOut" stdDeviation="2.0"/><feColorMatrix in="blurOut" result="blurOut2" type="matrix" values="0 0 0 0 0 0 0 0 0 0 0 0 0 0 0 0 0 0 .4 0"/><feOffset dx="4.0" dy="4.0" in="blurOut2" result="blurOut3"/><feBlend in="SourceGraphic" in2="blurOut3" mode="normal"/></filter></defs><g><!--cluster nl.talsmasoftware.umldoclet.rendering--><polygon fill="#FFFFFF" filter="url(#f7k6c7i)" points="22,24,304,24,311,46.4883,2003,46.4883,2003,1075,22,1075,22,24" style="stroke: #000000; stroke-width: 2.0;"/><line style="stroke: #000000; stroke-width: 2.0;" x1="22" x2="311" y1="46.4883" y2="46.4883"/><text fill="#000000" font-family="sans-serif" font-size="14" font-weight="bold" lengthAdjust="spacingAndGlyphs" textLength="276" x="26" y="39.5352">nl.talsmasoftware.umldoclet.rendering</text><!--class nl.talsmasoftware.umldoclet.rendering.Renderer--><rect fill="#FEFECE" filter="url(#f7k6c7i)" height="138.6855" style="stroke: #A80036; stroke-width: 1.5;" width="354" x="1041" y="59"/><ellipse cx="1186.75" cy="75" fill="#A9DCDF" rx="11" ry="11" style="stroke: #A80036; stroke-width: 1.0;"/><path d="M1186.8633,70.3481 L1185.7095,75.4199 L1188.0254,75.4199 Z M1185.3691,68.1069 L1188.3657,68.1069 L1191.7109,80.5 L1189.2622,80.5 L1188.4985,77.437 L1185.2197,77.437 L1184.4727,80.5 L1182.0239,80.5 Z "/><text fill="#000000" font-family="sans-serif" font-size="12" font-style="italic" lengthAdjust="spacingAndGlyphs" textLength="54" x="1207.25" y="79.5352">Renderer</text><line style="stroke: #A80036; stroke-width: 1.5;" x1="1042" x2="1394" y1="91" y2="91"/><line style="stroke: #A80036; stroke-width: 1.5;" x1="1042" x2="1394" y1="99" y2="99"/><polygon fill="#FFFF44" points="1052,105.9775,1056,109.9775,1052,113.9775,1048,109.9775" style="stroke: #B38D22; stroke-width: 1.0;"/><text fill="#000000" font-family="sans-serif" font-size="11" lengthAdjust="spacingAndGlyphs" textLength="151" x="1061" y="113.6348">Renderer(DiagramRenderer)</text><ellipse cx="1052" cy="123.9326" fill="#84BE84" rx="3" ry="3" style="stroke: #038048; stroke-width: 1.0;"/><text fill="#000000" font-family="sans-serif" font-size="11" lengthAdjust="spacingAndGlyphs" textLength="118" x="1061" y="126.5898">writeTo(Writer): Writer</text><polygon fill="#FFFF44" points="1052,131.8877,1056,135.8877,1052,139.8877,1048,135.8877" style="stroke: #B38D22; stroke-width: 1.0;"/><text fill="#000000" font-family="sans-serif" font-size="11" lengthAdjust="spacingAndGlyphs" textLength="316" x="1061" y="139.5449">writeChildrenTo(IndentingPrintWriter): IndentingPrintWriter</text><polygon fill="#FFFF44" points="1052,144.8428,1056,148.8428,1052,152.8428,1048,148.8428" style="stroke: #B38D22; stroke-width: 1.0;"/><text fill="#000000" font-family="sans-serif" font-size="11" lengthAdjust="spacingAndGlyphs" textLength="110" x="1061" y="152.5">lastChild(): Renderer</text><polygon fill="#FFFF44" points="1052,157.7979,1056,161.7979,1052,165.7979,1048,161.7979" style="stroke: #B38D22; stroke-width: 1.0;"/><text fill="#000000" font-family="sans-serif" font-size="11" lengthAdjust="spacingAndGlyphs" text-decoration="underline" textLength="328" x="1061" y="165.4551">writeTypeTo(IndentingPrintWriter, Type): IndentingPrintWriter</text><line style="stroke: #000000; stroke-width: 1.0;" x1="1061" x2="1389" y1="167.4551" y2="167.4551"/><ellipse cx="1052" cy="175.7529" fill="#84BE84" rx="3" ry="3" style="stroke: #038048; stroke-width: 1.0;"/><text fill="#000000" font-family="sans-serif" font-size="11" lengthAdjust="spacingAndGlyphs" text-decoration="underline" textLength="116" x="1061" y="178.4102">quoted(String): String</text><line style="stroke: #000000; stroke-width: 1.0;" x1="1061" x2="1177" y1="180.4102" y2="180.4102"/><polygon fill="#FFFF44" points="1052,183.708,1056,187.708,1052,191.708,1048,187.708" style="stroke: #B38D22; stroke-width: 1.0;"/><text fill="#000000" font-family="sans-serif" font-size="11" font-style="italic" lengthAdjust="spacingAndGlyphs" textLength="270" x="1061" y="191.3652">writeTo(IndentingPrintWriter): IndentingPrintWriter</text><!--class nl.talsmasoftware.umldoclet.rendering.ParentAwareRenderer--><rect fill="#FEFECE" filter="url(#f7k6c7i)" height="60.9551" style="stroke: #A80036; stroke-width: 1.5;" width="199" x="1121.5" y="350.5"/><ellipse cx="1154.5" cy="366.5" fill="#A9DCDF" rx="11" ry="11" style="stroke: #A80036; stroke-width: 1.0;"/><path d="M1154.6133,361.8481 L1153.4595,366.9199 L1155.7754,366.9199 Z M1153.1191,359.6069 L1156.1157,359.6069 L1159.4609,372 L1157.0122,372 L1156.2485,368.937 L1152.9697,368.937 L1152.2227,372 L1149.7739,372 Z "/><text fill="#000000" font-family="sans-serif" font-size="12" font-style="italic" lengthAdjust="spacingAndGlyphs" textLength="127" x="1172.5" y="371.0352">ParentAwareRenderer</text><line style="stroke: #A80036; stroke-width: 1.5;" x1="1122.5" x2="1319.5" y1="382.5" y2="382.5"/><line style="stroke: #A80036; stroke-width: 1.5;" x1="1122.5" x2="1319.5" y1="390.5" y2="390.5"/><polygon fill="#FFFF44" points="1132.5,397.4775,1136.5,401.4775,1132.5,405.4775,1128.5,401.4775" style="stroke: #B38D22; stroke-width: 1.0;"/><text fill="#000000" font-family="sans-serif" font-size="11" lengthAdjust="spacingAndGlyphs" textLength="173" x="1141.5" y="405.1348">ParentAwareRenderer(Renderer)</text><!--class nl.talsmasoftware.umldoclet.rendering.PackageRenderer--><rect fill="#FEFECE" filter="url(#f7k6c7i)" height="86.8652" style="stroke: #A80036; stroke-width: 1.5;" width="296" x="38" y="337.5"/><ellipse cx="130.75" cy="353.5" fill="#ADD1B2" rx="11" ry="11" style="stroke: #A80036; stroke-width: 1.0;"/><path d="M133.7231,359.1431 Q133.1421,359.4419 132.5029,359.5913 Q131.8638,359.7407 131.1582,359.7407 Q128.6514,359.7407 127.3315,358.0889 Q126.0117,356.437 126.0117,353.3159 Q126.0117,350.1865 127.3315,348.5347 Q128.6514,346.8828 131.1582,346.8828 Q131.8638,346.8828 132.5112,347.0322 Q133.1587,347.1816 133.7231,347.4805 L133.7231,350.2031 Q133.0923,349.6221 132.4988,349.3523 Q131.9053,349.0825 131.2744,349.0825 Q129.9297,349.0825 129.2449,350.1492 Q128.5601,351.2158 128.5601,353.3159 Q128.5601,355.4077 129.2449,356.4744 Q129.9297,357.541 131.2744,357.541 Q131.9053,357.541 132.4988,357.2712 Q133.0923,357.0015 133.7231,356.4204 Z "/><text fill="#000000" font-family="sans-serif" font-size="12" lengthAdjust="spacingAndGlyphs" textLength="102" x="151.25" y="358.0352">PackageRenderer</text><line style="stroke: #A80036; stroke-width: 1.5;" x1="39" x2="333" y1="369.5" y2="369.5"/><polygon fill="none" points="49,376.4775,53,380.4775,49,384.4775,45,380.4775" style="stroke: #B38D22; stroke-width: 1.0;"/><text fill="#000000" font-family="sans-serif" font-size="11" lengthAdjust="spacingAndGlyphs" textLength="135" x="58" y="384.1348">packageDoc: PackageDoc</text><line style="stroke: #A80036; stroke-width: 1.5;" x1="39" x2="333" y1="390.4551" y2="390.4551"/><polygon fill="#FFFF44" points="49,397.4326,53,401.4326,49,405.4326,45,401.4326" style="stroke: #B38D22; stroke-width: 1.0;"/><text fill="#000000" font-family="sans-serif" font-size="11" lengthAdjust="spacingAndGlyphs" textLength="264" x="58" y="405.0898">PackageRenderer(DiagramRenderer, PackageDoc)</text><polygon fill="#FFFF44" points="49,410.3877,53,414.3877,49,418.3877,45,414.3877" style="stroke: #B38D22; stroke-width: 1.0;"/><text fill="#000000" font-family="sans-serif" font-size="11" lengthAdjust="spacingAndGlyphs" textLength="270" x="58" y="418.0449">writeTo(IndentingPrintWriter): IndentingPrintWriter</text><!--class nl.talsmasoftware.umldoclet.rendering.NoteRenderer--><rect fill="#FEFECE" filter="url(#f7k6c7i)" height="86.8652" style="stroke: #A80036; stroke-width: 1.5;" width="296" x="975" y="576"/><ellipse cx="1078.25" cy="592" fill="#ADD1B2" rx="11" ry="11" style="stroke: #A80036; stroke-width: 1.0;"/><path d="M1081.2231,597.6431 Q1080.6421,597.9419 1080.0029,598.0913 Q1079.3638,598.2407 1078.6582,598.2407 Q1076.1514,598.2407 1074.8315,596.5889 Q1073.5117,594.937 1073.5117,591.8159 Q1073.5117,588.6865 1074.8315,587.0347 Q1076.1514,585.3828 1078.6582,585.3828 Q1079.3638,585.3828 1080.0112,585.5322 Q1080.6587,585.6816 1081.2231,585.9805 L1081.2231,588.7031 Q1080.5923,588.1221 1079.9988,587.8523 Q1079.4053,587.5825 1078.7744,587.5825 Q1077.4297,587.5825 1076.7449,588.6492 Q1076.0601,589.7158 1076.0601,591.8159 Q1076.0601,593.9077 1076.7449,594.9744 Q1077.4297,596.041 1078.7744,596.041 Q1079.4053,596.041 1079.9988,595.7712 Q1080.5923,595.5015 1081.2231,594.9204 Z "/><text fill="#000000" font-family="sans-serif" font-size="12" lengthAdjust="spacingAndGlyphs" textLength="81" x="1098.75" y="596.5352">NoteRenderer</text><line style="stroke: #A80036; stroke-width: 1.5;" x1="976" x2="1270" y1="608" y2="608"/><polygon fill="none" points="986,614.9775,990,618.9775,986,622.9775,982,618.9775" style="stroke: #B38D22; stroke-width: 1.0;"/><text fill="#000000" font-family="sans-serif" font-size="11" lengthAdjust="spacingAndGlyphs" textLength="62" x="995" y="622.6348">note: String</text><line style="stroke: #A80036; stroke-width: 1.5;" x1="976" x2="1270" y1="628.9551" y2="628.9551"/><polygon fill="#FFFF44" points="986,635.9326,990,639.9326,986,643.9326,982,639.9326" style="stroke: #B38D22; stroke-width: 1.0;"/><text fill="#000000" font-family="sans-serif" font-size="11" lengthAdjust="spacingAndGlyphs" textLength="169" x="995" y="643.5898">NoteRenderer(Renderer, String)</text><polygon fill="#FFFF44" points="986,648.8877,990,652.8877,986,656.8877,982,652.8877" style="stroke: #B38D22; stroke-width: 1.0;"/><text fill="#000000" font-family="sans-serif" font-size="11" lengthAdjust="spacingAndGlyphs" textLength="270" x="995" y="656.5449">writeTo(IndentingPrintWriter): IndentingPrintWriter</text><!--class nl.talsmasoftware.umldoclet.rendering.MethodRenderer--><rect fill="#FEFECE" filter="url(#f7k6c7i)" height="151.6406" style="stroke: #A80036; stroke-width: 1.5;" width="356" x="369" y="305"/><ellipse cx="494.25" cy="321" fill="#ADD1B2" rx="11" ry="11" style="stroke: #A80036; stroke-width: 1.0;"/><path d="M497.2231,326.6431 Q496.6421,326.9419 496.0029,327.0913 Q495.3638,327.2407 494.6582,327.2407 Q492.1514,327.2407 490.8315,325.5889 Q489.5117,323.937 489.5117,320.8159 Q489.5117,317.6865 490.8315,316.0347 Q492.1514,314.3828 494.6582,314.3828 Q495.3638,314.3828 496.0112,314.5322 Q496.6587,314.6816 497.2231,314.9805 L497.2231,317.7031 Q496.5923,317.1221 495.9988,316.8523 Q495.4053,316.5825 494.7744,316.5825 Q493.4297,316.5825 492.7449,317.6492 Q492.0601,318.7158 492.0601,320.8159 Q492.0601,322.9077 492.7449,323.9744 Q493.4297,325.041 494.7744,325.041 Q495.4053,325.041 495.9988,324.7712 Q496.5923,324.5015 497.2231,323.9204 Z "/><text fill="#000000" font-family="sans-serif" font-size="12" lengthAdjust="spacingAndGlyphs" textLength="97" x="514.75" y="325.5352">MethodRenderer</text><line style="stroke: #A80036; stroke-width: 1.5;" x1="370" x2="724" y1="337" y2="337"/><polygon fill="none" points="380,343.9775,384,347.9775,380,351.9775,376,347.9775" style="stroke: #B38D22; stroke-width: 1.0;"/><text fill="#000000" font-family="sans-serif" font-size="11" lengthAdjust="spacingAndGlyphs" textLength="190" x="389" y="351.6348">methodDoc: ExecutableMemberDoc</text><line style="stroke: #A80036; stroke-width: 1.5;" x1="370" x2="724" y1="357.9551" y2="357.9551"/><polygon fill="#FFFF44" points="380,364.9326,384,368.9326,380,372.9326,376,368.9326" style="stroke: #B38D22; stroke-width: 1.0;"/><text fill="#000000" font-family="sans-serif" font-size="11" lengthAdjust="spacingAndGlyphs" textLength="319" x="389" y="372.5898">MethodRenderer(DiagramRenderer, ExecutableMemberDoc)</text><polygon fill="#FFFF44" points="380,377.8877,384,381.8877,380,385.8877,376,381.8877" style="stroke: #B38D22; stroke-width: 1.0;"/><text fill="#000000" font-family="sans-serif" font-size="11" lengthAdjust="spacingAndGlyphs" textLength="136" x="389" y="385.5449">includeMethod(): boolean</text><polygon fill="#FFFF44" points="380,390.8428,384,394.8428,380,398.8428,376,394.8428" style="stroke: #B38D22; stroke-width: 1.0;"/><text fill="#000000" font-family="sans-serif" font-size="11" lengthAdjust="spacingAndGlyphs" textLength="300" x="389" y="398.5">writeNameTo(IndentingPrintWriter): IndentingPrintWriter</text><polygon fill="#FFFF44" points="380,403.7979,384,407.7979,380,411.7979,376,407.7979" style="stroke: #B38D22; stroke-width: 1.0;"/><text fill="#000000" font-family="sans-serif" font-size="11" lengthAdjust="spacingAndGlyphs" textLength="330" x="389" y="411.4551">writeParametersTo(IndentingPrintWriter): IndentingPrintWriter</text><polygon fill="#FFFF44" points="380,416.7529,384,420.7529,380,424.7529,376,420.7529" style="stroke: #B38D22; stroke-width: 1.0;"/><text fill="#000000" font-family="sans-serif" font-size="11" lengthAdjust="spacingAndGlyphs" textLength="270" x="389" y="424.4102">writeTo(IndentingPrintWriter): IndentingPrintWriter</text><polygon fill="#FFFF44" points="380,429.708,384,433.708,380,437.708,376,433.708" style="stroke: #B38D22; stroke-width: 1.0;"/><text fill="#000000" font-family="sans-serif" font-size="11" lengthAdjust="spacingAndGlyphs" textLength="123" x="389" y="437.3652">propertyName(): String</text><polygon fill="#FFFF44" points="380,442.6631,384,446.6631,380,450.6631,376,446.6631" style="stroke: #B38D22; stroke-width: 1.0;"/><text fill="#000000" font-family="sans-serif" font-size="11" lengthAdjust="spacingAndGlyphs" textLength="113" x="389" y="450.3203">propertyType(): Type</text><!--class nl.talsmasoftware.umldoclet.rendering.LegacyTag--><rect fill="#FEFECE" filter="url(#f7k6c7i)" height="112.7754" style="stroke: #A80036; stroke-width: 1.5;" width="93" x="474.5" y="72"/><ellipse cx="489.5" cy="88" fill="#EB937F" rx="11" ry="11" style="stroke: #A80036; stroke-width: 1.0;"/><path d="M493.6143,94 L485.8945,94 L485.8945,81.6069 L493.6143,81.6069 L493.6143,83.7651 L488.3433,83.7651 L488.3433,86.438 L493.1162,86.438 L493.1162,88.5962 L488.3433,88.5962 L488.3433,91.8418 L493.6143,91.8418 Z "/><text fill="#000000" font-family="sans-serif" font-size="12" lengthAdjust="spacingAndGlyphs" textLength="61" x="503.5" y="92.5352">LegacyTag</text><line style="stroke: #A80036; stroke-width: 1.5;" x1="475.5" x2="566.5" y1="104" y2="104"/><ellipse cx="485.5" cy="115.9775" fill="none" rx="3" ry="3" style="stroke: #038048; stroke-width: 1.0;"/><text fill="#000000" font-family="sans-serif" font-size="11" lengthAdjust="spacingAndGlyphs" text-decoration="underline" textLength="48" x="494.5" y="118.6348">EXTENDS</text><line style="stroke: #000000; stroke-width: 1.0;" x1="494.5" x2="542.5" y1="120.6348" y2="120.6348"/><ellipse cx="485.5" cy="128.9326" fill="none" rx="3" ry="3" style="stroke: #038048; stroke-width: 1.0;"/><text fill="#000000" font-family="sans-serif" font-size="11" lengthAdjust="spacingAndGlyphs" text-decoration="underline" textLength="66" x="494.5" y="131.5898">IMPLEMENTS</text><line style="stroke: #000000; stroke-width: 1.0;" x1="494.5" x2="560.5" y1="133.5898" y2="133.5898"/><ellipse cx="485.5" cy="141.8877" fill="none" rx="3" ry="3" style="stroke: #038048; stroke-width: 1.0;"/><text fill="#000000" font-family="sans-serif" font-size="11" lengthAdjust="spacingAndGlyphs" text-decoration="underline" textLength="37" x="494.5" y="144.5449">ASSOC</text><line style="stroke: #000000; stroke-width: 1.0;" x1="494.5" x2="531.5" y1="146.5449" y2="146.5449"/><ellipse cx="485.5" cy="154.8428" fill="none" rx="3" ry="3" style="stroke: #038048; stroke-width: 1.0;"/><text fill="#000000" font-family="sans-serif" font-size="11" lengthAdjust="spacingAndGlyphs" text-decoration="underline" textLength="60" x="494.5" y="157.5">NAVASSOC</text><line style="stroke: #000000; stroke-width: 1.0;" x1="494.5" x2="554.5" y1="159.5" y2="159.5"/><ellipse cx="485.5" cy="167.7979" fill="none" rx="3" ry="3" style="stroke: #038048; stroke-width: 1.0;"/><text fill="#000000" font-family="sans-serif" font-size="11" lengthAdjust="spacingAndGlyphs" text-decoration="underline" textLength="42" x="494.5" y="170.4551">DEPEND</text><line style="stroke: #000000; stroke-width: 1.0;" x1="494.5" x2="536.5" y1="172.4551" y2="172.4551"/><line style="stroke: #A80036; stroke-width: 1.5;" x1="475.5" x2="566.5" y1="176.7754" y2="176.7754"/><!--class nl.talsmasoftware.umldoclet.rendering.FieldRenderer--><rect fill="#FEFECE" filter="url(#f7k6c7i)" height="125.7305" style="stroke: #A80036; stroke-width: 1.5;" width="326" x="760" y="318"/><ellipse cx="878.25" cy="334" fill="#ADD1B2" rx="11" ry="11" style="stroke: #A80036; stroke-width: 1.0;"/><path d="M881.2231,339.6431 Q880.6421,339.9419 880.0029,340.0913 Q879.3638,340.2407 878.6582,340.2407 Q876.1514,340.2407 874.8315,338.5889 Q873.5117,336.937 873.5117,333.8159 Q873.5117,330.6865 874.8315,329.0347 Q876.1514,327.3828 878.6582,327.3828 Q879.3638,327.3828 880.0112,327.5322 Q880.6587,327.6816 881.2231,327.9805 L881.2231,330.7031 Q880.5923,330.1221 879.9988,329.8523 Q879.4053,329.5825 878.7744,329.5825 Q877.4297,329.5825 876.7449,330.6492 Q876.0601,331.7158 876.0601,333.8159 Q876.0601,335.9077 876.7449,336.9744 Q877.4297,338.041 878.7744,338.041 Q879.4053,338.041 879.9988,337.7712 Q880.5923,337.5015 881.2231,336.9204 Z "/><text fill="#000000" font-family="sans-serif" font-size="12" lengthAdjust="spacingAndGlyphs" textLength="81" x="898.75" y="338.5352">FieldRenderer</text><line style="stroke: #A80036; stroke-width: 1.5;" x1="761" x2="1085" y1="350" y2="350"/><polygon fill="none" points="771,356.9775,775,360.9775,771,364.9775,767,360.9775" style="stroke: #B38D22; stroke-width: 1.0;"/><text fill="#000000" font-family="sans-serif" font-size="11" lengthAdjust="spacingAndGlyphs" textLength="96" x="780" y="364.6348">fieldDoc: FieldDoc</text><line style="stroke: #A80036; stroke-width: 1.5;" x1="761" x2="1085" y1="370.9551" y2="370.9551"/><polygon fill="#FFFF44" points="771,377.9326,775,381.9326,771,385.9326,767,381.9326" style="stroke: #B38D22; stroke-width: 1.0;"/><text fill="#000000" font-family="sans-serif" font-size="11" lengthAdjust="spacingAndGlyphs" textLength="228" x="780" y="385.5898">FieldRenderer(DiagramRenderer, FieldDoc)</text><polygon fill="#FFFF44" points="771,390.8877,775,394.8877,771,398.8877,767,394.8877" style="stroke: #B38D22; stroke-width: 1.0;"/><text fill="#000000" font-family="sans-serif" font-size="11" lengthAdjust="spacingAndGlyphs" textLength="147" x="780" y="398.5449">includeFieldType(): boolean</text><polygon fill="#FFFF44" points="771,403.8428,775,407.8428,771,411.8428,767,407.8428" style="stroke: #B38D22; stroke-width: 1.0;"/><text fill="#000000" font-family="sans-serif" font-size="11" lengthAdjust="spacingAndGlyphs" textLength="121" x="780" y="411.5">includeField(): boolean</text><polygon fill="#FFFF44" points="771,416.7979,775,420.7979,771,424.7979,767,420.7979" style="stroke: #B38D22; stroke-width: 1.0;"/><text fill="#000000" font-family="sans-serif" font-size="11" lengthAdjust="spacingAndGlyphs" textLength="300" x="780" y="424.4551">writeNameTo(IndentingPrintWriter): IndentingPrintWriter</text><polygon fill="#FFFF44" points="771,429.7529,775,433.7529,771,437.7529,767,433.7529" style="stroke: #B38D22; stroke-width: 1.0;"/><text fill="#000000" font-family="sans-serif" font-size="11" lengthAdjust="spacingAndGlyphs" textLength="270" x="780" y="437.4102">writeTo(IndentingPrintWriter): IndentingPrintWriter</text><!--class nl.talsmasoftware.umldoclet.rendering.DiagramRenderer--><rect fill="#FEFECE" filter="url(#f7k6c7i)" height="125.7305" style="stroke: #A80036; stroke-width: 1.5;" width="300" x="1356" y="318"/><ellipse cx="1450.25" cy="334" fill="#ADD1B2" rx="11" ry="11" style="stroke: #A80036; stroke-width: 1.0;"/><path d="M1453.2231,339.6431 Q1452.6421,339.9419 1452.0029,340.0913 Q1451.3638,340.2407 1450.6582,340.2407 Q1448.1514,340.2407 1446.8315,338.5889 Q1445.5117,336.937 1445.5117,333.8159 Q1445.5117,330.6865 1446.8315,329.0347 Q1448.1514,327.3828 1450.6582,327.3828 Q1451.3638,327.3828 1452.0112,327.5322 Q1452.6587,327.6816 1453.2231,327.9805 L1453.2231,330.7031 Q1452.5923,330.1221 1451.9988,329.8523 Q1451.4053,329.5825 1450.7744,329.5825 Q1449.4297,329.5825 1448.7449,330.6492 Q1448.0601,331.7158 1448.0601,333.8159 Q1448.0601,335.9077 1448.7449,336.9744 Q1449.4297,338.041 1450.7744,338.041 Q1451.4053,338.041 1451.9988,337.7712 Q1452.5923,337.5015 1453.2231,336.9204 Z "/><text fill="#000000" font-family="sans-serif" font-size="12" lengthAdjust="spacingAndGlyphs" textLength="103" x="1470.75" y="338.5352">DiagramRenderer</text><line style="stroke: #A80036; stroke-width: 1.5;" x1="1357" x2="1655" y1="350" y2="350"/><polygon fill="none" points="1367,356.9775,1371,360.9775,1367,364.9775,1363,360.9775" style="stroke: #B38D22; stroke-width: 1.0;"/><text fill="#000000" font-family="sans-serif" font-size="11" lengthAdjust="spacingAndGlyphs" textLength="133" x="1376" y="364.6348">config: UMLDocletConfig</text><line style="stroke: #A80036; stroke-width: 1.5;" x1="1357" x2="1655" y1="370.9551" y2="370.9551"/><ellipse cx="1367" cy="382.9326" fill="#84BE84" rx="3" ry="3" style="stroke: #038048; stroke-width: 1.0;"/><text fill="#000000" font-family="sans-serif" font-size="11" lengthAdjust="spacingAndGlyphs" textLength="195" x="1376" y="385.5898">DiagramRenderer(UMLDocletConfig)</text><ellipse cx="1367" cy="395.8877" fill="#84BE84" rx="3" ry="3" style="stroke: #038048; stroke-width: 1.0;"/><text fill="#000000" font-family="sans-serif" font-size="11" lengthAdjust="spacingAndGlyphs" textLength="207" x="1376" y="398.5449">addClass(ClassDoc): DiagramRenderer</text><ellipse cx="1367" cy="408.8428" fill="#84BE84" rx="3" ry="3" style="stroke: #038048; stroke-width: 1.0;"/><text fill="#000000" font-family="sans-serif" font-size="11" lengthAdjust="spacingAndGlyphs" textLength="235" x="1376" y="411.5">addPackage(PackageDoc): DiagramRenderer</text><ellipse cx="1367" cy="421.7979" fill="#84BE84" rx="3" ry="3" style="stroke: #038048; stroke-width: 1.0;"/><text fill="#000000" font-family="sans-serif" font-size="11" lengthAdjust="spacingAndGlyphs" textLength="274" x="1376" y="424.4551">addDependencyDiagram(Object): DiagramRenderer</text><polygon fill="#FFFF44" points="1367,429.7529,1371,433.7529,1367,437.7529,1363,433.7529" style="stroke: #B38D22; stroke-width: 1.0;"/><text fill="#000000" font-family="sans-serif" font-size="11" lengthAdjust="spacingAndGlyphs" textLength="270" x="1376" y="437.4102">writeTo(IndentingPrintWriter): IndentingPrintWriter</text><!--class nl.talsmasoftware.umldoclet.rendering.CommandRenderer--><rect fill="#FEFECE" filter="url(#f7k6c7i)" height="86.8652" style="stroke: #A80036; stroke-width: 1.5;" width="296" x="1691" y="337.5"/><ellipse cx="1778.25" cy="353.5" fill="#ADD1B2" rx="11" ry="11" style="stroke: #A80036; stroke-width: 1.0;"/><path d="M1781.2231,359.1431 Q1780.6421,359.4419 1780.0029,359.5913 Q1779.3638,359.7407 1778.6582,359.7407 Q1776.1514,359.7407 1774.8315,358.0889 Q1773.5117,356.437 1773.5117,353.3159 Q1773.5117,350.1865 1774.8315,348.5347 Q1776.1514,346.8828 1778.6582,346.8828 Q1779.3638,346.8828 1780.0112,347.0322 Q1780.6587,347.1816 1781.2231,347.4805 L1781.2231,350.2031 Q1780.5923,349.6221 1779.9988,349.3523 Q1779.4053,349.0825 1778.7744,349.0825 Q1777.4297,349.0825 1776.7449,350.1492 Q1776.0601,351.2158 1776.0601,353.3159 Q1776.0601,355.4077 1776.7449,356.4744 Q1777.4297,357.541 1778.7744,357.541 Q1779.4053,357.541 1779.9988,357.2712 Q1780.5923,357.0015 1781.2231,356.4204 Z "/><text fill="#000000" font-family="sans-serif" font-size="12" lengthAdjust="spacingAndGlyphs" textLength="113" x="1798.75" y="358.0352">CommandRenderer</text><line style="stroke: #A80036; stroke-width: 1.5;" x1="1692" x2="1986" y1="369.5" y2="369.5"/><polygon fill="none" points="1702,376.4775,1706,380.4775,1702,384.4775,1698,380.4775" style="stroke: #B38D22; stroke-width: 1.0;"/><text fill="#000000" font-family="sans-serif" font-size="11" lengthAdjust="spacingAndGlyphs" textLength="91" x="1711" y="384.1348">command: String</text><line style="stroke: #A80036; stroke-width: 1.5;" x1="1692" x2="1986" y1="390.4551" y2="390.4551"/><polygon fill="#FFFF44" points="1702,397.4326,1706,401.4326,1702,405.4326,1698,401.4326" style="stroke: #B38D22; stroke-width: 1.0;"/><text fill="#000000" font-family="sans-serif" font-size="11" lengthAdjust="spacingAndGlyphs" textLength="244" x="1711" y="405.0898">CommandRenderer(DiagramRenderer, String)</text><polygon fill="#FFFF44" points="1702,410.3877,1706,414.3877,1702,418.3877,1698,414.3877" style="stroke: #B38D22; stroke-width: 1.0;"/><text fill="#000000" font-family="sans-serif" font-size="11" lengthAdjust="spacingAndGlyphs" textLength="270" x="1711" y="418.0449">writeTo(IndentingPrintWriter): IndentingPrintWriter</text><!--class nl.talsmasoftware.umldoclet.rendering.ClassRenderer--><rect fill="#FEFECE" filter="url(#f7k6c7i)" height="203.4609" style="stroke: #A80036; stroke-width: 1.5;" width="398" x="1306" y="518"/><ellipse cx="1458.75" cy="534" fill="#ADD1B2" rx="11" ry="11" style="stroke: #A80036; stroke-width: 1.0;"/><path d="M1461.7231,539.6431 Q1461.1421,539.9419 1460.5029,540.0913 Q1459.8638,540.2407 1459.1582,540.2407 Q1456.6514,540.2407 1455.3315,538.5889 Q1454.0117,536.937 1454.0117,533.8159 Q1454.0117,530.6865 1455.3315,529.0347 Q1456.6514,527.3828 1459.1582,527.3828 Q1459.8638,527.3828 1460.5112,527.5322 Q1461.1587,527.6816 1461.7231,527.9805 L1461.7231,530.7031 Q1461.0923,530.1221 1460.4988,529.8523 Q1459.9053,529.5825 1459.2744,529.5825 Q1457.9297,529.5825 1457.2449,530.6492 Q1456.5601,531.7158 1456.5601,533.8159 Q1456.5601,535.9077 1457.2449,536.9744 Q1457.9297,538.041 1459.2744,538.041 Q1459.9053,538.041 1460.4988,537.7712 Q1461.0923,537.5015 1461.7231,536.9204 Z "/><text fill="#000000" font-family="sans-serif" font-size="12" lengthAdjust="spacingAndGlyphs" textLength="84" x="1479.25" y="538.5352">ClassRenderer</text><line style="stroke: #A80036; stroke-width: 1.5;" x1="1307" x2="1703" y1="550" y2="550"/><polygon fill="none" points="1317,556.9775,1321,560.9775,1317,564.9775,1313,560.9775" style="stroke: #B38D22; stroke-width: 1.0;"/><text fill="#000000" font-family="sans-serif" font-size="11" lengthAdjust="spacingAndGlyphs" textLength="104" x="1326" y="564.6348">classDoc: ClassDoc</text><line style="stroke: #A80036; stroke-width: 1.5;" x1="1307" x2="1703" y1="570.9551" y2="570.9551"/><polygon fill="#FFFF44" points="1317,577.9326,1321,581.9326,1317,585.9326,1313,581.9326" style="stroke: #B38D22; stroke-width: 1.0;"/><text fill="#000000" font-family="sans-serif" font-size="11" lengthAdjust="spacingAndGlyphs" textLength="191" x="1326" y="585.5898">ClassRenderer(Renderer, ClassDoc)</text><polygon fill="#FFFF44" points="1317,590.8877,1321,594.8877,1317,598.8877,1313,594.8877" style="stroke: #B38D22; stroke-width: 1.0;"/><text fill="#000000" font-family="sans-serif" font-size="11" lengthAdjust="spacingAndGlyphs" textLength="92" x="1326" y="598.5449">umlType(): String</text><polygon fill="#FFFF44" points="1317,603.8428,1321,607.8428,1317,611.8428,1313,607.8428" style="stroke: #B38D22; stroke-width: 1.0;"/><text fill="#000000" font-family="sans-serif" font-size="11" lengthAdjust="spacingAndGlyphs" text-decoration="underline" textLength="155" x="1326" y="611.5">umlTypeOf(ClassDoc): String</text><line style="stroke: #000000; stroke-width: 1.0;" x1="1326" x2="1481" y1="613.5" y2="613.5"/><polygon fill="#FFFF44" points="1317,616.7979,1321,620.7979,1317,624.7979,1313,620.7979" style="stroke: #B38D22; stroke-width: 1.0;"/><text fill="#000000" font-family="sans-serif" font-size="11" lengthAdjust="spacingAndGlyphs" textLength="317" x="1326" y="624.4551">writeGenericsTo(IndentingPrintWriter): IndentingPrintWriter</text><polygon fill="#FFFF44" points="1317,629.7529,1321,633.7529,1317,637.7529,1313,633.7529" style="stroke: #B38D22; stroke-width: 1.0;"/><text fill="#000000" font-family="sans-serif" font-size="11" lengthAdjust="spacingAndGlyphs" text-decoration="underline" textLength="372" x="1326" y="637.4102">writeGenericsOf(ClassDoc, IndentingPrintWriter): IndentingPrintWriter</text><line style="stroke: #000000; stroke-width: 1.0;" x1="1326" x2="1698" y1="639.4102" y2="639.4102"/><polygon fill="#FFFF44" points="1317,642.708,1321,646.708,1317,650.708,1313,646.708" style="stroke: #B38D22; stroke-width: 1.0;"/><text fill="#000000" font-family="sans-serif" font-size="11" lengthAdjust="spacingAndGlyphs" textLength="301" x="1326" y="650.3652">writeNotesTo(IndentingPrintWriter): IndentingPrintWriter</text><polygon fill="#FFFF44" points="1317,655.6631,1321,659.6631,1317,663.6631,1313,659.6631" style="stroke: #B38D22; stroke-width: 1.0;"/><text fill="#000000" font-family="sans-serif" font-size="11" lengthAdjust="spacingAndGlyphs" textLength="75" x="1326" y="663.3203">name(): String</text><polygon fill="#FFFF44" points="1317,668.6182,1321,672.6182,1317,676.6182,1313,672.6182" style="stroke: #B38D22; stroke-width: 1.0;"/><text fill="#000000" font-family="sans-serif" font-size="11" lengthAdjust="spacingAndGlyphs" textLength="120" x="1326" y="676.2754">nameOf(String): String</text><polygon fill="#FFFF44" points="1317,681.5732,1321,685.5732,1317,689.5732,1313,685.5732" style="stroke: #B38D22; stroke-width: 1.0;"/><text fill="#000000" font-family="sans-serif" font-size="11" lengthAdjust="spacingAndGlyphs" textLength="254" x="1326" y="689.2305">simplifyClassnameWithinPackage(String): String</text><polygon fill="#FFFF44" points="1317,694.5283,1321,698.5283,1317,702.5283,1313,698.5283" style="stroke: #B38D22; stroke-width: 1.0;"/><text fill="#000000" font-family="sans-serif" font-size="11" lengthAdjust="spacingAndGlyphs" textLength="300" x="1326" y="702.1855">writeNameTo(IndentingPrintWriter): IndentingPrintWriter</text><polygon fill="#FFFF44" points="1317,707.4834,1321,711.4834,1317,715.4834,1313,711.4834" style="stroke: #B38D22; stroke-width: 1.0;"/><text fill="#000000" font-family="sans-serif" font-size="11" lengthAdjust="spacingAndGlyphs" textLength="270" x="1326" y="715.1406">writeTo(IndentingPrintWriter): IndentingPrintWriter</text><!--class nl.talsmasoftware.umldoclet.rendering.ClassReferenceRenderer--><rect fill="#FEFECE" filter="url(#f7k6c7i)" height="138.6855" style="stroke: #A80036; stroke-width: 1.5;" width="389" x="1309.5" y="798"/><ellipse cx="1428.75" cy="814" fill="#ADD1B2" rx="11" ry="11" style="stroke: #A80036; stroke-width: 1.0;"/><path d="M1431.7231,819.6431 Q1431.1421,819.9419 1430.5029,820.0913 Q1429.8638,820.2407 1429.1582,820.2407 Q1426.6514,820.2407 1425.3315,818.5889 Q1424.0117,816.937 1424.0117,813.8159 Q1424.0117,810.6865 1425.3315,809.0347 Q1426.6514,807.3828 1429.1582,807.3828 Q1429.8638,807.3828 1430.5112,807.5322 Q1431.1587,807.6816 1431.7231,807.9805 L1431.7231,810.7031 Q1431.0923,810.1221 1430.4988,809.8523 Q1429.9053,809.5825 1429.2744,809.5825 Q1427.9297,809.5825 1427.2449,810.6492 Q1426.5601,811.7158 1426.5601,813.8159 Q1426.5601,815.9077 1427.2449,816.9744 Q1427.9297,818.041 1429.2744,818.041 Q1429.9053,818.041 1430.4988,817.7712 Q1431.0923,817.5015 1431.7231,816.9204 Z "/><text fill="#000000" font-family="sans-serif" font-size="12" lengthAdjust="spacingAndGlyphs" textLength="142" x="1449.25" y="818.5352">ClassReferenceRenderer</text><line style="stroke: #A80036; stroke-width: 1.5;" x1="1310.5" x2="1697.5" y1="830" y2="830"/><polygon fill="none" points="1320.5,836.9775,1324.5,840.9775,1320.5,844.9775,1316.5,840.9775" style="stroke: #B38D22; stroke-width: 1.0;"/><text fill="#000000" font-family="sans-serif" font-size="11" lengthAdjust="spacingAndGlyphs" textLength="110" x="1329.5" y="844.6348">reference: Reference</text><line style="stroke: #A80036; stroke-width: 1.5;" x1="1310.5" x2="1697.5" y1="850.9551" y2="850.9551"/><polygon fill="#FFFF44" points="1320.5,857.9326,1324.5,861.9326,1320.5,865.9326,1316.5,861.9326" style="stroke: #B38D22; stroke-width: 1.0;"/><text fill="#000000" font-family="sans-serif" font-size="11" lengthAdjust="spacingAndGlyphs" textLength="293" x="1329.5" y="865.5898">ClassReferenceRenderer(ClassRenderer, String, String)</text><polygon fill="#FFFF44" points="1320.5,870.8877,1324.5,874.8877,1320.5,878.8877,1316.5,874.8877" style="stroke: #B38D22; stroke-width: 1.0;"/><text fill="#000000" font-family="sans-serif" font-size="11" lengthAdjust="spacingAndGlyphs" textLength="276" x="1329.5" y="878.5449">ClassReferenceRenderer(ClassRenderer, Reference)</text><polygon fill="#FFFF44" points="1320.5,883.8428,1324.5,887.8428,1320.5,891.8428,1316.5,887.8428" style="stroke: #B38D22; stroke-width: 1.0;"/><text fill="#000000" font-family="sans-serif" font-size="11" lengthAdjust="spacingAndGlyphs" textLength="363" x="1329.5" y="891.5">writeTypeDeclarationsTo(IndentingPrintWriter): IndentingPrintWriter</text><polygon fill="#FFFF44" points="1320.5,896.7979,1324.5,900.7979,1320.5,904.7979,1316.5,900.7979" style="stroke: #B38D22; stroke-width: 1.0;"/><text fill="#000000" font-family="sans-serif" font-size="11" lengthAdjust="spacingAndGlyphs" textLength="138" x="1329.5" y="904.4551">isSelfReference(): boolean</text><polygon fill="#FFFF44" points="1320.5,909.7529,1324.5,913.7529,1320.5,917.7529,1316.5,913.7529" style="stroke: #B38D22; stroke-width: 1.0;"/><text fill="#000000" font-family="sans-serif" font-size="11" lengthAdjust="spacingAndGlyphs" textLength="114" x="1329.5" y="917.4102">addNote(String): void</text><polygon fill="#FFFF44" points="1320.5,922.708,1324.5,926.708,1320.5,930.708,1316.5,926.708" style="stroke: #B38D22; stroke-width: 1.0;"/><text fill="#000000" font-family="sans-serif" font-size="11" lengthAdjust="spacingAndGlyphs" textLength="270" x="1329.5" y="930.3652">writeTo(IndentingPrintWriter): IndentingPrintWriter</text><!--class nl.talsmasoftware.umldoclet.rendering.ClassPropertyRenderer--><rect fill="#FEFECE" filter="url(#f7k6c7i)" height="60.9551" style="stroke: #A80036; stroke-width: 1.5;" width="330" x="1339" y="998"/><ellipse cx="1433.25" cy="1014" fill="#ADD1B2" rx="11" ry="11" style="stroke: #A80036; stroke-width: 1.0;"/><path d="M1436.2231,1019.6431 Q1435.6421,1019.9419 1435.0029,1020.0913 Q1434.3638,1020.2407 1433.6582,1020.2407 Q1431.1514,1020.2407 1429.8315,1018.5889 Q1428.5117,1016.937 1428.5117,1013.8159 Q1428.5117,1010.6865 1429.8315,1009.0347 Q1431.1514,1007.3828 1433.6582,1007.3828 Q1434.3638,1007.3828 1435.0112,1007.5322 Q1435.6587,1007.6816 1436.2231,1007.9805 L1436.2231,1010.7031 Q1435.5923,1010.1221 1434.9988,1009.8523 Q1434.4053,1009.5825 1433.7744,1009.5825 Q1432.4297,1009.5825 1431.7449,1010.6492 Q1431.0601,1011.7158 1431.0601,1013.8159 Q1431.0601,1015.9077 1431.7449,1016.9744 Q1432.4297,1018.041 1433.7744,1018.041 Q1434.4053,1018.041 1434.9988,1017.7712 Q1435.5923,1017.5015 1436.2231,1016.9204 Z "/><text fill="#000000" font-family="sans-serif" font-size="12" lengthAdjust="spacingAndGlyphs" textLength="133" x="1453.75" y="1018.5352">ClassPropertyRenderer</text><line style="stroke: #A80036; stroke-width: 1.5;" x1="1340" x2="1668" y1="1030" y2="1030"/><line style="stroke: #A80036; stroke-width: 1.5;" x1="1340" x2="1668" y1="1038" y2="1038"/><polygon fill="#FFFF44" points="1350,1044.9775,1354,1048.9775,1350,1052.9775,1346,1048.9775" style="stroke: #B38D22; stroke-width: 1.0;"/><text fill="#000000" font-family="sans-serif" font-size="11" lengthAdjust="spacingAndGlyphs" textLength="304" x="1359" y="1052.6348">ClassPropertyRenderer(ClassRenderer, ClassDoc, String)</text><path d="M1202.9,218.349 C1202.56,221.602 1202.26,224.827 1202,228 C1200.32,248.821 1200.13,254.195 1202,275 C1204.3,300.647 1209.71,329.399 1214.16,350.322 " fill="none" style="stroke: #A80036; stroke-width: 1.0;"/><polygon fill="none" points="1195.99,217.203,1205.39,198.215,1209.88,218.924,1195.99,217.203" style="stroke: #A80036; stroke-width: 1.0;"/><path d="M1220.64,350.238 C1220.21,314.246 1219.47,252.386 1218.88,203.293 " fill="none" style="stroke: #A80036; stroke-width: 1.0;"/><polygon fill="#A80036" points="1218.82,198.282,1214.9283,207.3293,1218.88,203.2816,1222.9277,207.2334,1218.82,198.282" style="stroke: #A80036; stroke-width: 1.0;"/><text fill="#000000" font-family="sans-serif" font-size="13" lengthAdjust="spacingAndGlyphs" textLength="40" x="1248.5" y="241.5684">parent</text><text fill="#000000" font-family="sans-serif" font-size="13" lengthAdjust="spacingAndGlyphs" textLength="97" x="1220" y="256.8789">previousSibling</text><text fill="#000000" font-family="sans-serif" font-size="13" lengthAdjust="spacingAndGlyphs" textLength="71" x="1233" y="272.1895">nextSibling</text><path d="M1021.01,156.51 C843.358,183.892 576.327,232.609 352,305 C324.913,313.741 296.355,325.606 270.708,337.317 " fill="none" style="stroke: #A80036; stroke-width: 1.0;"/><polygon fill="none" points="1020.05,149.576,1040.87,153.48,1022.16,163.416,1020.05,149.576" style="stroke: #A80036; stroke-width: 1.0;"/><path d="M1200.84,430.653 C1183.16,473.314 1157.71,534.735 1140.78,575.592 " fill="none" style="stroke: #A80036; stroke-width: 1.0;"/><polygon fill="none" points="1194.47,427.75,1208.59,411.953,1207.4,433.109,1194.47,427.75" style="stroke: #A80036; stroke-width: 1.0;"/><path d="M1021.87,201.388 C936.164,232.95 834.516,270.585 743,305 C737.117,307.212 731.138,309.467 725.1,311.748 " fill="none" style="stroke: #A80036; stroke-width: 1.0;"/><polygon fill="none" points="1019.56,194.778,1040.75,194.438,1024.4,207.916,1019.56,194.778" style="stroke: #A80036; stroke-width: 1.0;"/><path d="M1121.69,211.281 C1080.9,245.916 1034.16,285.612 996.254,317.796 " fill="none" style="stroke: #A80036; stroke-width: 1.0;"/><polygon fill="none" points="1117.22,205.891,1137,198.282,1126.29,216.563,1117.22,205.891" style="stroke: #A80036; stroke-width: 1.0;"/><path d="M1312.29,211.51 C1352.04,246.09 1397.56,285.683 1434.48,317.796 " fill="none" style="stroke: #A80036; stroke-width: 1.0;"/><polygon fill="none" points="1307.57,216.689,1297.08,198.282,1316.76,206.125,1307.57,216.689" style="stroke: #A80036; stroke-width: 1.0;"/><path d="M1327.69,198.164 C1340.96,207.718 1354.03,217.777 1366,228 C1396.29,253.872 1426.65,285.897 1451.31,313.869 " fill="none" style="stroke: #A80036; stroke-width: 1.0;"/><polygon fill="#A80036" points="1454.9,317.966,1451.9681,308.5637,1451.6012,314.2086,1445.9563,313.8417,1454.9,317.966" style="stroke: #A80036; stroke-width: 1.0;"/><text fill="#000000" font-family="sans-serif" font-size="13" lengthAdjust="spacingAndGlyphs" textLength="51" x="1416" y="256.5684">diagram</text><path d="M1414.16,201.911 C1495.08,232.579 1589.51,269.401 1674,305 C1698.07,315.141 1723.87,326.589 1747.76,337.432 " fill="none" style="stroke: #A80036; stroke-width: 1.0;"/><polygon fill="none" points="1411.48,208.379,1395.24,194.759,1416.43,195.284,1411.48,208.379" style="stroke: #A80036; stroke-width: 1.0;"/><path d="M1272.07,424.53 C1303.41,450.623 1344.94,485.207 1384.24,517.94 " fill="none" style="stroke: #A80036; stroke-width: 1.0;"/><polygon fill="none" points="1267.57,429.891,1256.68,411.713,1276.53,419.133,1267.57,429.891" style="stroke: #A80036; stroke-width: 1.0;"/><path d="M1488.28,741.466 C1488.14,750.439 1488.35,759.358 1489,768 C1489.73,777.659 1490.86,787.806 1492.18,797.764 " fill="none" style="stroke: #A80036; stroke-width: 1.0;"/><polygon fill="none" points="1481.29,740.878,1489.12,721.186,1495.28,741.46,1481.29,740.878" style="stroke: #A80036; stroke-width: 1.0;"/><path d="M1504.28,797.809 C1504.37,775.669 1504.47,750.591 1504.57,726.412 " fill="none" style="stroke: #A80036; stroke-width: 1.0;"/><polygon fill="#A80036" points="1504.59,721.267,1500.5515,730.2498,1504.5686,726.267,1508.5514,730.2841,1504.59,721.267" style="stroke: #A80036; stroke-width: 1.0;"/><text fill="#000000" font-family="sans-serif" font-size="13" lengthAdjust="spacingAndGlyphs" textLength="40" x="1505" y="764.5684">parent</text><path d="M1504,957.754 C1504,972.149 1504,986.11 1504,997.7129 " fill="none" style="stroke: #A80036; stroke-width: 1.0;"/><polygon fill="none" points="1497,957.315,1504,937.315,1511,957.315,1497,957.315" style="stroke: #A80036; stroke-width: 1.0;"/><path d="M1395.06,108.842 C1416.2,112.416 1430,118.969 1430,128.5 C1430,137.212 1418.47,143.436 1400.35,147.171 " fill="none" style="stroke: #A80036; stroke-width: 1.0;"/><polygon fill="#A80036" points="1395.06,148.158,1404.6397,150.4448,1399.9757,147.2437,1403.1768,142.5797,1395.06,148.158" style="stroke: #A80036; stroke-width: 1.0;"/><text fill="#000000" font-family="sans-serif" font-size="13" lengthAdjust="spacingAndGlyphs" textLength="51" x="1436" y="133.5684">children</text><text fill="#000000" font-family="sans-serif" font-size="13" lengthAdjust="spacingAndGlyphs" textLength="6" x="1403.219" y="146.2914">*</text></g></svg>