<?xml version="1.0" encoding="UTF-8" standalone="no"?><svg xmlns="http://www.w3.org/2000/svg" xmlns:xlink="http://www.w3.org/1999/xlink" contentScriptType="application/ecmascript" contentStyleType="text/css" height="1069px" preserveAspectRatio="none" style="width:2006px;height:1069px;" version="1.1" viewBox="0 0 2006 1069" width="2006px" zoomAndPan="magnify"><defs><filter height="300%" id="fnz47ii" width="300%" x="-1" y="-1"><feGaussianBlur result="blurOut" stdDeviation="2.0"/><feColorMatrix in="blurOut" result="blurOut2" type="matrix" values="0 0 0 0 0 0 0 0 0 0 0 0 0 0 0 0 0 0 .4 0"/><feOffset dx="4.0" dy="4.0" in="blurOut2" result="blurOut3"/><feBlend in="SourceGraphic" in2="blurOut3" mode="normal"/></filter></defs><g><!--cluster nl.talsmasoftware.umldoclet.rendering--><polygon fill="#FFFFFF" filter="url(#fnz47ii)" points="22,24,304,24,311,46.4883,1999,46.4883,1999,1062,22,1062,22,24" style="stroke: #000000; stroke-width: 2.0;"/><line style="stroke: #000000; stroke-width: 2.0;" x1="22" x2="311" y1="46.4883" y2="46.4883"/><text fill="#000000" font-family="sans-serif" font-size="14" font-weight="bold" lengthAdjust="spacingAndGlyphs" textLength="276" x="26" y="39.5352">nl.talsmasoftware.umldoclet.rendering</text><!--class nl.talsmasoftware.umldoclet.rendering.UMLDiagram--><rect fill="#FEFECE" filter="url(#fnz47ii)" height="125.7305" style="stroke: #A80036; stroke-width: 1.5;" width="296" x="38" y="311.5"/><ellipse cx="145.25" cy="327.5" fill="#ADD1B2" rx="11" ry="11" style="stroke: #A80036; stroke-width: 1.0;"/><path d="M148.2231,333.1431 Q147.6421,333.4419 147.0029,333.5913 Q146.3638,333.7407 145.6582,333.7407 Q143.1514,333.7407 141.8315,332.0889 Q140.5117,330.437 140.5117,327.3159 Q140.5117,324.1865 141.8315,322.5347 Q143.1514,320.8828 145.6582,320.8828 Q146.3638,320.8828 147.0112,321.0322 Q147.6587,321.1816 148.2231,321.4805 L148.2231,324.2031 Q147.5923,323.6221 146.9988,323.3523 Q146.4053,323.0825 145.7744,323.0825 Q144.4297,323.0825 143.7449,324.1492 Q143.0601,325.2158 143.0601,327.3159 Q143.0601,329.4077 143.7449,330.4744 Q144.4297,331.541 145.7744,331.541 Q146.4053,331.541 146.9988,331.2712 Q147.5923,331.0015 148.2231,330.4204 Z "/><text fill="#000000" font-family="sans-serif" font-size="12" lengthAdjust="spacingAndGlyphs" textLength="73" x="165.75" y="332.0352">UMLDiagram</text><line style="stroke: #A80036; stroke-width: 1.5;" x1="39" x2="333" y1="343.5" y2="343.5"/><polygon fill="none" points="49,350.4775,53,354.4775,49,358.4775,45,354.4775" style="stroke: #B38D22; stroke-width: 1.0;"/><text fill="#000000" font-family="sans-serif" font-size="11" lengthAdjust="spacingAndGlyphs" textLength="133" x="58" y="358.1348">config: UMLDocletConfig</text><line style="stroke: #A80036; stroke-width: 1.5;" x1="39" x2="333" y1="364.4551" y2="364.4551"/><ellipse cx="49" cy="376.4326" fill="#84BE84" rx="3" ry="3" style="stroke: #038048; stroke-width: 1.0;"/><text fill="#000000" font-family="sans-serif" font-size="11" lengthAdjust="spacingAndGlyphs" textLength="169" x="58" y="379.0898">UMLDiagram(UMLDocletConfig)</text><ellipse cx="49" cy="389.3877" fill="#84BE84" rx="3" ry="3" style="stroke: #038048; stroke-width: 1.0;"/><text fill="#000000" font-family="sans-serif" font-size="11" lengthAdjust="spacingAndGlyphs" textLength="181" x="58" y="392.0449">addClass(ClassDoc): UMLDiagram</text><ellipse cx="49" cy="402.3428" fill="#84BE84" rx="3" ry="3" style="stroke: #038048; stroke-width: 1.0;"/><text fill="#000000" font-family="sans-serif" font-size="11" lengthAdjust="spacingAndGlyphs" textLength="209" x="58" y="405">addPackage(PackageDoc): UMLDiagram</text><ellipse cx="49" cy="415.2979" fill="#84BE84" rx="3" ry="3" style="stroke: #038048; stroke-width: 1.0;"/><text fill="#000000" font-family="sans-serif" font-size="11" lengthAdjust="spacingAndGlyphs" textLength="248" x="58" y="417.9551">addDependencyDiagram(Object): UMLDiagram</text><polygon fill="#FFFF44" points="49,423.2529,53,427.2529,49,431.2529,45,427.2529" style="stroke: #B38D22; stroke-width: 1.0;"/><text fill="#000000" font-family="sans-serif" font-size="11" lengthAdjust="spacingAndGlyphs" textLength="270" x="58" y="430.9102">writeTo(IndentingPrintWriter): IndentingPrintWriter</text><!--class nl.talsmasoftware.umldoclet.rendering.Renderer--><rect fill="#FEFECE" filter="url(#fnz47ii)" height="138.6855" style="stroke: #A80036; stroke-width: 1.5;" width="354" x="804" y="59"/><ellipse cx="949.75" cy="75" fill="#A9DCDF" rx="11" ry="11" style="stroke: #A80036; stroke-width: 1.0;"/><path d="M949.8633,70.3481 L948.7095,75.4199 L951.0254,75.4199 Z M948.3691,68.1069 L951.3657,68.1069 L954.7109,80.5 L952.2622,80.5 L951.4985,77.437 L948.2197,77.437 L947.4727,80.5 L945.0239,80.5 Z "/><text fill="#000000" font-family="sans-serif" font-size="12" font-style="italic" lengthAdjust="spacingAndGlyphs" textLength="54" x="970.25" y="79.5352">Renderer</text><line style="stroke: #A80036; stroke-width: 1.5;" x1="805" x2="1157" y1="91" y2="91"/><line style="stroke: #A80036; stroke-width: 1.5;" x1="805" x2="1157" y1="99" y2="99"/><polygon fill="#FFFF44" points="815,105.9775,819,109.9775,815,113.9775,811,109.9775" style="stroke: #B38D22; stroke-width: 1.0;"/><text fill="#000000" font-family="sans-serif" font-size="11" lengthAdjust="spacingAndGlyphs" textLength="125" x="824" y="113.6348">Renderer(UMLDiagram)</text><ellipse cx="815" cy="123.9326" fill="#84BE84" rx="3" ry="3" style="stroke: #038048; stroke-width: 1.0;"/><text fill="#000000" font-family="sans-serif" font-size="11" lengthAdjust="spacingAndGlyphs" textLength="118" x="824" y="126.5898">writeTo(Writer): Writer</text><polygon fill="#FFFF44" points="815,131.8877,819,135.8877,815,139.8877,811,135.8877" style="stroke: #B38D22; stroke-width: 1.0;"/><text fill="#000000" font-family="sans-serif" font-size="11" lengthAdjust="spacingAndGlyphs" textLength="316" x="824" y="139.5449">writeChildrenTo(IndentingPrintWriter): IndentingPrintWriter</text><polygon fill="#FFFF44" points="815,144.8428,819,148.8428,815,152.8428,811,148.8428" style="stroke: #B38D22; stroke-width: 1.0;"/><text fill="#000000" font-family="sans-serif" font-size="11" lengthAdjust="spacingAndGlyphs" textLength="110" x="824" y="152.5">lastChild(): Renderer</text><polygon fill="#FFFF44" points="815,157.7979,819,161.7979,815,165.7979,811,161.7979" style="stroke: #B38D22; stroke-width: 1.0;"/><text fill="#000000" font-family="sans-serif" font-size="11" lengthAdjust="spacingAndGlyphs" text-decoration="underline" textLength="328" x="824" y="165.4551">writeTypeTo(IndentingPrintWriter, Type): IndentingPrintWriter</text><line style="stroke: #000000; stroke-width: 1.0;" x1="824" x2="1152" y1="167.4551" y2="167.4551"/><ellipse cx="815" cy="175.7529" fill="#84BE84" rx="3" ry="3" style="stroke: #038048; stroke-width: 1.0;"/><text fill="#000000" font-family="sans-serif" font-size="11" lengthAdjust="spacingAndGlyphs" text-decoration="underline" textLength="116" x="824" y="178.4102">quoted(String): String</text><line style="stroke: #000000; stroke-width: 1.0;" x1="824" x2="940" y1="180.4102" y2="180.4102"/><polygon fill="#FFFF44" points="815,183.708,819,187.708,815,191.708,811,187.708" style="stroke: #B38D22; stroke-width: 1.0;"/><text fill="#000000" font-family="sans-serif" font-size="11" font-style="italic" lengthAdjust="spacingAndGlyphs" textLength="270" x="824" y="191.3652">writeTo(IndentingPrintWriter): IndentingPrintWriter</text><!--class nl.talsmasoftware.umldoclet.rendering.ParentAwareRenderer--><rect fill="#FEFECE" filter="url(#fnz47ii)" height="60.9551" style="stroke: #A80036; stroke-width: 1.5;" width="199" x="1091.5" y="344"/><ellipse cx="1124.5" cy="360" fill="#A9DCDF" rx="11" ry="11" style="stroke: #A80036; stroke-width: 1.0;"/><path d="M1124.6133,355.3481 L1123.4595,360.4199 L1125.7754,360.4199 Z M1123.1191,353.1069 L1126.1157,353.1069 L1129.4609,365.5 L1127.0122,365.5 L1126.2485,362.437 L1122.9697,362.437 L1122.2227,365.5 L1119.7739,365.5 Z "/><text fill="#000000" font-family="sans-serif" font-size="12" font-style="italic" lengthAdjust="spacingAndGlyphs" textLength="127" x="1142.5" y="364.5352">ParentAwareRenderer</text><line style="stroke: #A80036; stroke-width: 1.5;" x1="1092.5" x2="1289.5" y1="376" y2="376"/><line style="stroke: #A80036; stroke-width: 1.5;" x1="1092.5" x2="1289.5" y1="384" y2="384"/><polygon fill="#FFFF44" points="1102.5,390.9775,1106.5,394.9775,1102.5,398.9775,1098.5,394.9775" style="stroke: #B38D22; stroke-width: 1.0;"/><text fill="#000000" font-family="sans-serif" font-size="11" lengthAdjust="spacingAndGlyphs" textLength="173" x="1111.5" y="398.6348">ParentAwareRenderer(Renderer)</text><!--class nl.talsmasoftware.umldoclet.rendering.PackageRenderer--><rect fill="#FEFECE" filter="url(#fnz47ii)" height="86.8652" style="stroke: #A80036; stroke-width: 1.5;" width="296" x="369" y="331"/><ellipse cx="461.75" cy="347" fill="#ADD1B2" rx="11" ry="11" style="stroke: #A80036; stroke-width: 1.0;"/><path d="M464.7231,352.6431 Q464.1421,352.9419 463.5029,353.0913 Q462.8638,353.2407 462.1582,353.2407 Q459.6514,353.2407 458.3315,351.5889 Q457.0117,349.937 457.0117,346.8159 Q457.0117,343.6865 458.3315,342.0347 Q459.6514,340.3828 462.1582,340.3828 Q462.8638,340.3828 463.5112,340.5322 Q464.1587,340.6816 464.7231,340.9805 L464.7231,343.7031 Q464.0923,343.1221 463.4988,342.8523 Q462.9053,342.5825 462.2744,342.5825 Q460.9297,342.5825 460.2449,343.6492 Q459.5601,344.7158 459.5601,346.8159 Q459.5601,348.9077 460.2449,349.9744 Q460.9297,351.041 462.2744,351.041 Q462.9053,351.041 463.4988,350.7712 Q464.0923,350.5015 464.7231,349.9204 Z "/><text fill="#000000" font-family="sans-serif" font-size="12" lengthAdjust="spacingAndGlyphs" textLength="102" x="482.25" y="351.5352">PackageRenderer</text><line style="stroke: #A80036; stroke-width: 1.5;" x1="370" x2="664" y1="363" y2="363"/><polygon fill="none" points="380,369.9775,384,373.9775,380,377.9775,376,373.9775" style="stroke: #B38D22; stroke-width: 1.0;"/><text fill="#000000" font-family="sans-serif" font-size="11" lengthAdjust="spacingAndGlyphs" textLength="135" x="389" y="377.6348">packageDoc: PackageDoc</text><line style="stroke: #A80036; stroke-width: 1.5;" x1="370" x2="664" y1="383.9551" y2="383.9551"/><polygon fill="#FFFF44" points="380,390.9326,384,394.9326,380,398.9326,376,394.9326" style="stroke: #B38D22; stroke-width: 1.0;"/><text fill="#000000" font-family="sans-serif" font-size="11" lengthAdjust="spacingAndGlyphs" textLength="238" x="389" y="398.5898">PackageRenderer(UMLDiagram, PackageDoc)</text><polygon fill="#FFFF44" points="380,403.8877,384,407.8877,380,411.8877,376,407.8877" style="stroke: #B38D22; stroke-width: 1.0;"/><text fill="#000000" font-family="sans-serif" font-size="11" lengthAdjust="spacingAndGlyphs" textLength="270" x="389" y="411.5449">writeTo(IndentingPrintWriter): IndentingPrintWriter</text><!--class nl.talsmasoftware.umldoclet.rendering.NoteRenderer--><rect fill="#FEFECE" filter="url(#fnz47ii)" height="86.8652" style="stroke: #A80036; stroke-width: 1.5;" width="296" x="945" y="563"/><ellipse cx="1048.25" cy="579" fill="#ADD1B2" rx="11" ry="11" style="stroke: #A80036; stroke-width: 1.0;"/><path d="M1051.2231,584.6431 Q1050.6421,584.9419 1050.0029,585.0913 Q1049.3638,585.2407 1048.6582,585.2407 Q1046.1514,585.2407 1044.8315,583.5889 Q1043.5117,581.937 1043.5117,578.8159 Q1043.5117,575.6865 1044.8315,574.0347 Q1046.1514,572.3828 1048.6582,572.3828 Q1049.3638,572.3828 1050.0112,572.5322 Q1050.6587,572.6816 1051.2231,572.9805 L1051.2231,575.7031 Q1050.5923,575.1221 1049.9988,574.8523 Q1049.4053,574.5825 1048.7744,574.5825 Q1047.4297,574.5825 1046.7449,575.6492 Q1046.0601,576.7158 1046.0601,578.8159 Q1046.0601,580.9077 1046.7449,581.9744 Q1047.4297,583.041 1048.7744,583.041 Q1049.4053,583.041 1049.9988,582.7712 Q1050.5923,582.5015 1051.2231,581.9204 Z "/><text fill="#000000" font-family="sans-serif" font-size="12" lengthAdjust="spacingAndGlyphs" textLength="81" x="1068.75" y="583.5352">NoteRenderer</text><line style="stroke: #A80036; stroke-width: 1.5;" x1="946" x2="1240" y1="595" y2="595"/><polygon fill="none" points="956,601.9775,960,605.9775,956,609.9775,952,605.9775" style="stroke: #B38D22; stroke-width: 1.0;"/><text fill="#000000" font-family="sans-serif" font-size="11" lengthAdjust="spacingAndGlyphs" textLength="62" x="965" y="609.6348">note: String</text><line style="stroke: #A80036; stroke-width: 1.5;" x1="946" x2="1240" y1="615.9551" y2="615.9551"/><polygon fill="#FFFF44" points="956,622.9326,960,626.9326,956,630.9326,952,626.9326" style="stroke: #B38D22; stroke-width: 1.0;"/><text fill="#000000" font-family="sans-serif" font-size="11" lengthAdjust="spacingAndGlyphs" textLength="169" x="965" y="630.5898">NoteRenderer(Renderer, String)</text><polygon fill="#FFFF44" points="956,635.8877,960,639.8877,956,643.8877,952,639.8877" style="stroke: #B38D22; stroke-width: 1.0;"/><text fill="#000000" font-family="sans-serif" font-size="11" lengthAdjust="spacingAndGlyphs" textLength="270" x="965" y="643.5449">writeTo(IndentingPrintWriter): IndentingPrintWriter</text><!--class nl.talsmasoftware.umldoclet.rendering.MethodRenderer--><rect fill="#FEFECE" filter="url(#fnz47ii)" height="138.6855" style="stroke: #A80036; stroke-width: 1.5;" width="356" x="700" y="305"/><ellipse cx="825.25" cy="321" fill="#ADD1B2" rx="11" ry="11" style="stroke: #A80036; stroke-width: 1.0;"/><path d="M828.2231,326.6431 Q827.6421,326.9419 827.0029,327.0913 Q826.3638,327.2407 825.6582,327.2407 Q823.1514,327.2407 821.8315,325.5889 Q820.5117,323.937 820.5117,320.8159 Q820.5117,317.6865 821.8315,316.0347 Q823.1514,314.3828 825.6582,314.3828 Q826.3638,314.3828 827.0112,314.5322 Q827.6587,314.6816 828.2231,314.9805 L828.2231,317.7031 Q827.5923,317.1221 826.9988,316.8523 Q826.4053,316.5825 825.7744,316.5825 Q824.4297,316.5825 823.7449,317.6492 Q823.0601,318.7158 823.0601,320.8159 Q823.0601,322.9077 823.7449,323.9744 Q824.4297,325.041 825.7744,325.041 Q826.4053,325.041 826.9988,324.7712 Q827.5923,324.5015 828.2231,323.9204 Z "/><text fill="#000000" font-family="sans-serif" font-size="12" lengthAdjust="spacingAndGlyphs" textLength="97" x="845.75" y="325.5352">MethodRenderer</text><line style="stroke: #A80036; stroke-width: 1.5;" x1="701" x2="1055" y1="337" y2="337"/><polygon fill="none" points="711,343.9775,715,347.9775,711,351.9775,707,347.9775" style="stroke: #B38D22; stroke-width: 1.0;"/><text fill="#000000" font-family="sans-serif" font-size="11" lengthAdjust="spacingAndGlyphs" textLength="190" x="720" y="351.6348">methodDoc: ExecutableMemberDoc</text><line style="stroke: #A80036; stroke-width: 1.5;" x1="701" x2="1055" y1="357.9551" y2="357.9551"/><polygon fill="#FFFF44" points="711,364.9326,715,368.9326,711,372.9326,707,368.9326" style="stroke: #B38D22; stroke-width: 1.0;"/><text fill="#000000" font-family="sans-serif" font-size="11" lengthAdjust="spacingAndGlyphs" textLength="293" x="720" y="372.5898">MethodRenderer(UMLDiagram, ExecutableMemberDoc)</text><polygon fill="#FFFF44" points="711,377.8877,715,381.8877,711,385.8877,707,381.8877" style="stroke: #B38D22; stroke-width: 1.0;"/><text fill="#000000" font-family="sans-serif" font-size="11" lengthAdjust="spacingAndGlyphs" textLength="136" x="720" y="385.5449">includeMethod(): boolean</text><polygon fill="#FFFF44" points="711,390.8428,715,394.8428,711,398.8428,707,394.8428" style="stroke: #B38D22; stroke-width: 1.0;"/><text fill="#000000" font-family="sans-serif" font-size="11" lengthAdjust="spacingAndGlyphs" textLength="300" x="720" y="398.5">writeNameTo(IndentingPrintWriter): IndentingPrintWriter</text><polygon fill="#FFFF44" points="711,403.7979,715,407.7979,711,411.7979,707,407.7979" style="stroke: #B38D22; stroke-width: 1.0;"/><text fill="#000000" font-family="sans-serif" font-size="11" lengthAdjust="spacingAndGlyphs" textLength="330" x="720" y="411.4551">writeParametersTo(IndentingPrintWriter): IndentingPrintWriter</text><polygon fill="#FFFF44" points="711,416.7529,715,420.7529,711,424.7529,707,420.7529" style="stroke: #B38D22; stroke-width: 1.0;"/><text fill="#000000" font-family="sans-serif" font-size="11" lengthAdjust="spacingAndGlyphs" textLength="270" x="720" y="424.4102">writeTo(IndentingPrintWriter): IndentingPrintWriter</text><polygon fill="#FFFF44" points="711,429.708,715,433.708,711,437.708,707,433.708" style="stroke: #B38D22; stroke-width: 1.0;"/><text fill="#000000" font-family="sans-serif" font-size="11" lengthAdjust="spacingAndGlyphs" textLength="123" x="720" y="437.3652">propertyName(): String</text><!--class nl.talsmasoftware.umldoclet.rendering.LegacyTag--><rect fill="#FEFECE" filter="url(#fnz47ii)" height="138.6855" style="stroke: #A80036; stroke-width: 1.5;" width="170" x="367" y="59"/><ellipse cx="417.25" cy="75" fill="#EB937F" rx="11" ry="11" style="stroke: #A80036; stroke-width: 1.0;"/><path d="M421.3643,81 L413.6445,81 L413.6445,68.6069 L421.3643,68.6069 L421.3643,70.7651 L416.0933,70.7651 L416.0933,73.438 L420.8662,73.438 L420.8662,75.5962 L416.0933,75.5962 L416.0933,78.8418 L421.3643,78.8418 Z "/><text fill="#000000" font-family="sans-serif" font-size="12" lengthAdjust="spacingAndGlyphs" textLength="61" x="437.75" y="79.5352">LegacyTag</text><line style="stroke: #A80036; stroke-width: 1.5;" x1="368" x2="536" y1="91" y2="91"/><ellipse cx="378" cy="102.9775" fill="none" rx="3" ry="3" style="stroke: #038048; stroke-width: 1.0;"/><text fill="#000000" font-family="sans-serif" font-size="11" lengthAdjust="spacingAndGlyphs" text-decoration="underline" textLength="48" x="387" y="105.6348">EXTENDS</text><line style="stroke: #000000; stroke-width: 1.0;" x1="387" x2="435" y1="107.6348" y2="107.6348"/><ellipse cx="378" cy="115.9326" fill="none" rx="3" ry="3" style="stroke: #038048; stroke-width: 1.0;"/><text fill="#000000" font-family="sans-serif" font-size="11" lengthAdjust="spacingAndGlyphs" text-decoration="underline" textLength="66" x="387" y="118.5898">IMPLEMENTS</text><line style="stroke: #000000; stroke-width: 1.0;" x1="387" x2="453" y1="120.5898" y2="120.5898"/><ellipse cx="378" cy="128.8877" fill="none" rx="3" ry="3" style="stroke: #038048; stroke-width: 1.0;"/><text fill="#000000" font-family="sans-serif" font-size="11" lengthAdjust="spacingAndGlyphs" text-decoration="underline" textLength="37" x="387" y="131.5449">ASSOC</text><line style="stroke: #000000; stroke-width: 1.0;" x1="387" x2="424" y1="133.5449" y2="133.5449"/><ellipse cx="378" cy="141.8428" fill="none" rx="3" ry="3" style="stroke: #038048; stroke-width: 1.0;"/><text fill="#000000" font-family="sans-serif" font-size="11" lengthAdjust="spacingAndGlyphs" text-decoration="underline" textLength="60" x="387" y="144.5">NAVASSOC</text><line style="stroke: #000000; stroke-width: 1.0;" x1="387" x2="447" y1="146.5" y2="146.5"/><ellipse cx="378" cy="154.7979" fill="none" rx="3" ry="3" style="stroke: #038048; stroke-width: 1.0;"/><text fill="#000000" font-family="sans-serif" font-size="11" lengthAdjust="spacingAndGlyphs" text-decoration="underline" textLength="42" x="387" y="157.4551">DEPEND</text><line style="stroke: #000000; stroke-width: 1.0;" x1="387" x2="429" y1="159.4551" y2="159.4551"/><line style="stroke: #A80036; stroke-width: 1.5;" x1="368" x2="536" y1="163.7754" y2="163.7754"/><ellipse cx="378" cy="175.7529" fill="#84BE84" rx="3" ry="3" style="stroke: #038048; stroke-width: 1.0;"/><text fill="#000000" font-family="sans-serif" font-size="11" lengthAdjust="spacingAndGlyphs" text-decoration="underline" textLength="113" x="387" y="178.4102">values(): LegacyTag[]</text><line style="stroke: #000000; stroke-width: 1.0;" x1="387" x2="500" y1="180.4102" y2="180.4102"/><ellipse cx="378" cy="188.708" fill="#84BE84" rx="3" ry="3" style="stroke: #038048; stroke-width: 1.0;"/><text fill="#000000" font-family="sans-serif" font-size="11" lengthAdjust="spacingAndGlyphs" text-decoration="underline" textLength="144" x="387" y="191.3652">valueOf(String): LegacyTag</text><line style="stroke: #000000; stroke-width: 1.0;" x1="387" x2="531" y1="193.3652" y2="193.3652"/><!--class nl.talsmasoftware.umldoclet.rendering.FieldRenderer--><rect fill="#FEFECE" filter="url(#fnz47ii)" height="125.7305" style="stroke: #A80036; stroke-width: 1.5;" width="326" x="1326" y="311.5"/><ellipse cx="1444.25" cy="327.5" fill="#ADD1B2" rx="11" ry="11" style="stroke: #A80036; stroke-width: 1.0;"/><path d="M1447.2231,333.1431 Q1446.6421,333.4419 1446.0029,333.5913 Q1445.3638,333.7407 1444.6582,333.7407 Q1442.1514,333.7407 1440.8315,332.0889 Q1439.5117,330.437 1439.5117,327.3159 Q1439.5117,324.1865 1440.8315,322.5347 Q1442.1514,320.8828 1444.6582,320.8828 Q1445.3638,320.8828 1446.0112,321.0322 Q1446.6587,321.1816 1447.2231,321.4805 L1447.2231,324.2031 Q1446.5923,323.6221 1445.9988,323.3523 Q1445.4053,323.0825 1444.7744,323.0825 Q1443.4297,323.0825 1442.7449,324.1492 Q1442.0601,325.2158 1442.0601,327.3159 Q1442.0601,329.4077 1442.7449,330.4744 Q1443.4297,331.541 1444.7744,331.541 Q1445.4053,331.541 1445.9988,331.2712 Q1446.5923,331.0015 1447.2231,330.4204 Z "/><text fill="#000000" font-family="sans-serif" font-size="12" lengthAdjust="spacingAndGlyphs" textLength="81" x="1464.75" y="332.0352">FieldRenderer</text><line style="stroke: #A80036; stroke-width: 1.5;" x1="1327" x2="1651" y1="343.5" y2="343.5"/><polygon fill="none" points="1337,350.4775,1341,354.4775,1337,358.4775,1333,354.4775" style="stroke: #B38D22; stroke-width: 1.0;"/><text fill="#000000" font-family="sans-serif" font-size="11" lengthAdjust="spacingAndGlyphs" textLength="96" x="1346" y="358.1348">fieldDoc: FieldDoc</text><line style="stroke: #A80036; stroke-width: 1.5;" x1="1327" x2="1651" y1="364.4551" y2="364.4551"/><polygon fill="#FFFF44" points="1337,371.4326,1341,375.4326,1337,379.4326,1333,375.4326" style="stroke: #B38D22; stroke-width: 1.0;"/><text fill="#000000" font-family="sans-serif" font-size="11" lengthAdjust="spacingAndGlyphs" textLength="202" x="1346" y="379.0898">FieldRenderer(UMLDiagram, FieldDoc)</text><polygon fill="#FFFF44" points="1337,384.3877,1341,388.3877,1337,392.3877,1333,388.3877" style="stroke: #B38D22; stroke-width: 1.0;"/><text fill="#000000" font-family="sans-serif" font-size="11" lengthAdjust="spacingAndGlyphs" textLength="147" x="1346" y="392.0449">includeFieldType(): boolean</text><polygon fill="#FFFF44" points="1337,397.3428,1341,401.3428,1337,405.3428,1333,401.3428" style="stroke: #B38D22; stroke-width: 1.0;"/><text fill="#000000" font-family="sans-serif" font-size="11" lengthAdjust="spacingAndGlyphs" textLength="121" x="1346" y="405">includeField(): boolean</text><polygon fill="#FFFF44" points="1337,410.2979,1341,414.2979,1337,418.2979,1333,414.2979" style="stroke: #B38D22; stroke-width: 1.0;"/><text fill="#000000" font-family="sans-serif" font-size="11" lengthAdjust="spacingAndGlyphs" textLength="300" x="1346" y="417.9551">writeNameTo(IndentingPrintWriter): IndentingPrintWriter</text><polygon fill="#FFFF44" points="1337,423.2529,1341,427.2529,1337,431.2529,1333,427.2529" style="stroke: #B38D22; stroke-width: 1.0;"/><text fill="#000000" font-family="sans-serif" font-size="11" lengthAdjust="spacingAndGlyphs" textLength="270" x="1346" y="430.9102">writeTo(IndentingPrintWriter): IndentingPrintWriter</text><!--class nl.talsmasoftware.umldoclet.rendering.CommandRenderer--><rect fill="#FEFECE" filter="url(#fnz47ii)" height="86.8652" style="stroke: #A80036; stroke-width: 1.5;" width="296" x="1687" y="331"/><ellipse cx="1774.25" cy="347" fill="#ADD1B2" rx="11" ry="11" style="stroke: #A80036; stroke-width: 1.0;"/><path d="M1777.2231,352.6431 Q1776.6421,352.9419 1776.0029,353.0913 Q1775.3638,353.2407 1774.6582,353.2407 Q1772.1514,353.2407 1770.8315,351.5889 Q1769.5117,349.937 1769.5117,346.8159 Q1769.5117,343.6865 1770.8315,342.0347 Q1772.1514,340.3828 1774.6582,340.3828 Q1775.3638,340.3828 1776.0112,340.5322 Q1776.6587,340.6816 1777.2231,340.9805 L1777.2231,343.7031 Q1776.5923,343.1221 1775.9988,342.8523 Q1775.4053,342.5825 1774.7744,342.5825 Q1773.4297,342.5825 1772.7449,343.6492 Q1772.0601,344.7158 1772.0601,346.8159 Q1772.0601,348.9077 1772.7449,349.9744 Q1773.4297,351.041 1774.7744,351.041 Q1775.4053,351.041 1775.9988,350.7712 Q1776.5923,350.5015 1777.2231,349.9204 Z "/><text fill="#000000" font-family="sans-serif" font-size="12" lengthAdjust="spacingAndGlyphs" textLength="113" x="1794.75" y="351.5352">CommandRenderer</text><line style="stroke: #A80036; stroke-width: 1.5;" x1="1688" x2="1982" y1="363" y2="363"/><polygon fill="none" points="1698,369.9775,1702,373.9775,1698,377.9775,1694,373.9775" style="stroke: #B38D22; stroke-width: 1.0;"/><text fill="#000000" font-family="sans-serif" font-size="11" lengthAdjust="spacingAndGlyphs" textLength="91" x="1707" y="377.6348">command: String</text><line style="stroke: #A80036; stroke-width: 1.5;" x1="1688" x2="1982" y1="383.9551" y2="383.9551"/><polygon fill="#FFFF44" points="1698,390.9326,1702,394.9326,1698,398.9326,1694,394.9326" style="stroke: #B38D22; stroke-width: 1.0;"/><text fill="#000000" font-family="sans-serif" font-size="11" lengthAdjust="spacingAndGlyphs" textLength="218" x="1707" y="398.5898">CommandRenderer(UMLDiagram, String)</text><polygon fill="#FFFF44" points="1698,403.8877,1702,407.8877,1698,411.8877,1694,407.8877" style="stroke: #B38D22; stroke-width: 1.0;"/><text fill="#000000" font-family="sans-serif" font-size="11" lengthAdjust="spacingAndGlyphs" textLength="270" x="1707" y="411.5449">writeTo(IndentingPrintWriter): IndentingPrintWriter</text><!--class nl.talsmasoftware.umldoclet.rendering.ClassRenderer--><rect fill="#FEFECE" filter="url(#fnz47ii)" height="203.4609" style="stroke: #A80036; stroke-width: 1.5;" width="398" x="1276" y="505"/><ellipse cx="1428.75" cy="521" fill="#ADD1B2" rx="11" ry="11" style="stroke: #A80036; stroke-width: 1.0;"/><path d="M1431.7231,526.6431 Q1431.1421,526.9419 1430.5029,527.0913 Q1429.8638,527.2407 1429.1582,527.2407 Q1426.6514,527.2407 1425.3315,525.5889 Q1424.0117,523.937 1424.0117,520.8159 Q1424.0117,517.6865 1425.3315,516.0347 Q1426.6514,514.3828 1429.1582,514.3828 Q1429.8638,514.3828 1430.5112,514.5322 Q1431.1587,514.6816 1431.7231,514.9805 L1431.7231,517.7031 Q1431.0923,517.1221 1430.4988,516.8523 Q1429.9053,516.5825 1429.2744,516.5825 Q1427.9297,516.5825 1427.2449,517.6492 Q1426.5601,518.7158 1426.5601,520.8159 Q1426.5601,522.9077 1427.2449,523.9744 Q1427.9297,525.041 1429.2744,525.041 Q1429.9053,525.041 1430.4988,524.7712 Q1431.0923,524.5015 1431.7231,523.9204 Z "/><text fill="#000000" font-family="sans-serif" font-size="12" lengthAdjust="spacingAndGlyphs" textLength="84" x="1449.25" y="525.5352">ClassRenderer</text><line style="stroke: #A80036; stroke-width: 1.5;" x1="1277" x2="1673" y1="537" y2="537"/><polygon fill="none" points="1287,543.9775,1291,547.9775,1287,551.9775,1283,547.9775" style="stroke: #B38D22; stroke-width: 1.0;"/><text fill="#000000" font-family="sans-serif" font-size="11" lengthAdjust="spacingAndGlyphs" textLength="104" x="1296" y="551.6348">classDoc: ClassDoc</text><line style="stroke: #A80036; stroke-width: 1.5;" x1="1277" x2="1673" y1="557.9551" y2="557.9551"/><polygon fill="#FFFF44" points="1287,564.9326,1291,568.9326,1287,572.9326,1283,568.9326" style="stroke: #B38D22; stroke-width: 1.0;"/><text fill="#000000" font-family="sans-serif" font-size="11" lengthAdjust="spacingAndGlyphs" textLength="191" x="1296" y="572.5898">ClassRenderer(Renderer, ClassDoc)</text><polygon fill="#FFFF44" points="1287,577.8877,1291,581.8877,1287,585.8877,1283,581.8877" style="stroke: #B38D22; stroke-width: 1.0;"/><text fill="#000000" font-family="sans-serif" font-size="11" lengthAdjust="spacingAndGlyphs" textLength="92" x="1296" y="585.5449">umlType(): String</text><polygon fill="#FFFF44" points="1287,590.8428,1291,594.8428,1287,598.8428,1283,594.8428" style="stroke: #B38D22; stroke-width: 1.0;"/><text fill="#000000" font-family="sans-serif" font-size="11" lengthAdjust="spacingAndGlyphs" text-decoration="underline" textLength="155" x="1296" y="598.5">umlTypeOf(ClassDoc): String</text><line style="stroke: #000000; stroke-width: 1.0;" x1="1296" x2="1451" y1="600.5" y2="600.5"/><polygon fill="#FFFF44" points="1287,603.7979,1291,607.7979,1287,611.7979,1283,607.7979" style="stroke: #B38D22; stroke-width: 1.0;"/><text fill="#000000" font-family="sans-serif" font-size="11" lengthAdjust="spacingAndGlyphs" textLength="317" x="1296" y="611.4551">writeGenericsTo(IndentingPrintWriter): IndentingPrintWriter</text><polygon fill="#FFFF44" points="1287,616.7529,1291,620.7529,1287,624.7529,1283,620.7529" style="stroke: #B38D22; stroke-width: 1.0;"/><text fill="#000000" font-family="sans-serif" font-size="11" lengthAdjust="spacingAndGlyphs" text-decoration="underline" textLength="372" x="1296" y="624.4102">writeGenericsOf(ClassDoc, IndentingPrintWriter): IndentingPrintWriter</text><line style="stroke: #000000; stroke-width: 1.0;" x1="1296" x2="1668" y1="626.4102" y2="626.4102"/><polygon fill="#FFFF44" points="1287,629.708,1291,633.708,1287,637.708,1283,633.708" style="stroke: #B38D22; stroke-width: 1.0;"/><text fill="#000000" font-family="sans-serif" font-size="11" lengthAdjust="spacingAndGlyphs" textLength="301" x="1296" y="637.3652">writeNotesTo(IndentingPrintWriter): IndentingPrintWriter</text><polygon fill="#FFFF44" points="1287,642.6631,1291,646.6631,1287,650.6631,1283,646.6631" style="stroke: #B38D22; stroke-width: 1.0;"/><text fill="#000000" font-family="sans-serif" font-size="11" lengthAdjust="spacingAndGlyphs" textLength="75" x="1296" y="650.3203">name(): String</text><polygon fill="#FFFF44" points="1287,655.6182,1291,659.6182,1287,663.6182,1283,659.6182" style="stroke: #B38D22; stroke-width: 1.0;"/><text fill="#000000" font-family="sans-serif" font-size="11" lengthAdjust="spacingAndGlyphs" textLength="120" x="1296" y="663.2754">nameOf(String): String</text><polygon fill="#FFFF44" points="1287,668.5732,1291,672.5732,1287,676.5732,1283,672.5732" style="stroke: #B38D22; stroke-width: 1.0;"/><text fill="#000000" font-family="sans-serif" font-size="11" lengthAdjust="spacingAndGlyphs" textLength="254" x="1296" y="676.2305">simplifyClassnameWithinPackage(String): String</text><polygon fill="#FFFF44" points="1287,681.5283,1291,685.5283,1287,689.5283,1283,685.5283" style="stroke: #B38D22; stroke-width: 1.0;"/><text fill="#000000" font-family="sans-serif" font-size="11" lengthAdjust="spacingAndGlyphs" textLength="300" x="1296" y="689.1855">writeNameTo(IndentingPrintWriter): IndentingPrintWriter</text><polygon fill="#FFFF44" points="1287,694.4834,1291,698.4834,1287,702.4834,1283,698.4834" style="stroke: #B38D22; stroke-width: 1.0;"/><text fill="#000000" font-family="sans-serif" font-size="11" lengthAdjust="spacingAndGlyphs" textLength="270" x="1296" y="702.1406">writeTo(IndentingPrintWriter): IndentingPrintWriter</text><!--class nl.talsmasoftware.umldoclet.rendering.ClassReferenceRenderer--><rect fill="#FEFECE" filter="url(#fnz47ii)" height="138.6855" style="stroke: #A80036; stroke-width: 1.5;" width="389" x="1279.5" y="785"/><ellipse cx="1398.75" cy="801" fill="#ADD1B2" rx="11" ry="11" style="stroke: #A80036; stroke-width: 1.0;"/><path d="M1401.7231,806.6431 Q1401.1421,806.9419 1400.5029,807.0913 Q1399.8638,807.2407 1399.1582,807.2407 Q1396.6514,807.2407 1395.3315,805.5889 Q1394.0117,803.937 1394.0117,800.8159 Q1394.0117,797.6865 1395.3315,796.0347 Q1396.6514,794.3828 1399.1582,794.3828 Q1399.8638,794.3828 1400.5112,794.5322 Q1401.1587,794.6816 1401.7231,794.9805 L1401.7231,797.7031 Q1401.0923,797.1221 1400.4988,796.8523 Q1399.9053,796.5825 1399.2744,796.5825 Q1397.9297,796.5825 1397.2449,797.6492 Q1396.5601,798.7158 1396.5601,800.8159 Q1396.5601,802.9077 1397.2449,803.9744 Q1397.9297,805.041 1399.2744,805.041 Q1399.9053,805.041 1400.4988,804.7712 Q1401.0923,804.5015 1401.7231,803.9204 Z "/><text fill="#000000" font-family="sans-serif" font-size="12" lengthAdjust="spacingAndGlyphs" textLength="142" x="1419.25" y="805.5352">ClassReferenceRenderer</text><line style="stroke: #A80036; stroke-width: 1.5;" x1="1280.5" x2="1667.5" y1="817" y2="817"/><polygon fill="none" points="1290.5,823.9775,1294.5,827.9775,1290.5,831.9775,1286.5,827.9775" style="stroke: #B38D22; stroke-width: 1.0;"/><text fill="#000000" font-family="sans-serif" font-size="11" lengthAdjust="spacingAndGlyphs" textLength="110" x="1299.5" y="831.6348">reference: Reference</text><line style="stroke: #A80036; stroke-width: 1.5;" x1="1280.5" x2="1667.5" y1="837.9551" y2="837.9551"/><polygon fill="#FFFF44" points="1290.5,844.9326,1294.5,848.9326,1290.5,852.9326,1286.5,848.9326" style="stroke: #B38D22; stroke-width: 1.0;"/><text fill="#000000" font-family="sans-serif" font-size="11" lengthAdjust="spacingAndGlyphs" textLength="293" x="1299.5" y="852.5898">ClassReferenceRenderer(ClassRenderer, String, String)</text><polygon fill="#FFFF44" points="1290.5,857.8877,1294.5,861.8877,1290.5,865.8877,1286.5,861.8877" style="stroke: #B38D22; stroke-width: 1.0;"/><text fill="#000000" font-family="sans-serif" font-size="11" lengthAdjust="spacingAndGlyphs" textLength="276" x="1299.5" y="865.5449">ClassReferenceRenderer(ClassRenderer, Reference)</text><polygon fill="#FFFF44" points="1290.5,870.8428,1294.5,874.8428,1290.5,878.8428,1286.5,874.8428" style="stroke: #B38D22; stroke-width: 1.0;"/><text fill="#000000" font-family="sans-serif" font-size="11" lengthAdjust="spacingAndGlyphs" textLength="363" x="1299.5" y="878.5">writeTypeDeclarationsTo(IndentingPrintWriter): IndentingPrintWriter</text><polygon fill="#FFFF44" points="1290.5,883.7979,1294.5,887.7979,1290.5,891.7979,1286.5,887.7979" style="stroke: #B38D22; stroke-width: 1.0;"/><text fill="#000000" font-family="sans-serif" font-size="11" lengthAdjust="spacingAndGlyphs" textLength="138" x="1299.5" y="891.4551">isSelfReference(): boolean</text><polygon fill="#FFFF44" points="1290.5,896.7529,1294.5,900.7529,1290.5,904.7529,1286.5,900.7529" style="stroke: #B38D22; stroke-width: 1.0;"/><text fill="#000000" font-family="sans-serif" font-size="11" lengthAdjust="spacingAndGlyphs" textLength="114" x="1299.5" y="904.4102">addNote(String): void</text><polygon fill="#FFFF44" points="1290.5,909.708,1294.5,913.708,1290.5,917.708,1286.5,913.708" style="stroke: #B38D22; stroke-width: 1.0;"/><text fill="#000000" font-family="sans-serif" font-size="11" lengthAdjust="spacingAndGlyphs" textLength="270" x="1299.5" y="917.3652">writeTo(IndentingPrintWriter): IndentingPrintWriter</text><!--class nl.talsmasoftware.umldoclet.rendering.ClassPropertyRenderer--><rect fill="#FEFECE" filter="url(#fnz47ii)" height="60.9551" style="stroke: #A80036; stroke-width: 1.5;" width="330" x="1309" y="985"/><ellipse cx="1403.25" cy="1001" fill="#ADD1B2" rx="11" ry="11" style="stroke: #A80036; stroke-width: 1.0;"/><path d="M1406.2231,1006.6431 Q1405.6421,1006.9419 1405.0029,1007.0913 Q1404.3638,1007.2407 1403.6582,1007.2407 Q1401.1514,1007.2407 1399.8315,1005.5889 Q1398.5117,1003.937 1398.5117,1000.8159 Q1398.5117,997.6865 1399.8315,996.0347 Q1401.1514,994.3828 1403.6582,994.3828 Q1404.3638,994.3828 1405.0112,994.5322 Q1405.6587,994.6816 1406.2231,994.9805 L1406.2231,997.7031 Q1405.5923,997.1221 1404.9988,996.8523 Q1404.4053,996.5825 1403.7744,996.5825 Q1402.4297,996.5825 1401.7449,997.6492 Q1401.0601,998.7158 1401.0601,1000.8159 Q1401.0601,1002.9077 1401.7449,1003.9744 Q1402.4297,1005.041 1403.7744,1005.041 Q1404.4053,1005.041 1404.9988,1004.7712 Q1405.5923,1004.5015 1406.2231,1003.9204 Z "/><text fill="#000000" font-family="sans-serif" font-size="12" lengthAdjust="spacingAndGlyphs" textLength="133" x="1423.75" y="1005.5352">ClassPropertyRenderer</text><line style="stroke: #A80036; stroke-width: 1.5;" x1="1310" x2="1638" y1="1017" y2="1017"/><line style="stroke: #A80036; stroke-width: 1.5;" x1="1310" x2="1638" y1="1025" y2="1025"/><polygon fill="#FFFF44" points="1320,1031.9775,1324,1035.9775,1320,1039.9775,1316,1035.9775" style="stroke: #B38D22; stroke-width: 1.0;"/><text fill="#000000" font-family="sans-serif" font-size="11" lengthAdjust="spacingAndGlyphs" textLength="304" x="1329" y="1039.6348">ClassPropertyRenderer(ClassRenderer, ClassDoc, String)</text><path d="M783.999,158.013 C693.95,173.895 586.698,196.858 493,228 C426.954,249.951 356.568,282.58 299.875,311.378 " fill="none" style="stroke: #A80036; stroke-width: 1.0;"/><polygon fill="none" points="782.926,151.095,803.827,154.581,785.314,164.89,782.926,151.095" style="stroke: #A80036; stroke-width: 1.0;"/><path d="M803.702,176.434 C648.48,217.99 435.14,276.362 352,305 C347.671,306.491 343.292,308.037 338.883,309.626 " fill="none" style="stroke: #A80036; stroke-width: 1.0;"/><polygon fill="#A80036" points="334.088,311.366,343.9127,312.0557,338.7881,309.6603,341.1835,304.5356,334.088,311.366" style="stroke: #A80036; stroke-width: 1.0;"/><text fill="#000000" font-family="sans-serif" font-size="13" lengthAdjust="spacingAndGlyphs" textLength="51" x="599" y="256.5684">diagram</text><path d="M1053.25,213.442 C1092.2,258.707 1137.85,311.74 1165.58,343.963 " fill="none" style="stroke: #A80036; stroke-width: 1.0;"/><polygon fill="none" points="1047.8,217.842,1040.06,198.117,1058.41,208.709,1047.8,217.842" style="stroke: #A80036; stroke-width: 1.0;"/><path d="M1174.76,343.954 C1157.2,313.317 1127.35,264.835 1095,228 C1087.22,219.144 1078.65,210.354 1069.8,201.881 " fill="none" style="stroke: #A80036; stroke-width: 1.0;"/><polygon fill="#A80036" points="1066,198.27,1069.7739,207.3671,1069.6265,201.7122,1075.2814,201.5648,1066,198.27" style="stroke: #A80036; stroke-width: 1.0;"/><text fill="#000000" font-family="sans-serif" font-size="13" lengthAdjust="spacingAndGlyphs" textLength="40" x="1159.5" y="241.5684">parent</text><text fill="#000000" font-family="sans-serif" font-size="13" lengthAdjust="spacingAndGlyphs" textLength="97" x="1131" y="256.8789">previousSibling</text><text fill="#000000" font-family="sans-serif" font-size="13" lengthAdjust="spacingAndGlyphs" textLength="71" x="1144" y="272.1895">nextSibling</text><path d="M832.634,207.52 C754.901,248.397 662.707,296.878 598.095,330.855 " fill="none" style="stroke: #A80036; stroke-width: 1.0;"/><polygon fill="none" points="829.556,201.23,850.515,198.117,836.072,213.621,829.556,201.23" style="stroke: #A80036; stroke-width: 1.0;"/><path d="M1170.46,423.706 C1152.96,464.785 1128.04,523.268 1111.23,562.713 " fill="none" style="stroke: #A80036; stroke-width: 1.0;"/><polygon fill="none" points="1164.11,420.753,1178.39,405.098,1176.99,426.241,1164.11,420.753" style="stroke: #A80036; stroke-width: 1.0;"/><path d="M944.193,216.692 C931.947,245.704 918.49,277.582 906.926,304.976 " fill="none" style="stroke: #A80036; stroke-width: 1.0;"/><polygon fill="none" points="937.808,213.82,952.035,198.117,950.706,219.265,937.808,213.82" style="stroke: #A80036; stroke-width: 1.0;"/><path d="M1176.62,201.111 C1197.2,209.729 1217.65,218.763 1237,228 C1288.74,252.706 1344.14,284.105 1389.78,311.406 " fill="none" style="stroke: #A80036; stroke-width: 1.0;"/><polygon fill="none" points="1173.94,207.58,1158.12,193.487,1179.28,194.637,1173.94,207.58" style="stroke: #A80036; stroke-width: 1.0;"/><path d="M1177.94,171.711 C1316.93,203.426 1506.72,250.627 1670,305 C1692.66,312.546 1716.61,321.749 1739.04,330.931 " fill="none" style="stroke: #A80036; stroke-width: 1.0;"/><polygon fill="none" points="1176.2,178.494,1158.24,167.242,1179.29,164.84,1176.2,178.494" style="stroke: #A80036; stroke-width: 1.0;"/><path d="M1243.34,417.89 C1273.6,442.396 1313.05,474.347 1350.8,504.916 " fill="none" style="stroke: #A80036; stroke-width: 1.0;"/><polygon fill="none" points="1238.68,423.125,1227.55,405.098,1247.49,412.245,1238.68,423.125" style="stroke: #A80036; stroke-width: 1.0;"/><path d="M1458.28,728.466 C1458.14,737.439 1458.35,746.358 1459,755 C1459.73,764.659 1460.86,774.806 1462.18,784.764 " fill="none" style="stroke: #A80036; stroke-width: 1.0;"/><polygon fill="none" points="1451.29,727.878,1459.12,708.186,1465.28,728.46,1451.29,727.878" style="stroke: #A80036; stroke-width: 1.0;"/><path d="M1474.28,784.809 C1474.37,762.669 1474.47,737.591 1474.57,713.412 " fill="none" style="stroke: #A80036; stroke-width: 1.0;"/><polygon fill="#A80036" points="1474.59,708.267,1470.5515,717.2498,1474.5686,713.267,1478.5514,717.2841,1474.59,708.267" style="stroke: #A80036; stroke-width: 1.0;"/><text fill="#000000" font-family="sans-serif" font-size="13" lengthAdjust="spacingAndGlyphs" textLength="40" x="1475" y="751.5684">parent</text><path d="M1474,944.754 C1474,959.149 1474,973.11 1474,984.7129 " fill="none" style="stroke: #A80036; stroke-width: 1.0;"/><polygon fill="none" points="1467,944.315,1474,924.315,1481,944.315,1467,944.315" style="stroke: #A80036; stroke-width: 1.0;"/><path d="M1158.06,108.842 C1179.2,112.416 1193,118.969 1193,128.5 C1193,137.212 1181.47,143.436 1163.35,147.171 " fill="none" style="stroke: #A80036; stroke-width: 1.0;"/><polygon fill="#A80036" points="1158.06,148.158,1167.6397,150.4448,1162.9757,147.2437,1166.1768,142.5797,1158.06,148.158" style="stroke: #A80036; stroke-width: 1.0;"/><text fill="#000000" font-family="sans-serif" font-size="13" lengthAdjust="spacingAndGlyphs" textLength="51" x="1199" y="133.5684">children</text><text fill="#000000" font-family="sans-serif" font-size="13" lengthAdjust="spacingAndGlyphs" textLength="6" x="1166.219" y="146.2914">*</text></g></svg>